<svg width="19" height="25" viewBox="0 0 19 25" fill="none" xmlns="http://www.w3.org/2000/svg">
<path d="M0.347807 17.5452C0.664877 15.0755 2.76446 13.2272 5.24175 13.2119H13.4435C15.9055 13.2272 17.9899 15.0452 18.3222 17.4997L18.3374 17.53L18.6849 20.7875H18.6697C18.6999 20.9389 18.7151 21.1055 18.7151 21.2572C18.6999 23.2875 17.0838 24.9694 14.9995 24.9694L3.71594 24.9997H3.70071H3.68548C1.61609 24.9694 0 23.3027 0 21.2725C0 21.1361 -2.06319e-07 20.9847 0.0301837 20.833C0.0301837 20.8177 0.0301837 20.8177 0.0301837 20.8027L0.347253 17.5755V17.5452H0.347807ZM2.59831 17.8027V17.833L2.28124 21.0602V21.0905L2.26601 21.2725C2.26601 22.0602 2.90042 22.7269 3.70099 22.7269H3.71622H3.7464L14.9992 22.6966C15.7998 22.6966 16.4491 22.03 16.4491 21.2572L16.4339 21.0602L16.4189 21.03L16.0714 17.7725C15.89 16.4694 14.7574 15.4847 13.4432 15.4847H5.24148C3.91228 15.4844 2.77941 16.4844 2.59831 17.8027Z" fill="#333333"/>
<path d="M12.8091 5.71222C12.8091 3.81833 11.2684 2.27278 9.38036 2.27278C7.47712 2.27278 5.93663 3.81833 5.93663 5.71222C5.93635 7.62111 7.47712 9.16667 9.38036 9.16667C11.2684 9.16667 12.8091 7.62111 12.8091 5.71222ZM3.6709 5.71222C3.6709 2.56056 6.22352 0 9.38036 0C12.522 0 15.0749 2.56056 15.0749 5.71222C15.0749 8.87889 12.5223 11.4394 9.38036 11.4394C6.22352 11.4394 3.6709 8.87889 3.6709 5.71222Z" fill="#333333"/>
</svg>
