<svg width="158" height="41" viewBox="0 0 158 41" fill="none" xmlns="http://www.w3.org/2000/svg">
<path d="M51.9575 35.3731H48.4578L46.5413 29.9815H39.8751L38.0558 35.3731H34.6533L41.25 17.0244H45.333L51.9575 35.3731ZM45.9719 27.7205L44.2359 22.9377C44.0554 22.4408 43.7082 21.2979 43.2082 19.4842H43.1388C42.9304 20.2668 42.611 21.4221 42.1666 22.9377L40.4584 27.7205H45.9719Z" fill="white"/>
<path d="M68.9149 28.6024C68.9149 30.8509 68.2344 32.6274 66.8595 33.9318C65.6374 35.0995 64.1097 35.671 62.3043 35.671C60.3461 35.671 58.9435 35.0499 58.0824 33.7951V40.7395H54.791V26.4905C54.791 25.0743 54.7493 23.6332 54.666 22.1424H57.5547L57.7352 24.2419H57.7908C58.8879 22.6642 60.5544 21.8691 62.7765 21.8691C64.5263 21.8691 65.9707 22.4903 67.1372 23.7202C68.3316 24.9624 68.9149 26.5774 68.9149 28.6024ZM65.5679 28.7017C65.5679 27.4098 65.2485 26.3538 64.5958 25.5215C63.8875 24.6519 62.9292 24.2171 61.7349 24.2171C60.9294 24.2171 60.1934 24.4655 59.5267 24.9376C58.874 25.4221 58.4296 26.0432 58.2352 26.8259C58.138 27.1861 58.0824 27.4843 58.0824 27.7203V29.9316C58.0824 30.8882 58.4157 31.7081 59.0684 32.3665C59.7212 33.0249 60.5822 33.3603 61.6377 33.3603C62.8737 33.3603 63.832 32.9255 64.5263 32.0808C65.2207 31.2236 65.5679 30.1055 65.5679 28.7017Z" fill="white"/>
<path d="M85.9139 28.6024C85.9139 30.8509 85.2334 32.6274 83.8585 33.9318C82.6364 35.0995 81.1087 35.671 79.3033 35.671C77.3451 35.671 75.9425 35.0499 75.0814 33.7951V40.7395H71.79V26.4905C71.79 25.0743 71.7484 23.6332 71.665 22.1424H74.5537L74.7342 24.2419H74.7898C75.8869 22.6642 77.5535 21.8691 79.7755 21.8691C81.5254 21.8691 82.9697 22.4903 84.1363 23.7202C85.3306 24.9624 85.9139 26.5774 85.9139 28.6024ZM82.567 28.7017C82.567 27.4098 82.2475 26.3538 81.5948 25.5215C80.8865 24.6519 79.9283 24.2171 78.7339 24.2171C77.9284 24.2171 77.1924 24.4655 76.5258 24.9376C75.873 25.4221 75.4425 26.0432 75.2342 26.8259C75.137 27.1861 75.0814 27.4843 75.0814 27.7203V29.9316C75.0814 30.8882 75.4147 31.7081 76.0675 32.3665C76.7202 33.0249 77.5812 33.3603 78.6367 33.3603C79.8727 33.3603 80.8449 32.9255 81.5254 32.0808C82.2337 31.2236 82.567 30.1055 82.567 28.7017Z" fill="white"/>
<path d="M104.94 30.2291C104.94 31.7944 104.329 33.0616 103.12 34.043C101.787 35.1113 99.9263 35.6455 97.5376 35.6455C95.3294 35.6455 93.5656 35.2604 92.2324 34.5026L92.9962 32.0553C94.4406 32.8131 96.0238 33.1982 97.7459 33.1982C98.9819 33.1982 99.954 32.9498 100.635 32.4528C101.329 31.9559 101.676 31.2851 101.676 30.4527C101.676 29.7074 101.384 29.0862 100.829 28.5769C100.26 28.0675 99.3152 27.5955 97.9958 27.1607C94.3711 25.9557 92.5796 24.204 92.5796 21.9058C92.5796 20.4026 93.2185 19.1727 94.4822 18.2038C95.746 17.2472 97.4264 16.7627 99.5235 16.7627C101.384 16.7627 102.94 17.0484 104.176 17.6323L103.343 20.0175C102.176 19.4585 100.871 19.1727 99.3985 19.1727C98.2458 19.1727 97.3292 19.4336 96.6765 19.9305C96.1349 20.3902 95.8571 20.9368 95.8571 21.5952C95.8571 22.3157 96.1765 22.9245 96.8015 23.3841C97.3431 23.8189 98.343 24.291 99.7874 24.8003C101.551 25.4339 102.843 26.1793 103.676 27.0364C104.523 27.8936 104.94 28.962 104.94 30.2291Z" fill="white"/>
<path d="M115.827 24.3539H112.203V30.7766C112.203 32.404 112.842 33.2239 114.119 33.2239C114.702 33.2239 115.189 33.1742 115.577 33.0872L115.675 35.3234C115.022 35.5346 114.175 35.6464 113.119 35.6464C111.814 35.6464 110.814 35.2861 110.078 34.578C109.342 33.8699 108.981 32.6773 108.981 31.0126V24.3415H106.828V22.1427H108.981V19.7202L112.203 18.8506V22.1427H115.827V24.3539Z" fill="white"/>
<path d="M132.131 28.6513C132.131 30.6887 131.479 32.3534 130.187 33.6578C128.826 34.9994 127.021 35.6703 124.771 35.6703C122.604 35.6703 120.868 35.0243 119.577 33.7447C118.285 32.4652 117.646 30.8378 117.646 28.875C117.646 26.8252 118.313 25.1481 119.632 23.8437C120.966 22.5393 122.757 21.8809 125.007 21.8809C127.173 21.8809 128.923 22.5269 130.243 23.8188C131.506 25.0611 132.131 26.6761 132.131 28.6513ZM128.729 28.7135C128.729 27.496 128.437 26.4649 127.854 25.5953C127.16 24.5394 126.174 24.0176 124.896 24.0176C123.577 24.0176 122.563 24.5394 121.882 25.5953C121.285 26.4649 121.007 27.5209 121.007 28.7756C121.007 29.993 121.299 31.0365 121.882 31.8937C122.591 32.9497 123.59 33.4714 124.868 33.4714C126.118 33.4714 127.104 32.9372 127.826 31.8689C128.423 30.9744 128.729 29.9309 128.729 28.7135Z" fill="white"/>
<path d="M142.824 24.7264C142.505 24.6767 142.158 24.6519 141.783 24.6519C140.63 24.6519 139.727 25.037 139.103 25.8196C138.561 26.5029 138.283 27.3849 138.283 28.4284V35.3729H134.992V26.3041C134.992 24.7761 134.964 23.3847 134.895 22.1424H137.755L137.88 24.6767H137.978C138.325 23.8071 138.866 23.099 139.616 22.5772C140.352 22.1052 141.144 21.8691 141.991 21.8691C142.297 21.8691 142.574 21.894 142.811 21.9188L142.824 24.7264Z" fill="white"/>
<path d="M157.518 28.1305C157.518 28.6522 157.476 29.0994 157.393 29.4597H147.533C147.574 30.7641 148.046 31.7704 148.963 32.4536C149.796 33.0624 150.866 33.3729 152.185 33.3729C153.643 33.3729 154.976 33.1617 156.171 32.7518L156.685 34.7891C155.282 35.3357 153.629 35.6091 151.727 35.6091C149.435 35.6091 147.63 35.0003 146.324 33.7953C145.019 32.5903 144.366 30.9629 144.366 28.9379C144.366 26.9503 144.977 25.2856 146.199 23.9564C147.477 22.5401 149.199 21.832 151.366 21.832C153.49 21.832 155.115 22.5401 156.199 23.9564C157.074 25.0993 157.518 26.4782 157.518 28.1305ZM154.379 27.3727C154.407 26.5031 154.185 25.7453 153.74 25.1117C153.171 24.2918 152.296 23.8818 151.13 23.8818C150.06 23.8818 149.185 24.2793 148.519 25.0744C147.977 25.708 147.644 26.4782 147.547 27.3602L154.379 27.3727Z" fill="white"/>
<path d="M43.1665 10.4643H41.4444L40.5001 7.81827H37.2226L36.3199 10.4643H34.6533L37.8892 1.44531H39.889L43.1665 10.4643ZM40.2084 6.70021L39.3613 4.33985C39.278 4.10382 39.1113 3.53236 38.8474 2.63791H38.8197C38.7086 3.02302 38.5697 3.58205 38.3336 4.33985L37.5003 6.70021H40.2084Z" fill="white"/>
<path d="M51.2756 3.9541L48.5258 10.4637H46.9565L44.29 3.9541H46.026L47.262 7.39525C47.4703 7.96671 47.6509 8.51331 47.7898 9.03508H47.8314C47.9564 8.563 48.137 8.0164 48.3592 7.39525L49.5813 3.9541H51.2756Z" fill="white"/>
<path d="M57.1376 10.4652L57.0126 9.71979H56.9709C56.4709 10.3161 55.7627 10.6142 54.8461 10.6142C53.5406 10.6142 52.624 9.79432 52.624 8.70111C52.624 7.09855 54.1795 6.26622 56.8737 6.26622V6.14199C56.8737 5.28481 56.3598 4.86243 55.3599 4.86243C54.6378 4.86243 54.0128 5.02393 53.4573 5.34692L53.124 4.40278C53.7906 4.03009 54.6377 3.84375 55.6238 3.84375C57.5264 3.84375 58.4847 4.7382 58.4847 6.53952V8.93714C58.4847 9.59556 58.5124 10.1049 58.5958 10.49L57.1376 10.4652ZM56.9153 7.22278C55.1238 7.22278 54.2211 7.60789 54.2211 8.53961C54.2211 9.22287 54.6794 9.55829 55.3321 9.55829C56.1515 9.55829 56.9153 8.99926 56.9153 8.22904V7.22278Z" fill="white"/>
<path d="M62.0823 2.88596C61.5407 2.88596 61.124 2.51328 61.124 2.01636C61.124 1.51944 61.5545 1.15918 62.11 1.15918C62.6656 1.15918 63.11 1.51944 63.0961 2.01636C63.0961 2.53812 62.6794 2.88596 62.0823 2.88596ZM61.3046 3.95434H62.9155V10.4515H61.3046V3.95434Z" fill="white"/>
<path d="M65.791 0.972656H67.4014V10.4513H65.791V0.972656Z" fill="white"/>
<path d="M74.2616 10.4649L74.1366 9.71952H74.0949C73.595 10.3158 72.8867 10.614 71.9701 10.614C70.6646 10.614 69.748 9.79406 69.748 8.70084C69.748 7.09828 71.3035 6.26595 73.9977 6.26595V6.14172C73.9977 5.28454 73.4839 4.86216 72.4839 4.86216C71.7618 4.86216 71.1368 5.02365 70.5813 5.34665L70.248 4.39009C70.9146 4.0174 71.7618 3.83105 72.7478 3.83105C74.6504 3.83105 75.6087 4.7255 75.6087 6.52683V8.92445C75.6087 9.58287 75.6365 10.0922 75.7059 10.4773H74.2616V10.4649ZM74.0394 7.22251C72.2478 7.22251 71.3451 7.60762 71.3451 8.53934C71.3451 9.2226 71.8034 9.55802 72.4562 9.55802C73.2755 9.55802 74.0394 8.99899 74.0394 8.22877V7.22251Z" fill="white"/>
<path d="M82.1644 10.6128C81.1367 10.6128 80.3729 10.2277 79.8729 9.45751H79.8452L79.7479 10.4638H78.373C78.4147 9.942 78.4286 9.35812 78.4286 8.71213V0.972656H80.0535V4.91072H80.0812C80.5673 4.19019 81.3311 3.82993 82.4005 3.82993C84.1504 3.82993 85.3725 5.1716 85.3725 7.122C85.3725 9.13451 84.0115 10.6128 82.1644 10.6128ZM81.8311 4.96041C80.9006 4.96041 80.0535 5.68094 80.0535 6.6872V7.8301C80.0535 8.72455 80.8173 9.45751 81.8033 9.45751C83.0116 9.45751 83.7337 8.57548 83.7337 7.17169C83.7337 5.85486 82.9838 4.96041 81.8311 4.96041Z" fill="white"/>
<path d="M87.7598 0.972656H89.3702V10.4513H87.7598V0.972656Z" fill="white"/>
<path d="M98.163 7.55739H93.3162C93.3439 8.78725 94.2605 9.48294 95.6076 9.48294C96.3298 9.48294 96.9825 9.37113 97.5658 9.17236L97.8158 10.1786C97.1353 10.4519 96.3298 10.5762 95.3854 10.5762C93.1079 10.5762 91.7607 9.29659 91.7607 7.2965C91.7607 5.30884 93.1356 3.80566 95.2049 3.80566C97.052 3.80566 98.2324 5.03553 98.2324 6.89897C98.2324 7.15985 98.2185 7.38346 98.163 7.55739ZM96.6909 6.52628C96.6909 5.52003 96.1215 4.81192 95.0938 4.81192C94.1633 4.81192 93.4412 5.53245 93.3301 6.52628H96.6909Z" fill="white"/>
<path d="M107.953 10.614C105.828 10.614 104.453 9.19776 104.453 7.2722C104.453 5.25969 105.856 3.83105 108.078 3.83105C110.175 3.83105 111.578 5.18515 111.578 7.1604C111.578 9.18533 110.133 10.614 107.953 10.614ZM108.022 4.887C106.856 4.887 106.106 5.86841 106.106 7.22251C106.106 8.56419 106.87 9.53317 108.008 9.53317C109.147 9.53317 109.911 8.48965 109.911 7.18524C109.897 5.86841 109.161 4.887 108.022 4.887Z" fill="white"/>
<path d="M120.257 10.4646H118.646V6.72532C118.646 5.56999 118.146 4.99854 117.174 4.99854C116.216 4.99854 115.563 5.73149 115.563 6.58867V10.4522H113.952V5.81845C113.952 5.247 113.938 4.62585 113.896 3.95501H115.313L115.382 4.96127H115.424C115.855 4.26558 116.743 3.81836 117.73 3.81836C119.257 3.81836 120.257 4.86188 120.257 6.56383V10.4646Z" fill="white"/>
<path d="M130.826 5.04804H129.049V8.20346C129.049 9.01095 129.368 9.40848 129.993 9.40848C130.271 9.40848 130.521 9.38364 130.715 9.34637L130.757 10.4396C130.437 10.5514 130.021 10.6011 129.507 10.6011C128.229 10.6011 127.479 9.96751 127.479 8.32769V5.04804H126.424V3.96725H127.479V2.77465L129.063 2.33984V3.95482H130.84V5.04804" fill="white"/>
<path d="M139.38 10.4638H137.769V6.74931C137.769 5.58156 137.269 4.99768 136.297 4.99768C135.464 4.99768 134.686 5.50702 134.686 6.53812V10.4513H133.075V0.972656H134.686V4.87345H134.714C135.228 4.16534 135.95 3.8175 136.894 3.8175C138.436 3.8175 139.38 4.88587 139.38 6.58781V10.4638Z" fill="white"/>
<path d="M147.631 7.55739H142.784C142.812 8.78725 143.728 9.48294 145.075 9.48294C145.798 9.48294 146.45 9.37113 147.034 9.17236L147.284 10.1786C146.603 10.4519 145.798 10.5762 144.853 10.5762C142.576 10.5762 141.229 9.29659 141.229 7.2965C141.229 5.30884 142.603 3.80566 144.673 3.80566C146.52 3.80566 147.7 5.03553 147.7 6.89897C147.7 7.15985 147.686 7.38346 147.631 7.55739ZM146.159 6.52628C146.159 5.52003 145.589 4.81192 144.562 4.81192C143.631 4.81192 142.895 5.53245 142.798 6.52628H146.159Z" fill="white"/>
<path d="M1.66923 2.41895C0.744472 2.41895 0 3.16342 0 4.08817V38.3074C0 39.2321 0.744472 39.9766 1.66923 39.9766H17.5269C18.4517 39.9766 19.1961 39.2321 19.1961 38.3074V4.08817C19.1961 3.16342 18.4517 2.41895 17.5269 2.41895H1.66923ZM1.66923 6.59202H17.5269V34.1343H1.66923V6.59202ZM9.59807 35.3862C10.52 35.3862 11.2673 36.1336 11.2673 37.0555C11.2673 37.9774 10.52 38.7247 9.59807 38.7247C8.67617 38.7247 7.92884 37.9774 7.92884 37.0555C7.92884 36.1336 8.67617 35.3862 9.59807 35.3862Z" fill="white"/>
</svg>
