<svg width="23" height="25" viewBox="0 0 23 25" fill="none" xmlns="http://www.w3.org/2000/svg">
<path d="M21.9223 3.54699L19.0278 0.336704C18.8344 0.122329 18.5598 0 18.2716 0H4.52248C4.23434 0 3.95962 0.122329 3.7663 0.336704L0.871784 3.54699C0.732728 3.70119 0.647425 3.89028 0.619161 4.08784H0.608398V21.0737C0.608342 23.2386 2.36419 25 4.52248 25H18.2716C20.4299 25 22.1858 23.2386 22.1858 21.0737V4.23301H22.1853C22.1853 3.98426 22.0953 3.73875 21.9223 3.54699ZM4.97505 2.04545H17.8191L18.8693 3.21028H3.92479L4.97505 2.04545ZM18.2716 22.9545H4.52248C3.48859 22.9545 2.64745 22.1108 2.64745 21.0737V5.25574H20.1466V21.0737C20.1467 22.1108 19.3055 22.9545 18.2716 22.9545Z" fill="#333333"/>
<path d="M15.8547 7.76855C15.2916 7.76855 14.8351 8.22645 14.8351 8.79128V11.65C14.8351 13.5517 13.2928 15.0988 11.3971 15.0988C9.50134 15.0988 7.95903 13.5517 7.95903 11.65V8.79134C7.95903 8.22651 7.50256 7.76861 6.93948 7.76861C6.3764 7.76861 5.91992 8.22651 5.91992 8.79134V11.65C5.91992 14.6795 8.377 17.1442 11.3971 17.1442C14.4172 17.1442 16.8743 14.6796 16.8743 11.65V8.79128C16.8743 8.22651 16.4178 7.76855 15.8547 7.76855Z" fill="#333333"/>
</svg>
