<svg width="17" height="15" viewBox="0 0 17 15" fill="none" xmlns="http://www.w3.org/2000/svg">
<path d="M13.1897 0H2.84483C2.09033 0 1.36674 0.299722 0.83323 0.83323C0.299722 1.36674 0 2.09033 0 2.84483V12.1552C0 12.9097 0.299722 13.6333 0.83323 14.1668C1.36674 14.7003 2.09033 15 2.84483 15H13.1897C13.9441 15 14.6677 14.7003 15.2012 14.1668C15.7348 13.6333 16.0345 12.9097 16.0345 12.1552V2.84483C16.0345 2.09033 15.7348 1.36674 15.2012 0.83323C14.6677 0.299722 13.9441 0 13.1897 0ZM2.84483 1.55172H13.1897C13.5326 1.55172 13.8615 1.68796 14.104 1.93047C14.3465 2.17297 14.4828 2.50188 14.4828 2.84483V3.70086L9.44224 7.30086C9.02693 7.59669 8.52972 7.75567 8.01983 7.75567C7.50993 7.75567 7.01272 7.59669 6.59741 7.30086L1.55172 3.70086V2.84483C1.55172 2.50188 1.68796 2.17297 1.93047 1.93047C2.17297 1.68796 2.50187 1.55172 2.84483 1.55172V1.55172ZM13.1897 13.4483H2.84483C2.50187 13.4483 2.17297 13.312 1.93047 13.0695C1.68796 12.827 1.55172 12.4981 1.55172 12.1552V5.60948L5.68965 8.56552C6.36876 9.05079 7.18257 9.31167 8.01724 9.31167C8.85191 9.31167 9.66572 9.05079 10.3448 8.56552L14.4828 5.60948V12.1552C14.4828 12.4981 14.3465 12.827 14.104 13.0695C13.8615 13.312 13.5326 13.4483 13.1897 13.4483Z" fill="white"/>
</svg>
