<svg width="176" height="45" viewBox="0 0 176 45" fill="none" xmlns="http://www.w3.org/2000/svg">
<path d="M125.941 33.4178L124.573 34.7222C124.253 34.8962 123.945 35.1074 123.637 35.244C122.688 35.6788 121.728 35.7906 120.865 35.7906C119.954 35.7906 118.525 35.7285 117.071 34.6601C115.051 33.2191 114.164 30.7221 114.164 28.5605C114.164 24.0758 117.761 21.877 120.705 21.877C121.728 21.877 122.787 22.1378 123.637 22.6844C125.066 23.641 125.435 24.8833 125.633 25.5541L118.931 28.2996L116.739 28.4735C117.453 32.1507 119.904 34.2874 122.615 34.2874C123.97 34.2874 124.967 33.8402 125.891 33.3806C125.891 33.3806 126.076 33.2812 125.941 33.4178ZM121.851 26.0386C122.393 25.8399 122.664 25.6659 122.664 25.256C122.664 24.0882 121.395 22.7466 119.868 22.7466C118.747 22.7466 116.628 23.6534 116.628 26.7964C116.628 27.2933 116.689 27.8151 116.714 28.3369L121.851 26.0386Z" fill="white"/>
<path d="M111.947 33.2569C111.947 34.375 112.144 34.5489 113.08 34.6359C113.573 34.698 114.053 34.7228 114.534 34.7725L113.487 35.4061H108.473C109.126 34.5365 109.249 34.4495 109.249 33.8781V33.2321L109.237 16.0884H107.02L109.151 15.0449H113.216C112.329 15.5667 112.07 15.8773 111.959 16.8835L111.947 33.2569Z" fill="white"/>
<path d="M104.174 23.2935C104.827 23.8401 106.182 24.9955 106.182 27.1819C106.182 29.3186 104.999 30.3249 103.804 31.2815C103.435 31.6541 103.004 32.0641 103.004 32.6977C103.004 33.3312 103.435 33.6791 103.743 33.94L104.765 34.7475C106.009 35.8158 107.143 36.7972 107.143 38.7849C107.143 41.4931 104.556 44.2386 99.6777 44.2386C95.5633 44.2386 93.5801 42.2509 93.5801 40.1142C93.5801 39.0706 94.0851 37.6047 95.7728 36.5985C97.5343 35.5052 99.9118 35.3562 101.193 35.2692C100.799 34.7475 100.343 34.2008 100.343 33.3064C100.343 32.8219 100.491 32.5237 100.626 32.1759C100.318 32.2008 99.998 32.238 99.7147 32.238C96.709 32.238 95.009 29.9522 95.009 27.7037C95.009 26.3744 95.6003 24.9085 96.8321 23.8401C98.4459 22.486 100.38 22.25 101.907 22.25H107.759L105.935 23.2935H104.174ZM102.178 36.0767C101.944 36.0394 101.809 36.0394 101.525 36.0394C101.267 36.0394 99.7147 36.1016 98.5198 36.5115C97.8915 36.7475 96.0561 37.4556 96.0561 39.5427C96.0561 41.6297 98.027 43.1329 101.094 43.1329C103.841 43.1329 105.295 41.7788 105.295 39.9651C105.295 38.4495 104.346 37.6544 102.178 36.0767ZM102.979 30.5112C103.632 29.8528 103.694 28.9335 103.694 28.4118C103.694 26.3371 102.486 23.1196 100.133 23.1196C99.4067 23.1196 98.606 23.4923 98.1502 24.0762C97.6698 24.6725 97.5343 25.4551 97.5343 26.2005C97.5343 28.126 98.643 31.3187 101.07 31.3187C101.772 31.3187 102.536 30.9709 102.979 30.5112Z" fill="white"/>
<path d="M86.4851 35.7906C81.9642 35.7906 79.5498 32.188 79.5498 28.9332C79.5498 25.1318 82.5925 21.877 86.9162 21.877C91.0922 21.877 93.716 25.2187 93.716 28.7344C93.716 32.1631 91.1292 35.7906 86.4851 35.7906ZM90.0205 33.4427C90.7103 32.511 90.8828 31.3432 90.8828 30.2127C90.8828 27.6412 89.6879 22.7466 86.1402 22.7466C85.204 22.7466 84.2555 23.1192 83.5656 23.7404C82.457 24.7591 82.2475 26.0386 82.2475 27.2933C82.2475 30.1755 83.6395 34.921 87.101 34.921C88.2343 34.921 89.3676 34.3744 90.0205 33.4427Z" fill="white"/>
<path d="M71.3337 35.7906C66.8129 35.7906 64.3984 32.188 64.3984 28.9332C64.3984 25.1318 67.4411 21.877 71.7649 21.877C75.9408 21.877 78.5647 25.2187 78.5647 28.7344C78.5647 32.1631 75.9778 35.7906 71.3337 35.7906ZM74.8691 33.4427C75.559 32.511 75.7314 31.3432 75.7314 30.2127C75.7314 27.6412 74.5242 22.7466 70.9888 22.7466C70.0403 22.7466 69.1041 23.1192 68.4143 23.7404C67.2933 24.7591 67.0962 26.0386 67.0962 27.2933C67.0962 30.1755 68.5005 34.921 71.9497 34.921C73.0829 34.921 74.2162 34.3744 74.8691 33.4427Z" fill="white"/>
<path d="M62.5253 34.9339L58.6943 35.8284C57.1421 36.0768 55.7501 36.3004 54.2719 36.3004C46.8809 36.288 44.0723 30.7722 44.0723 26.4491C44.0723 21.1817 48.0634 16.2871 54.8879 16.2871C56.3291 16.2871 57.7211 16.4983 58.9899 16.8586C60.9978 17.43 61.934 18.1381 62.5253 18.5481L60.2957 20.6972L59.3595 20.9084L60.0246 19.8276C59.1131 18.9332 57.4501 17.2685 54.2966 17.2685C50.0713 17.2685 46.8809 20.5233 46.8809 25.2813C46.8809 30.3871 50.5148 35.1948 56.3538 35.1948C58.066 35.1948 58.9529 34.8469 59.7536 34.524V30.1387L55.7132 30.3623L57.8566 29.1945H63.5354L62.8456 29.8778C62.6608 30.0393 62.6362 30.089 62.5746 30.3126C62.5499 30.561 62.5253 31.3437 62.5253 31.6294V34.9339Z" fill="white"/>
<path d="M134.207 33.5421V40.884H132.766V22.2124H134.207V24.3367C135.143 22.9577 136.868 21.877 138.851 21.877C142.423 21.877 144.838 24.6224 144.838 28.958C144.838 33.2688 142.436 36.0639 138.851 36.0639C136.979 36.0639 135.291 35.0825 134.207 33.5421ZM143.359 29.0698C143.359 25.7653 141.672 23.2435 138.666 23.2435C136.806 23.2435 135.02 24.7342 134.244 26.0386V32.0762C135.02 33.3806 136.806 34.921 138.666 34.921C141.672 34.921 143.359 32.3743 143.359 29.0698Z" fill="white"/>
<path d="M146.808 17.0332H148.286V35.7918H146.808V17.0332Z" fill="white"/>
<path d="M164.361 39.5916C164.669 39.7283 165.199 39.8152 165.531 39.8152C166.418 39.8152 167.022 39.455 167.576 38.163L168.623 35.7529L162.944 22.125H164.558L169.424 33.9392L174.253 22.125H175.879L168.956 38.6102C168.241 40.3121 167.108 41.1321 165.556 41.1321C165.088 41.1321 164.472 41.0451 164.115 40.9333L164.361 39.5916Z" fill="white"/>
<path d="M160.283 35.7782C160.185 35.3061 160.111 34.8962 160.062 34.5483C160.012 34.2005 159.988 33.8526 159.988 33.4924C159.495 34.2253 158.793 34.8465 157.881 35.331C156.982 35.8155 156.12 36.0515 154.949 36.0515C153.533 36.0515 152.437 35.7037 151.66 34.9831C150.884 34.275 150.49 33.306 150.49 32.0886C150.49 30.8711 151.057 29.8773 152.19 29.1195C153.323 28.3617 154.789 27.9766 156.6 27.9766H159.975V26.2871C159.975 25.3181 159.643 24.5479 158.99 24.0013C158.337 23.4422 157.413 23.1689 156.218 23.1689C155.122 23.1689 154.235 23.4298 153.558 23.9267C152.892 24.4361 152.547 25.0696 152.547 25.8274H151.069L151.045 25.7529C150.995 24.7218 151.451 23.8274 152.449 23.0447C153.434 22.2621 154.715 21.877 156.305 21.877C157.881 21.877 159.162 22.2621 160.123 23.0323C161.084 23.7901 161.564 24.8957 161.564 26.3244V33.0327C161.564 33.5172 161.589 33.9769 161.651 34.4365C161.712 34.8962 161.811 35.3434 161.934 35.7782H160.283ZM155.134 34.7968C156.366 34.7968 157.253 34.5111 158.152 33.9644C159.052 33.4178 159.655 32.6973 159.975 31.8277V29.2065H156.576C155.282 29.2065 154.21 29.4922 153.36 30.0885C152.51 30.6724 152.092 31.3805 152.092 32.2128C152.092 32.9955 152.363 33.6166 152.905 34.0887C153.459 34.5608 154.198 34.7968 155.134 34.7968Z" fill="white"/>
<path d="M44.0732 4.39771C44.0732 1.72678 46.192 0 48.8282 0C50.5897 0 51.7476 0.795067 52.4744 1.76405L51.181 2.45974C50.6883 1.82617 49.8383 1.32925 48.8282 1.32925C47.042 1.32925 45.6993 2.60881 45.6993 4.39771C45.7116 6.17419 47.042 7.46617 48.8282 7.46617C49.7521 7.46617 50.5651 7.06864 50.9716 6.69595V5.39154H48.2615V4.07472H52.5483V7.24256C51.6614 8.17428 50.3926 8.79542 48.8282 8.79542C46.192 8.80785 44.0732 7.06864 44.0732 4.39771Z" fill="white"/>
<path d="M54.6045 8.68369V0.136719H60.8992V1.45355H56.2182V3.6524H60.8007V4.98166H56.2182V7.36686H60.8992V8.68369H54.6045Z" fill="white"/>
<path d="M65.1742 8.68369V1.45355H62.4395V0.136719H69.4979V1.45355H66.7632V8.68369H65.1742Z" fill="white"/>
<path d="M75.1523 0.136719H76.6922V8.68369H75.1523V0.136719Z" fill="white"/>
<path d="M81.1019 8.68369V1.45355H78.3672V0.136719H85.4257V1.45355H82.691V8.68369H81.1019Z" fill="white"/>
<path d="M90.6982 4.41041C90.6982 1.87613 92.6322 0.0126953 95.3916 0.0126953C98.1263 0.0126953 100.073 1.87613 100.073 4.41041C100.073 6.94468 98.114 8.80812 95.3916 8.80812C92.6322 8.80812 90.6982 6.94468 90.6982 4.41041ZM98.3973 4.33587C98.3973 2.59666 97.2147 1.29226 95.3793 1.29226C93.5315 1.29226 92.3612 2.59666 92.3612 4.33587C92.3612 6.06266 93.5315 7.37949 95.3793 7.37949C97.2147 7.37949 98.3973 6.07508 98.3973 4.33587Z" fill="white"/>
<path d="M108.165 8.68369L103.447 2.57161V8.68369H101.858V0.136719H103.484L108.104 6.06245V0.136719H109.693V8.68369H108.165Z" fill="white"/>
<path d="M1.54848 5.77832L17.19 21.307L21.4784 17.0185L2.51902 6.07174C2.20303 5.88835 1.86447 5.78678 1.54848 5.77832ZM0.239379 6.50058C0.0983124 6.75168 0.0136719 7.04792 0.0136719 7.38084V37.5579C0.0136719 37.8005 0.0644563 38.0178 0.149096 38.2124L16.1517 22.3226L0.239379 6.50058ZM22.7875 17.7634L18.2057 22.3226L22.7875 26.8594L28.385 23.6543C29.1807 23.1944 29.2935 22.6104 29.2879 22.3001C29.2794 21.7866 28.955 21.307 28.4076 21.0135C27.9308 20.7568 24.39 18.6944 22.7875 17.7634ZM17.19 23.3383L1.41306 38.9798C1.67544 38.9657 1.9604 38.9093 2.2256 38.7541C2.84347 38.3958 15.3392 31.1704 15.3392 31.1704L21.501 27.6268L17.19 23.3383Z" fill="white"/>
</svg>
