<svg width="810" height="1000" viewBox="0 0 810 1000" fill="none" xmlns="http://www.w3.org/2000/svg">
<path d="M418.752 1000H168.124V0H417.495C493.773 0 558.316 20.4766 609.208 63.8846C660.101 107.951 686.145 166.268 686.145 234.463V308.945C686.145 376.542 654.532 430.547 598.072 470.842C621.662 487.606 641.48 507.424 656.987 531.014C682.433 568.854 695.426 611.065 695.426 658.783V757.394C695.426 828.104 667.525 887.019 614.178 932.942C562.029 977.667 496.288 1000 418.752 1000ZM513.052 154.473C488.864 136.511 457.191 127.17 417.495 127.17H302.718V416.238H388.337C450.365 416.238 490.72 405.101 513.052 388.935C538.498 369.716 551.491 343.671 551.491 308.885V234.523C551.491 199.737 538.498 173.692 513.052 154.473ZM518.62 572.566C493.174 553.946 460.903 543.408 418.752 543.408H302.718V872.171H418.752C460.963 872.171 493.174 862.232 518.62 843.013C545.923 822.536 559.574 795.234 559.574 757.394V658.783C559.574 621.003 546.521 593.043 518.62 572.566Z" fill="#FDC114"/>
<path d="M0.598731 734.643L2.15543 732.188C2.63442 731.41 3.83188 731.11 4.96947 732.008C6.52617 733.266 12.8727 738.055 21.5543 738.055C30.3556 738.055 36.4028 733.086 36.4028 727.039C36.4028 719.914 29.4576 716.98 19.0396 713.088C8.02299 709.197 0 704.407 0 694.827C0 688.002 6.04718 678.721 20.297 678.721C28.4996 678.721 34.6665 681.655 37.7799 683.691C38.7379 684.289 39.0372 685.547 38.3786 686.624L37.4805 688.301C36.8818 689.379 35.6245 689.678 34.5468 689.079C33.1697 688.121 26.9429 684.768 20.297 684.768C10.5377 684.768 7.00515 690.516 7.00515 694.647C7.00515 700.814 12.5733 703.808 21.7339 707.041C33.3493 711.352 43.5277 715.244 43.5277 726.56C43.5277 735.84 33.948 743.743 21.5543 743.743C11.0166 743.743 4.6701 739.432 1.25733 736.798C0.598731 736.319 0.179619 735.421 0.598731 734.643Z" fill="#231F20"/>
<path d="M65.3214 635.912C65.3214 634.834 66.2195 633.876 67.4768 633.876H69.9316C71.0093 633.876 71.9673 634.834 71.9673 635.912V688.66C74.003 686.624 82.2056 678.781 94.4197 678.781C110.526 678.781 119.327 688.66 119.327 707.101V740.211C119.327 741.289 118.429 742.246 117.291 742.246H114.477C113.399 742.246 112.442 741.289 112.442 740.211V707.101C112.442 692.851 105.796 685.427 94.0006 685.427C81.1279 685.427 72.5062 695.486 71.8476 696.264V740.211C71.8476 741.468 71.2488 742.246 69.8119 742.246H66.8781C65.8004 742.246 65.2017 741.289 65.2017 740.211V635.912H65.3214Z" fill="#231F20"/>
<path d="M166.807 702.311C173.932 702.311 180.757 704.467 182.434 705.125C182.434 691.534 181.056 684.708 168.842 684.708C158.604 684.708 151.659 688.421 150.282 688.9C149.024 689.379 148.246 688.72 147.947 687.642L147.168 685.786C146.689 684.409 147.348 683.751 148.126 683.451C148.605 683.152 156.509 678.781 169.321 678.781C188.181 678.781 188.96 690.097 188.96 705.844V740.211C188.96 741.289 188.002 742.246 186.924 742.246H185.068C183.99 742.246 183.511 741.648 183.212 740.57L182.613 735.002C178.602 738.714 170.998 743.803 161.119 743.803C149.683 743.803 140.822 735.9 140.822 723.207C140.822 711.232 150.581 702.311 166.807 702.311ZM161.897 737.696C171.357 737.696 179.56 731.948 182.493 728.116V711.112C180.458 710.154 174.291 707.879 166.867 707.879C155.131 707.879 147.228 713.927 147.228 723.027C147.168 732.008 153.395 737.696 161.897 737.696Z" fill="#231F20"/>
<path d="M215.723 682.314C215.723 681.236 216.621 680.278 217.759 680.278H219.615C220.573 680.278 221.291 680.877 221.471 681.954L222.069 688.301C223.626 686.145 229.793 678.721 241.409 678.721C246.378 678.721 249.791 680.098 250.988 680.577C252.365 681.056 253.144 682.134 252.665 683.391L251.407 686.505C250.928 687.582 250.03 687.762 248.952 687.283C248.174 686.984 245.061 685.427 240.93 685.427C228.835 685.427 222.968 695.186 222.489 696.084V740.211C222.489 741.468 221.89 742.247 220.453 742.247H217.34C216.262 742.247 215.663 741.289 215.663 740.211V682.314H215.723Z" fill="#231F20"/>
<path d="M295.294 678.781C311.519 678.781 323.314 690.696 323.314 707.101C323.314 709.556 323.314 713.148 320.979 713.148H271.644C272.243 726.44 281.882 737.576 295.773 737.576C303.975 737.576 310.322 734.343 314.034 731.829C315.411 730.871 316.07 730.751 316.848 731.829L318.405 733.984C318.884 734.583 318.704 735.541 317.806 736.439C314.693 739.552 304.933 743.683 295.354 743.683C276.494 743.683 264.878 729.134 264.878 711.053C264.818 693.45 276.434 678.781 295.294 678.781ZM316.489 707.52C316.489 695.426 309.184 684.948 295.294 684.948C281.703 684.948 272.542 694.827 271.764 707.52H316.489Z" fill="#231F20"/>
<path d="M407.975 684.05L405.64 681.595C398.994 674.35 392.049 666.567 392.348 656.389C392.348 645.731 400.371 632.379 418.812 632.379C435.397 632.379 443.899 643.695 443.899 655.73C443.899 668.603 430.607 678.781 418.393 685.128L449.946 716.381C455.814 706.921 459.227 695.665 459.227 684.828C459.227 684.05 459.047 682.493 459.047 681.715C459.047 680.936 459.346 680.338 460.304 680.338H463.537C464.615 680.338 465.094 680.817 465.394 681.715C465.693 682.793 465.693 684.05 465.693 684.828C465.693 697.042 461.502 710.214 454.557 720.872L470.662 736.798C471.92 737.876 472.518 739.253 471.261 740.331L468.806 742.666C467.549 743.923 466.471 743.145 465.693 742.366L450.246 726.739C441.444 737.097 429.17 743.743 414.501 743.743C395.941 743.743 385.104 730.571 385.104 715.423C385.044 699.198 396.959 689.917 407.975 684.05ZM414.621 737.576C427.494 737.576 438.151 731.529 445.875 722.249L412.286 688.181C402.227 693.57 391.869 701.952 391.869 715.423C391.869 727.817 401.269 737.576 414.621 737.576ZM437.074 655.85C437.074 647.168 430.907 638.367 418.333 638.367C405.041 638.367 398.815 647.827 398.815 656.448C398.635 663.693 403.784 670.399 409.352 676.087C410.909 677.464 412.286 679.021 413.843 680.577C425.099 674.889 437.074 666.986 437.074 655.85Z" fill="#231F20"/>
<path d="M522.632 682.793C522.153 681.415 522.153 680.338 523.53 680.338H526.943C527.721 680.338 528.619 680.637 528.979 681.715L543.528 730.451H543.707L562.148 680.158C562.448 679.08 563.106 678.781 564.004 678.781H564.603C565.381 678.781 566.16 679.26 566.459 680.158L584.9 730.451H585.08L599.629 681.715C599.928 680.637 600.886 680.338 601.664 680.338H605.077C606.454 680.338 606.454 681.415 605.975 682.793L587.415 742.366C587.115 743.444 586.517 743.743 585.559 743.743H584.96C584.181 743.743 583.403 743.264 583.104 742.366L564.363 690.217H564.184L545.623 742.366C545.324 743.324 544.546 743.743 543.767 743.743H543.168C542.27 743.743 541.612 743.444 541.312 742.366L522.632 682.793Z" fill="#231F20"/>
<path d="M652.796 678.781C669.022 678.781 680.817 690.696 680.817 707.101C680.817 709.556 680.817 713.148 678.482 713.148H629.146C629.745 726.44 639.385 737.576 653.275 737.576C661.478 737.576 667.824 734.343 671.536 731.829C672.913 730.871 673.572 730.751 674.35 731.829L675.907 733.984C676.386 734.583 676.207 735.541 675.308 736.439C672.195 739.552 662.436 743.683 652.856 743.683C633.996 743.683 622.381 729.134 622.381 711.053C622.321 693.45 633.876 678.781 652.796 678.781ZM673.991 707.52C673.991 695.426 666.687 684.948 652.796 684.948C639.205 684.948 630.044 694.827 629.266 707.52H673.991Z" fill="#231F20"/>
<path d="M723.985 702.311C731.11 702.311 737.936 704.467 739.612 705.125C739.612 691.534 738.235 684.708 726.021 684.708C715.783 684.708 708.837 688.421 707.46 688.9C706.203 689.379 705.424 688.72 705.125 687.642L704.347 685.786C703.868 684.409 704.526 683.751 705.305 683.451C705.784 683.152 713.687 678.781 726.5 678.781C745.36 678.781 746.138 690.097 746.138 705.844V740.211C746.138 741.289 745.18 742.246 744.103 742.246H742.246C741.169 742.246 740.69 741.648 740.39 740.57L739.792 735.002C735.78 738.714 728.176 743.803 718.297 743.803C706.861 743.803 698 735.9 698 723.207C698 711.232 707.7 702.311 723.985 702.311ZM719.016 737.696C728.476 737.696 736.678 731.948 739.612 728.116V711.112C737.576 710.154 731.409 707.879 723.985 707.879C712.25 707.879 704.347 713.927 704.347 723.027C704.347 732.008 710.514 737.696 719.016 737.696Z" fill="#231F20"/>
<path d="M772.901 682.314C772.901 681.236 773.8 680.278 774.937 680.278H776.793C777.751 680.278 778.47 680.877 778.649 681.954L779.248 688.301C780.805 686.145 786.972 678.721 798.587 678.721C803.556 678.721 806.969 680.098 808.167 680.577C809.544 681.056 810.322 682.134 809.843 683.391L808.586 686.505C808.107 687.582 807.209 687.762 806.131 687.283C805.353 686.984 802.239 685.427 798.108 685.427C786.014 685.427 780.146 695.186 779.667 696.084V740.211C779.667 741.468 779.068 742.247 777.631 742.247H774.518C773.44 742.247 772.842 741.289 772.842 740.211V682.314H772.901Z" fill="#231F20"/>
<path d="M204.766 617.89H125.793V302.958H204.347C228.356 302.958 248.713 309.424 264.699 323.075C280.745 336.966 288.948 355.287 288.948 376.781V400.252C288.948 421.566 279.009 438.57 261.226 451.263C268.651 456.532 274.877 462.819 279.787 470.243C287.81 482.158 291.881 495.45 291.881 510.478V541.552C291.881 563.825 283.08 582.385 266.316 596.815C249.85 610.885 229.194 617.89 204.766 617.89ZM234.463 351.575C226.859 345.887 216.86 342.953 204.347 342.953H168.184V434.02H195.126C214.645 434.02 227.338 430.487 234.403 425.398C242.426 419.351 246.498 411.148 246.498 400.192V376.721C246.557 365.824 242.486 357.622 234.463 351.575ZM236.199 483.295C228.176 477.428 218.058 474.135 204.766 474.135H168.243V577.715H204.766C218.058 577.715 228.236 574.602 236.199 568.555C244.821 562.088 249.072 553.527 249.072 541.612V510.538C249.072 498.503 245.001 489.702 236.199 483.295Z" fill="#1B1C1C"/>
<path d="M395.582 303.497H438.151V618.249H395.582V303.497Z" fill="#1B1C1C"/>
<path d="M551.072 585.439L646.988 343.971H551.072V303.736H694.468V336.726L598.372 578.254H694.528V618.309H551.072V585.439Z" fill="#1B1C1C"/>
</svg>
