<svg width="87" height="107" viewBox="0 0 87 107" fill="none" xmlns="http://www.w3.org/2000/svg">
<path d="M44.771 106.917H17.9746V0H44.6365C52.792 0 59.6927 2.18929 65.1339 6.83032C70.5751 11.5418 73.3597 17.7768 73.3597 25.068V33.0313C73.3597 40.2586 69.9798 46.0326 63.9432 50.3408C66.4654 52.1332 68.5843 54.2521 70.2422 56.7742C72.9628 60.8199 74.352 65.3329 74.352 70.4349V80.978C74.352 88.5381 71.3689 94.8371 65.6652 99.747C60.0896 104.529 53.0608 106.917 44.771 106.917ZM54.8532 16.5157C52.267 14.5952 48.8807 13.5966 44.6365 13.5966H32.365V44.5027H41.519C48.1509 44.5027 52.4655 43.312 54.8532 41.5836C57.5738 39.5288 58.9629 36.7442 58.9629 33.0249V25.0744C58.9629 21.3551 57.5738 18.5705 54.8532 16.5157ZM55.4485 61.2168C52.7279 59.226 49.2776 58.0993 44.771 58.0993H32.365V93.2495H44.771C49.284 93.2495 52.7279 92.1869 55.4485 90.132C58.3676 87.9428 59.8271 85.0237 59.8271 80.978V70.4349C59.8271 66.3956 58.4316 63.4061 55.4485 61.2168Z" fill="#FDC114"/>
<path d="M0.0640142 78.5453L0.230451 78.2829C0.281663 78.1997 0.409691 78.1677 0.531318 78.2637C0.697755 78.3981 1.37631 78.9102 2.30451 78.9102C3.24552 78.9102 3.89207 78.3789 3.89207 77.7324C3.89207 76.9706 3.1495 76.6569 2.03565 76.2408C0.857791 75.8247 0 75.3126 0 74.2884C0 73.5586 0.646544 72.5664 2.17008 72.5664C3.04708 72.5664 3.70642 72.8801 4.0393 73.0977C4.14172 73.1617 4.17373 73.2962 4.10331 73.4114L4.00729 73.5906C3.94328 73.7059 3.80885 73.7379 3.69362 73.6739C3.54639 73.5714 2.88064 73.2129 2.17008 73.2129C1.12665 73.2129 0.748967 73.8275 0.748967 74.2692C0.748967 74.9285 1.3443 75.2486 2.32372 75.5943C3.56559 76.0552 4.65383 76.4713 4.65383 77.6811C4.65383 78.6734 3.62961 79.5183 2.30451 79.5183C1.17786 79.5183 0.499311 79.0574 0.13443 78.7758C0.0640142 78.7246 0.0192043 78.6286 0.0640142 78.5453Z" fill="white"/>
<path d="M6.98448 67.9891C6.98448 67.8739 7.0805 67.7715 7.21493 67.7715H7.47739C7.59262 67.7715 7.69504 67.8739 7.69504 67.9891V73.6288C7.91269 73.4111 8.78968 72.5726 10.0956 72.5726C11.8176 72.5726 12.7586 73.6288 12.7586 75.6004V79.1404C12.7586 79.2556 12.6625 79.3581 12.5409 79.3581H12.24C12.1248 79.3581 12.0224 79.2556 12.0224 79.1404V75.6004C12.0224 74.0769 11.3118 73.2831 10.0508 73.2831C8.67446 73.2831 7.75265 74.3586 7.68224 74.4418V79.1404C7.68224 79.2749 7.61822 79.3581 7.46459 79.3581H7.15092C7.03569 79.3581 6.97168 79.2556 6.97168 79.1404V67.9891H6.98448Z" fill="white"/>
<path d="M17.8339 75.089C18.5957 75.089 19.3254 75.3195 19.5047 75.3899C19.5047 73.9367 19.3574 73.207 18.0515 73.207C16.9569 73.207 16.2143 73.6039 16.0671 73.6551C15.9327 73.7063 15.8494 73.6359 15.8174 73.5207L15.7342 73.3222C15.683 73.175 15.7534 73.1046 15.8366 73.0726C15.8878 73.0405 16.7328 72.5732 18.1027 72.5732C20.1192 72.5732 20.2024 73.7831 20.2024 75.4667V79.1411C20.2024 79.2563 20.1 79.3588 19.9848 79.3588H19.7863C19.6711 79.3588 19.6199 79.2947 19.5879 79.1795L19.5239 78.5842C19.095 78.9811 18.282 79.5252 17.2257 79.5252C16.0031 79.5252 15.0557 78.6802 15.0557 77.3231C15.0557 76.0428 16.0991 75.089 17.8339 75.089ZM17.309 78.8722C18.3204 78.8722 19.1974 78.2577 19.5111 77.848V76.03C19.2934 75.9276 18.6341 75.6843 17.8403 75.6843C16.5856 75.6843 15.7406 76.3309 15.7406 77.3039C15.7342 78.2641 16.4 78.8722 17.309 78.8722Z" fill="white"/>
<path d="M23.064 72.9505C23.064 72.8353 23.16 72.7328 23.2817 72.7328H23.4801C23.5825 72.7328 23.6593 72.7969 23.6786 72.9121L23.7426 73.5906C23.909 73.3602 24.5684 72.5664 25.8102 72.5664C26.3415 72.5664 26.7064 72.7136 26.8345 72.7648C26.9817 72.8161 27.0649 72.9313 27.0137 73.0657L26.8793 73.3986C26.8281 73.5138 26.732 73.533 26.6168 73.4818C26.5336 73.4498 26.2007 73.2834 25.759 73.2834C24.4659 73.2834 23.8386 74.3268 23.7874 74.4228V79.1407C23.7874 79.2751 23.7234 79.3583 23.5697 79.3583H23.2369C23.1216 79.3583 23.0576 79.2559 23.0576 79.1407V72.9505H23.064Z" fill="white"/>
<path d="M31.5713 72.5732C33.3061 72.5732 34.5672 73.8471 34.5672 75.6011C34.5672 75.8636 34.5671 76.2477 34.3175 76.2477H29.0427C29.1067 77.6688 30.1374 78.8594 31.6225 78.8594C32.4995 78.8594 33.178 78.5138 33.5749 78.2449C33.7222 78.1425 33.7926 78.1297 33.8758 78.2449L34.0422 78.4754C34.0934 78.5394 34.0742 78.6418 33.9782 78.7378C33.6453 79.0707 32.6019 79.5124 31.5777 79.5124C29.5612 79.5124 28.3194 77.9568 28.3194 76.0236C28.313 74.1416 29.5548 72.5732 31.5713 72.5732ZM33.8374 75.6459C33.8374 74.3528 33.0564 73.2326 31.5713 73.2326C30.1182 73.2326 29.1387 74.2888 29.0555 75.6459H33.8374Z" fill="white"/>
<path d="M43.6202 73.1358L43.3705 72.8733C42.66 72.0987 41.9174 71.2665 41.9494 70.1783C41.9494 69.0389 42.8072 67.6113 44.7788 67.6113C46.552 67.6113 47.461 68.8212 47.461 70.1079C47.461 71.4842 46.0399 72.5724 44.734 73.251L48.1076 76.5925C48.7349 75.5811 49.0998 74.3776 49.0998 73.219C49.0998 73.1358 49.0806 72.9693 49.0806 72.8861C49.0806 72.8029 49.1126 72.7389 49.215 72.7389H49.5607C49.6759 72.7389 49.7271 72.7901 49.7591 72.8861C49.7911 73.0013 49.7911 73.1358 49.7911 73.219C49.7911 74.5249 49.343 75.9332 48.6005 77.0726L50.3225 78.7754C50.4569 78.8906 50.5209 79.0379 50.3865 79.1531L50.124 79.4028C49.9896 79.5372 49.8744 79.454 49.7911 79.3707L48.1396 77.7C47.1986 78.8074 45.8863 79.518 44.3179 79.518C42.3335 79.518 41.1748 78.1097 41.1748 76.4901C41.1684 74.7553 42.4423 73.7631 43.6202 73.1358ZM44.3307 78.8586C45.707 78.8586 46.8465 78.2121 47.6723 77.2199L44.0811 73.5775C43.0056 74.1536 41.8982 75.0498 41.8982 76.4901C41.8982 77.8152 42.9032 78.8586 44.3307 78.8586ZM46.7313 70.1207C46.7313 69.1925 46.0719 68.2515 44.7276 68.2515C43.3065 68.2515 42.6408 69.2629 42.6408 70.1847C42.6215 70.9593 43.1721 71.6762 43.7674 72.2844C43.9338 72.4316 44.0811 72.598 44.2475 72.7645C45.451 72.1563 46.7313 71.3114 46.7313 70.1207Z" fill="white"/>
<path d="M55.8786 73.0021C55.8274 72.8549 55.8274 72.7397 55.9746 72.7397H56.3395C56.4227 72.7397 56.5187 72.7717 56.5572 72.8869L58.1127 78.0977H58.1319L60.1035 72.7205C60.1356 72.6053 60.206 72.5732 60.302 72.5732H60.366C60.4492 72.5732 60.5324 72.6245 60.5644 72.7205L62.5361 78.0977H62.5553L64.1108 72.8869C64.1428 72.7717 64.2453 72.7397 64.3285 72.7397H64.6934C64.8406 72.7397 64.8406 72.8549 64.7894 73.0021L62.8049 79.3716C62.7729 79.4868 62.7089 79.5188 62.6065 79.5188H62.5425C62.4593 79.5188 62.3761 79.4676 62.344 79.3716L60.3404 73.7959H60.3212L58.3367 79.3716C58.3047 79.474 58.2215 79.5188 58.1383 79.5188H58.0743C57.9783 79.5188 57.9079 79.4868 57.8758 79.3716L55.8786 73.0021Z" fill="white"/>
<path d="M69.7949 72.5732C71.5297 72.5732 72.7908 73.8471 72.7908 75.6011C72.7908 75.8636 72.7908 76.2477 72.5411 76.2477H67.2664C67.3304 77.6688 68.361 78.8594 69.8461 78.8594C70.7231 78.8594 71.4017 78.5138 71.7986 78.2449C71.9458 78.1425 72.0162 78.1297 72.0994 78.2449L72.2659 78.4754C72.3171 78.5394 72.2979 78.6418 72.2019 78.7378C71.869 79.0707 70.8255 79.5124 69.8013 79.5124C67.7849 79.5124 66.543 77.9568 66.543 76.0236C66.5366 74.1416 67.7721 72.5732 69.7949 72.5732ZM72.061 75.6459C72.061 74.3528 71.2801 73.2326 69.7949 73.2326C68.3418 73.2326 67.3624 74.2888 67.2792 75.6459H72.061Z" fill="white"/>
<path d="M77.4061 75.089C78.1679 75.089 78.8977 75.3195 79.0769 75.3899C79.0769 73.9367 78.9297 73.207 77.6238 73.207C76.5291 73.207 75.7866 73.6039 75.6394 73.6551C75.5049 73.7063 75.4217 73.6359 75.3897 73.5207L75.3065 73.3222C75.2553 73.175 75.3257 73.1046 75.4089 73.0726C75.4601 73.0405 76.3051 72.5732 77.675 72.5732C79.6915 72.5732 79.7747 73.7831 79.7747 75.4667V79.1411C79.7747 79.2563 79.6723 79.3588 79.557 79.3588H79.3586C79.2434 79.3588 79.1921 79.2947 79.1601 79.1795L79.0961 78.5842C78.6672 78.9811 77.8542 79.5252 76.798 79.5252C75.5753 79.5252 74.6279 78.6802 74.6279 77.3231C74.6279 76.0428 75.665 75.089 77.4061 75.089ZM76.8748 78.8722C77.8863 78.8722 78.7632 78.2577 79.0769 77.848V76.03C78.8593 75.9276 78.1999 75.6843 77.4061 75.6843C76.1515 75.6843 75.3065 76.3309 75.3065 77.3039C75.3065 78.2641 75.9658 78.8722 76.8748 78.8722Z" fill="white"/>
<path d="M82.6353 72.9505C82.6353 72.8353 82.7313 72.7328 82.853 72.7328H83.0514C83.1538 72.7328 83.2306 72.7969 83.2498 72.9121L83.3139 73.5906C83.4803 73.3602 84.1396 72.5664 85.3815 72.5664C85.9128 72.5664 86.2777 72.7136 86.4057 72.7648C86.553 72.8161 86.6362 72.9313 86.585 73.0657L86.4506 73.3986C86.3993 73.5138 86.3033 73.533 86.1881 73.4818C86.1049 73.4498 85.772 73.2834 85.3303 73.2834C84.0372 73.2834 83.4099 74.3268 83.3587 74.4228V79.1407C83.3587 79.2751 83.2947 79.3583 83.141 79.3583H82.8081C82.6929 79.3583 82.6289 79.2559 82.6289 79.1407V72.9505H82.6353Z" fill="white"/>
<path d="M21.8927 66.0631H13.4492V32.3916H21.8479C24.4149 32.3916 26.5913 33.083 28.3005 34.5425C30.0161 36.0276 30.8931 37.9864 30.8931 40.2846V42.7939C30.8931 45.0728 29.8305 46.8908 27.9292 48.2479C28.723 48.8113 29.3888 49.4834 29.9137 50.2772C30.7715 51.5511 31.2068 52.9722 31.2068 54.5789V57.9013C31.2068 60.2826 30.2658 62.2671 28.4734 63.8098C26.713 65.3141 24.5045 66.0631 21.8927 66.0631ZM25.0678 37.5896C24.2548 36.9814 23.1858 36.6678 21.8479 36.6678H17.9814V46.4043H20.8621C22.9489 46.4043 24.306 46.0266 25.0614 45.4825C25.9192 44.836 26.3545 43.959 26.3545 42.7875V40.2782C26.3609 39.1131 25.9256 38.2361 25.0678 37.5896ZM25.2534 51.6727C24.3957 51.0454 23.3138 50.6933 21.8927 50.6933H17.9878V61.7677H21.8927C23.3138 61.7677 24.4021 61.4349 25.2534 60.7883C26.1752 60.097 26.6298 59.1816 26.6298 57.9077V54.5853C26.6298 53.2987 26.1945 52.3577 25.2534 51.6727Z" fill="white"/>
<path d="M42.2939 32.4482H46.8454V66.1005H42.2939V32.4482Z" fill="white"/>
<path d="M58.918 62.5933L69.173 36.7764H58.918V32.4746H74.2494V36.0018L63.9751 61.8251H74.2558V66.1077H58.918V62.5933Z" fill="white"/>
</svg>
