<svg width="49" height="60" viewBox="0 0 49 60" fill="none" xmlns="http://www.w3.org/2000/svg">
<path d="M25.1246 60H10.0869V0H25.0492C29.6259 0 33.4985 1.2286 36.552 3.83307C39.6055 6.47707 41.1682 9.97605 41.1682 14.0678V18.5367C41.1682 22.5925 39.2715 25.8328 35.8838 28.2505C37.2992 29.2564 38.4883 30.4455 39.4187 31.8609C40.9455 34.1312 41.725 36.6639 41.725 39.527V45.4437C41.725 49.6863 40.051 53.2212 36.8502 55.9765C33.7212 58.66 29.7768 60 25.1246 60ZM30.7826 9.26835C29.3313 8.19064 27.4309 7.63022 25.0492 7.63022H18.1626V24.9743H23.2997C27.0214 24.9743 29.4427 24.3061 30.7826 23.3361C32.3094 22.183 33.089 20.6203 33.089 18.5331V14.0714C33.089 11.9842 32.3094 10.4215 30.7826 9.26835ZM31.1167 34.354C29.59 33.2367 27.6537 32.6045 25.1246 32.6045H18.1626V52.3303H25.1246C27.6573 52.3303 29.59 51.7339 31.1167 50.5808C32.7549 49.3522 33.5739 47.714 33.5739 45.4437V39.527C33.5739 37.2602 32.7908 35.5826 31.1167 34.354Z" fill="#FDC114"/>
<path d="M0.0359238 44.0786L0.129326 43.9313C0.158065 43.8846 0.229913 43.8666 0.298168 43.9205C0.39157 43.9959 0.772363 44.2833 1.29326 44.2833C1.82134 44.2833 2.18417 43.9852 2.18417 43.6223C2.18417 43.1948 1.76745 43.0188 1.14238 42.7853C0.481379 42.5518 0 42.2644 0 41.6896C0 41.2801 0.362831 40.7233 1.21782 40.7233C1.70997 40.7233 2.07999 40.8993 2.26679 41.0215C2.32427 41.0574 2.34223 41.1328 2.30272 41.1975L2.24883 41.2981C2.21291 41.3627 2.13747 41.3807 2.07281 41.3448C1.99018 41.2873 1.61657 41.0861 1.21782 41.0861C0.63226 41.0861 0.420309 41.431 0.420309 41.6789C0.420309 42.0489 0.754401 42.2285 1.30404 42.4225C2.00096 42.6811 2.61166 42.9146 2.61166 43.5936C2.61166 44.1504 2.03688 44.6246 1.29326 44.6246C0.660999 44.6246 0.280206 44.366 0.0754401 44.2079C0.0359238 44.1792 0.0107772 44.1253 0.0359238 44.0786Z" fill="#231F20"/>
<path d="M3.91929 38.1547C3.91929 38.0901 3.97318 38.0326 4.04862 38.0326H4.19591C4.26057 38.0326 4.31805 38.0901 4.31805 38.1547V41.3196C4.44019 41.1975 4.93235 40.7269 5.66519 40.7269C6.63154 40.7269 7.15962 41.3196 7.15962 42.4261V44.4127C7.15962 44.4773 7.10574 44.5348 7.03748 44.5348H6.86864C6.80398 44.5348 6.7465 44.4773 6.7465 44.4127V42.4261C6.7465 41.5711 6.34775 41.1256 5.64005 41.1256C4.86768 41.1256 4.35038 41.7291 4.31086 41.7758V44.4127C4.31086 44.4881 4.27494 44.5348 4.18872 44.5348H4.0127C3.94803 44.5348 3.91211 44.4773 3.91211 44.4127V38.1547H3.91929Z" fill="#231F20"/>
<path d="M10.0083 42.1386C10.4358 42.1386 10.8453 42.268 10.9459 42.3075C10.9459 41.492 10.8633 41.0825 10.1305 41.0825C9.51616 41.0825 9.09944 41.3052 9.01682 41.334C8.94138 41.3627 8.89467 41.3232 8.87671 41.2585L8.83001 41.1471C8.80127 41.0645 8.84079 41.025 8.88749 41.007C8.91623 40.9891 9.39042 40.7268 10.1592 40.7268C11.2908 40.7268 11.3375 41.4058 11.3375 42.3506V44.4126C11.3375 44.4773 11.28 44.5348 11.2154 44.5348H11.104C11.0393 44.5348 11.0106 44.4988 10.9926 44.4342L10.9567 44.1001C10.716 44.3228 10.2598 44.6282 9.66704 44.6282C8.98089 44.6282 8.44922 44.154 8.44922 43.3924C8.44922 42.6739 9.03478 42.1386 10.0083 42.1386ZM9.71374 44.2617C10.2813 44.2617 10.7735 43.9169 10.9495 43.687V42.6667C10.8274 42.6092 10.4574 42.4727 10.0119 42.4727C9.3078 42.4727 8.8336 42.8356 8.8336 43.3816C8.83001 43.9205 9.20362 44.2617 9.71374 44.2617Z" fill="#231F20"/>
<path d="M12.943 40.9388C12.943 40.8742 12.9969 40.8167 13.0652 40.8167H13.1765C13.234 40.8167 13.2771 40.8526 13.2879 40.9173L13.3238 41.2981C13.4172 41.1687 13.7873 40.7233 14.4842 40.7233C14.7823 40.7233 14.9871 40.8059 15.059 40.8346C15.1416 40.8634 15.1883 40.928 15.1595 41.0035L15.0841 41.1903C15.0554 41.255 15.0015 41.2657 14.9368 41.237C14.8901 41.219 14.7033 41.1256 14.4554 41.1256C13.7298 41.1256 13.3777 41.7112 13.349 41.7651V44.4127C13.349 44.4881 13.3131 44.5348 13.2268 44.5348H13.04C12.9754 44.5348 12.9395 44.4773 12.9395 44.4127V40.9388H12.943Z" fill="#231F20"/>
<path d="M17.7175 40.7268C18.6911 40.7268 19.3988 41.4417 19.3988 42.426C19.3988 42.5733 19.3988 42.7889 19.2587 42.7889H16.2985C16.3345 43.5864 16.9128 44.2546 17.7463 44.2546C18.2384 44.2546 18.6192 44.0606 18.8419 43.9097C18.9246 43.8522 18.9641 43.845 19.0108 43.9097L19.1042 44.039C19.1329 44.0749 19.1221 44.1324 19.0683 44.1863C18.8815 44.3731 18.2959 44.621 17.7211 44.621C16.5895 44.621 15.8926 43.748 15.8926 42.6631C15.889 41.607 16.5859 40.7268 17.7175 40.7268ZM18.9892 42.4512C18.9892 41.7255 18.551 41.0969 17.7175 41.0969C16.9021 41.0969 16.3524 41.6896 16.3057 42.4512H18.9892Z" fill="#231F20"/>
<path d="M24.4787 41.043L24.3386 40.8957C23.9399 40.461 23.5232 39.994 23.5411 39.3833C23.5411 38.7439 24.0225 37.9428 25.129 37.9428C26.1241 37.9428 26.6342 38.6217 26.6342 39.3438C26.6342 40.1162 25.8367 40.7269 25.1038 41.1077L26.997 42.9829C27.3491 42.4153 27.5538 41.7399 27.5538 41.0897C27.5538 41.043 27.5431 40.9496 27.5431 40.9029C27.5431 40.8562 27.561 40.8203 27.6185 40.8203H27.8125C27.8771 40.8203 27.9059 40.849 27.9238 40.9029C27.9418 40.9676 27.9418 41.043 27.9418 41.0897C27.9418 41.8226 27.6903 42.6129 27.2736 43.2523L28.24 44.2079C28.3154 44.2726 28.3513 44.3552 28.2759 44.4198L28.1286 44.56C28.0532 44.6354 27.9885 44.5887 27.9418 44.542L27.015 43.6044C26.4869 44.2259 25.7505 44.6246 24.8703 44.6246C23.7567 44.6246 23.1065 43.8343 23.1065 42.9254C23.1029 41.9519 23.8178 41.3951 24.4787 41.043ZM24.8775 44.2546C25.6499 44.2546 26.2893 43.8918 26.7527 43.3349L24.7374 41.2909C24.1339 41.6142 23.5124 42.1171 23.5124 42.9254C23.5124 43.669 24.0764 44.2546 24.8775 44.2546ZM26.2246 39.351C26.2246 38.8301 25.8546 38.302 25.1002 38.302C24.3027 38.302 23.9291 38.8696 23.9291 39.3869C23.9183 39.8216 24.2273 40.2239 24.5614 40.5652C24.6548 40.6478 24.7374 40.7412 24.8308 40.8346C25.5062 40.4934 26.2246 40.0192 26.2246 39.351Z" fill="#231F20"/>
<path d="M31.3582 40.9675C31.3294 40.8849 31.3294 40.8202 31.4121 40.8202H31.6168C31.6635 40.8202 31.7174 40.8382 31.739 40.9029L32.6119 43.8271H32.6227L33.7292 40.8095C33.7471 40.7448 33.7866 40.7268 33.8405 40.7268H33.8764C33.9232 40.7268 33.9699 40.7556 33.9878 40.8095L35.0943 43.8271H35.105L35.978 40.9029C35.996 40.8382 36.0534 40.8202 36.1001 40.8202H36.3049C36.3875 40.8202 36.3875 40.8849 36.3588 40.9675L35.2451 44.542C35.2272 44.6066 35.1913 44.6246 35.1338 44.6246H35.0979C35.0512 44.6246 35.0045 44.5958 34.9865 44.542L33.8621 41.413H33.8513L32.7377 44.542C32.7197 44.5994 32.673 44.6246 32.6263 44.6246H32.5904C32.5365 44.6246 32.497 44.6066 32.479 44.542L31.3582 40.9675Z" fill="#231F20"/>
<path d="M39.1677 40.7268C40.1413 40.7268 40.849 41.4417 40.849 42.426C40.849 42.5733 40.849 42.7889 40.7089 42.7889H37.7487C37.7847 43.5864 38.363 44.2546 39.1965 44.2546C39.6886 44.2546 40.0694 44.0606 40.2921 43.9097C40.3748 43.8522 40.4143 43.845 40.461 43.9097L40.5544 44.039C40.5831 44.0749 40.5723 44.1324 40.5185 44.1863C40.3317 44.3731 39.7461 44.621 39.1713 44.621C38.0397 44.621 37.3428 43.748 37.3428 42.6631C37.3392 41.607 38.0325 40.7268 39.1677 40.7268ZM40.4394 42.4512C40.4394 41.7255 40.0012 41.0969 39.1677 41.0969C38.3522 41.0969 37.8026 41.6896 37.7559 42.4512H40.4394Z" fill="#231F20"/>
<path d="M43.439 42.1386C43.8665 42.1386 44.276 42.268 44.3766 42.3075C44.3766 41.492 44.294 41.0825 43.5611 41.0825C42.9468 41.0825 42.5301 41.3052 42.4475 41.334C42.372 41.3627 42.3253 41.3232 42.3074 41.2585L42.2607 41.1471C42.2319 41.0645 42.2715 41.025 42.3182 41.007C42.3469 40.9891 42.8211 40.7268 43.5899 40.7268C44.7215 40.7268 44.7682 41.4058 44.7682 42.3506V44.4126C44.7682 44.4773 44.7107 44.5348 44.646 44.5348H44.5347C44.47 44.5348 44.4413 44.4988 44.4233 44.4342L44.3874 44.1001C44.1467 44.3228 43.6904 44.6282 43.0977 44.6282C42.4116 44.6282 41.8799 44.154 41.8799 43.3924C41.8799 42.6739 42.4618 42.1386 43.439 42.1386ZM43.1408 44.2617C43.7084 44.2617 44.2006 43.9169 44.3766 43.687V42.6667C44.2544 42.6092 43.8844 42.4727 43.439 42.4727C42.7349 42.4727 42.2607 42.8356 42.2607 43.3816C42.2607 43.9205 42.6307 44.2617 43.1408 44.2617Z" fill="#231F20"/>
<path d="M46.3737 40.9388C46.3737 40.8742 46.4276 40.8167 46.4959 40.8167H46.6072C46.6647 40.8167 46.7078 40.8526 46.7186 40.9173L46.7545 41.2981C46.8479 41.1687 47.2179 40.7233 47.9148 40.7233C48.213 40.7233 48.4178 40.8059 48.4896 40.8346C48.5722 40.8634 48.6189 40.928 48.5902 41.0035L48.5148 41.1903C48.486 41.255 48.4321 41.2657 48.3675 41.237C48.3208 41.219 48.134 41.1256 47.8861 41.1256C47.1604 41.1256 46.8084 41.7112 46.7796 41.7651V44.4127C46.7796 44.4881 46.7437 44.5348 46.6575 44.5348H46.4707C46.406 44.5348 46.3701 44.4773 46.3701 44.4127V40.9388H46.3737Z" fill="#231F20"/>
<path d="M12.2862 37.0735H7.54785V18.1775H12.2611C13.7016 18.1775 14.923 18.5655 15.8822 19.3845C16.8449 20.218 17.3371 21.3173 17.3371 22.6069V24.0151C17.3371 25.294 16.7408 26.3143 15.6738 27.0758C16.1193 27.392 16.4929 27.7692 16.7875 28.2146C17.2688 28.9295 17.5131 29.727 17.5131 30.6287V32.4932C17.5131 33.8295 16.985 34.9432 15.9792 35.8089C14.9913 36.6531 13.7519 37.0735 12.2862 37.0735ZM14.068 21.0945C13.6118 20.7532 13.0119 20.5772 12.2611 20.5772H10.0913V26.0412H11.7078C12.8789 26.0412 13.6405 25.8293 14.0644 25.5239C14.5458 25.1611 14.7901 24.6689 14.7901 24.0115V22.6033C14.7937 21.9495 14.5494 21.4574 14.068 21.0945ZM14.1722 28.9978C13.6908 28.6457 13.0837 28.4481 12.2862 28.4481H10.0949V34.663H12.2862C13.0837 34.663 13.6944 34.4762 14.1722 34.1133C14.6895 33.7254 14.9446 33.2116 14.9446 32.4968V30.6323C14.9446 29.9102 14.7003 29.3822 14.1722 28.9978Z" fill="#1B1C1C"/>
<path d="M23.7354 18.2097H26.2895V37.0948H23.7354V18.2097Z" fill="#1B1C1C"/>
<path d="M33.0645 35.1264L38.8194 20.6383H33.0645V18.2242H41.6682V20.2036L35.9024 34.6953H41.6718V37.0986H33.0645V35.1264Z" fill="#1B1C1C"/>
</svg>
