<svg width="17" height="17" viewBox="0 0 17 17" fill="none" xmlns="http://www.w3.org/2000/svg">
<path d="M15.9969 12.5481C15.9357 12.2427 15.7517 11.9929 15.45 11.8059L15.4429 11.8018L12.5287 10.0803C12.5028 10.0646 12.4751 10.052 12.4462 10.043C12.2797 9.96823 12.0985 9.93186 11.916 9.93658C11.59 9.93314 11.2747 10.0532 11.0335 10.2726C11.0272 10.2781 11.0213 10.2838 11.0155 10.2898L10.202 11.1174L10.1098 11.0991C10.0583 11.0887 9.93138 11.051 9.66183 10.9125C9.44455 10.8005 9.16418 10.6213 8.82855 10.3767C8.49292 10.1322 8.10353 9.78314 7.66748 9.33776L7.6615 9.33178C7.21612 8.89647 6.86929 8.51045 6.63073 8.1793C6.43378 7.9162 6.25754 7.63823 6.10358 7.34788L6.10134 7.34303C6.00798 7.17018 5.93447 6.98733 5.88219 6.79796L6.57771 6.10281C6.76083 5.91911 6.88542 5.68526 6.93574 5.43081C6.9968 5.16462 6.95689 4.88525 6.82374 4.64681L5.21019 1.58546C5.20546 1.5765 5.20036 1.56767 5.19488 1.55896C5.10216 1.41502 4.9843 1.28895 4.84694 1.18674C4.6824 1.0631 4.48153 0.997457 4.27573 1.00008C4.13612 1.00088 3.99809 1.02971 3.86983 1.08486C3.74157 1.14002 3.62569 1.22036 3.52906 1.32114L1.5265 3.32147C1.38612 3.45305 1.27208 3.61016 1.1905 3.7844C1.10686 3.95452 1.04983 4.13646 1.02138 4.32387C1.01887 4.34043 1.01763 4.35715 1.01764 4.3739C1.01764 4.38622 1.01503 4.43998 1.00308 4.65838C0.991509 4.86819 1.01242 5.13886 1.06767 5.48494C1.13741 5.88795 1.23725 6.28517 1.36634 6.67327C1.54283 7.1986 1.76325 7.70814 2.02527 8.19647C2.31461 8.74901 2.70026 9.3568 3.17178 10.003C3.6433 10.6493 4.2496 11.3366 4.96304 12.0407C5.86315 12.9505 6.7263 13.6778 7.52897 14.2027C8.33164 14.7276 9.05964 15.1263 9.69655 15.3899C10.3503 15.6609 10.8912 15.8271 11.3538 15.8976C11.8048 15.9663 12.127 15.9999 12.339 15.9999C12.4167 16.0006 12.4943 15.9974 12.5716 15.9902L12.6354 15.9846C12.6499 15.9842 12.6644 15.983 12.6787 15.9809C12.8662 15.9526 13.0482 15.8956 13.2182 15.8117C13.3924 15.7302 13.5494 15.6161 13.6808 15.4757L15.6833 13.4881C15.8052 13.3716 15.8975 13.2277 15.9528 13.0684C16.008 12.9091 16.0246 12.7389 16.0011 12.572C15.9999 12.5652 15.9984 12.5566 15.9969 12.5481ZM15.1562 12.9587L13.148 14.952L13.1338 14.9669C13.0654 15.0387 12.9838 15.0966 12.8934 15.1375C12.7972 15.1854 12.6946 15.2191 12.5888 15.2376C12.569 15.2376 12.5406 15.2413 12.4962 15.2454C12.4712 15.248 12.4234 15.251 12.3386 15.251C12.221 15.251 11.9739 15.2346 11.4662 15.1573C11.0704 15.0968 10.5702 14.9423 9.98215 14.6981C9.39415 14.4539 8.70049 14.0765 7.9374 13.5766C7.1743 13.0767 6.35558 12.386 5.49206 11.5128L5.4887 11.5094C4.80176 10.8322 4.22571 10.177 3.77658 9.56176C3.32746 8.9465 2.96048 8.3697 2.68831 7.84927C2.44632 7.39935 2.24251 6.92992 2.07903 6.44591C1.96116 6.09432 1.86968 5.73442 1.80538 5.36921C1.75946 5.07988 1.74042 4.85513 1.749 4.70094C1.75871 4.52398 1.76244 4.44894 1.76394 4.41198C1.78267 4.30737 1.8161 4.20594 1.86325 4.1107C1.90395 4.02022 1.96176 3.93845 2.03349 3.8699L2.04805 3.85608L4.05621 1.84754C4.14693 1.75682 4.22085 1.74525 4.27536 1.74525C4.31952 1.74298 4.36309 1.75619 4.39856 1.78258C4.46078 1.82944 4.51435 1.8868 4.55685 1.95208L6.16481 5.00222L6.16966 5.01118C6.21657 5.09266 6.22996 5.18919 6.20699 5.28036C6.18595 5.39234 6.13186 5.49545 6.05169 5.57641L5.31062 6.31711C5.24496 6.38605 5.19637 6.46941 5.16875 6.56052C5.1424 6.63478 5.12828 6.71283 5.12694 6.79161C5.12698 6.81504 5.12923 6.83842 5.13366 6.86143C5.18107 7.11007 5.28112 7.37962 5.43942 7.68612C5.57008 7.94746 5.76272 8.2521 6.02854 8.61946C6.29435 8.98682 6.66507 9.40085 7.13884 9.86453C7.60252 10.3383 8.02364 10.7142 8.391 10.9819C8.75836 11.2496 9.0686 11.4486 9.32434 11.5793C9.59799 11.7185 9.80108 11.7988 9.96423 11.8316L10.1528 11.869C10.1774 11.8738 10.2024 11.8762 10.2274 11.8761C10.3005 11.8743 10.3728 11.8604 10.4414 11.835C10.5348 11.8071 10.6201 11.757 10.69 11.689L11.5412 10.8233C11.6448 10.7305 11.7796 10.6805 11.9186 10.6833C12.0571 10.6833 12.1154 10.7094 12.1341 10.7206C12.1567 10.7342 12.1807 10.7453 12.2057 10.7538L15.0625 12.4413C15.2118 12.5342 15.2492 12.6209 15.2648 12.6817C15.271 12.7335 15.2643 12.7861 15.2453 12.8347C15.2264 12.8833 15.1958 12.9266 15.1562 12.9606V12.9587Z" fill="white" stroke="white" stroke-width="0.8"/>
</svg>
