<svg width="26" height="25" viewBox="0 0 26 25" fill="none" xmlns="http://www.w3.org/2000/svg">
<path d="M18.2111 19.4706L18.1493 19.4085L18.0796 19.4618C16.2725 20.8429 14.0069 21.677 11.5696 21.677C5.63329 21.677 0.814844 16.844 0.814844 10.8885C0.814844 4.93298 5.63329 0.1 11.5696 0.1C17.5059 0.1 22.3243 4.93298 22.3243 10.8885C22.3243 13.3336 21.4927 15.6064 20.1159 17.4192L20.0633 17.4884L20.1245 17.5501L25.1032 22.5733L25.1034 22.5735C25.6434 23.1152 25.6434 23.9522 25.1034 24.4939L25.1033 24.4938L25.0998 24.4977C24.8612 24.7636 24.4847 24.9 24.1611 24.9C23.8407 24.9 23.4897 24.7656 23.2188 24.4939L18.2111 19.4706ZM19.6297 10.8885C19.6297 6.41986 15.9957 2.8036 11.5696 2.8036C7.11404 2.8036 3.50944 6.44937 3.50944 10.8885C3.50944 15.3279 7.14322 18.9734 11.5696 18.9734C15.9957 18.9734 19.6297 15.3571 19.6297 10.8885Z" fill="#333333" stroke="#333333" stroke-width="0.2"/>
</svg>
