<svg width="27" height="8" viewBox="0 0 27 8" fill="none" xmlns="http://www.w3.org/2000/svg">
<path d="M1.61195 1.61203V1.76929C1.54807 2.18211 1.50384 2.61458 1.47926 3.05689V3.21415L1.32691 3.26821C1.21806 3.31414 1.10104 3.33754 0.982899 3.33701C0.722218 3.33701 0.472214 3.23346 0.287884 3.04913C0.103555 2.8648 0 2.6148 0 2.35411C0 2.09343 0.103555 1.84343 0.287884 1.6591C0.472214 1.47477 0.722218 1.37122 0.982899 1.37122C1.16813 1.37192 1.34915 1.42657 1.50383 1.52848L1.61195 1.61203Z" fill="black"/>
<path d="M26.9998 2.3492C26.9998 2.60988 26.8963 2.85988 26.712 3.04421C26.5276 3.22854 26.2776 3.3321 26.0169 3.3321C25.8988 3.33263 25.7818 3.30922 25.6729 3.2633L25.5206 3.20924V3.05197C25.5206 2.60967 25.4518 2.17719 25.3879 1.76437L25.3584 1.61203L25.496 1.52848C25.6507 1.42657 25.8317 1.37192 26.0169 1.37122C26.2768 1.37121 26.526 1.47409 26.7102 1.65736C26.8944 1.84063 26.9985 2.08937 26.9998 2.3492Z" fill="black"/>
<path d="M24.7894 6.47723C24.7202 6.70871 24.5903 6.91742 24.4131 7.08164C24.2359 7.24587 24.018 7.35959 23.7819 7.41098C22.5218 7.56965 21.2531 7.65008 19.983 7.65179C19.0787 7.65179 18.1646 7.60756 17.2702 7.52893C17.0661 7.49 16.8756 7.39894 16.7172 7.2646C16.5587 7.13026 16.4377 6.95721 16.3659 6.76227C15.9798 5.68224 15.6743 4.57509 15.4518 3.4499C15.4373 3.35389 15.4177 3.25874 15.3929 3.16486C15.2803 2.55152 15.2146 1.9305 15.1963 1.30718C15.2329 1.0453 15.3507 0.801517 15.5333 0.610187C15.7158 0.418857 15.9537 0.289634 16.2136 0.240734C18.7311 -0.0802448 21.2792 -0.0802448 23.7967 0.240734C24.0287 0.293219 24.2424 0.407132 24.4153 0.570543C24.5882 0.733955 24.714 0.940853 24.7796 1.16957C24.7796 1.25804 24.814 1.35141 24.8287 1.43987V1.54799C25.118 3.17958 25.1047 4.85046 24.7894 6.47723Z" fill="black"/>
<path d="M11.7997 1.30718C11.7812 1.93723 11.7138 2.56489 11.5982 3.18452C11.5736 3.2765 11.5555 3.37011 11.5441 3.46464C11.3125 4.58486 11.0004 5.68692 10.6104 6.76227C10.5375 6.95457 10.4158 7.12458 10.2572 7.25556C10.0986 7.38655 9.90871 7.47398 9.7061 7.50927C8.81167 7.5879 7.89757 7.63213 6.9933 7.63213C5.72487 7.63057 4.45777 7.55014 3.19932 7.39132C2.96273 7.34568 2.74305 7.23647 2.56383 7.07544C2.3846 6.9144 2.25261 6.7076 2.18202 6.47723C1.85744 4.85719 1.83412 3.19122 2.11321 1.56273V1.45953L2.18202 1.17449C2.25022 0.942506 2.37984 0.733266 2.55719 0.568898C2.73453 0.404531 2.953 0.291145 3.18949 0.240734C5.70698 -0.0802448 8.25505 -0.0802448 10.7725 0.240734C11.0342 0.287775 11.2743 0.416182 11.4588 0.607664C11.6432 0.799147 11.7625 1.04394 11.7997 1.30718Z" fill="black"/>
<path d="M15.8194 4.1921C15.6891 4.1921 15.5641 4.14032 15.4719 4.04816C15.3797 3.95599 15.3279 3.83099 15.3279 3.70065C15.3279 3.21187 15.1338 2.74312 14.7882 2.3975C14.4425 2.05188 13.9738 1.85772 13.485 1.85772C12.9962 1.85772 12.5275 2.05188 12.1819 2.3975C11.8362 2.74312 11.6421 3.21187 11.6421 3.70065C11.6421 3.83099 11.5903 3.95599 11.4981 4.04816C11.406 4.14032 11.281 4.1921 11.1506 4.1921C11.0203 4.1921 10.8953 4.14032 10.8031 4.04816C10.711 3.95599 10.6592 3.83099 10.6592 3.70065C10.6592 2.95119 10.9569 2.23243 11.4868 1.70248C12.0168 1.17254 12.7356 0.874817 13.485 0.874817C14.2345 0.874817 14.9532 1.17254 15.4832 1.70248C16.0131 2.23243 16.3108 2.95119 16.3108 3.70065C16.3108 3.83099 16.2591 3.95599 16.1669 4.04816C16.0747 4.14032 15.9497 4.1921 15.8194 4.1921Z" fill="black"/>
</svg>
