<svg width="20" height="29" viewBox="0 0 20 29" fill="none" xmlns="http://www.w3.org/2000/svg">
<path d="M12.2909 0.773469C12.2909 0.773469 12.2909 0.773469 12.2909 1.42026C12.2909 1.87302 12.0321 3.32831 11.8381 4.23382H7.76331C7.56927 3.32831 7.31055 1.87302 7.31055 1.42026C7.31055 0.773469 7.31055 0.773469 7.31055 0.773469C7.31055 0.773469 7.92501 -0.77884 9.80071 0.51475C11.6764 -0.77884 12.2909 0.773469 12.2909 0.773469Z" fill="black"/>
<path d="M19.7666 25.6929L13.9131 9.426L18.667 26.9541C18.667 26.9541 18.6671 27.1805 18.6024 27.2129C18.2143 27.3422 17.0824 27.6656 16.2092 27.7626C15.3361 27.8597 13.8484 27.6656 13.428 27.6009C13.3633 27.6009 13.2987 27.4069 13.2987 27.4069L11.714 9.39366V28.086C11.714 28.086 11.617 28.2801 11.5846 28.3124C10.9702 28.5064 10.0647 28.6035 10.0323 28.5711C10 28.5711 10 28.5711 9.96766 28.5711C9.5149 28.5711 9.0298 28.4741 8.48003 28.3124C8.44769 28.3124 8.35067 28.1184 8.35067 28.1184V9.39366L6.76603 27.4069C6.76603 27.4069 6.70134 27.5686 6.57199 27.5686C6.08689 27.6333 4.66394 27.795 3.82311 27.698C2.94994 27.6009 1.7857 27.2452 1.39763 27.1482C1.33295 27.1158 1.33295 26.8895 1.33295 26.8895L6.08689 9.36133L0.233395 25.6282C0.00701727 25.6282 -0.09 25.4342 0.104038 24.8197C0.653814 23.2998 3.88779 9.29665 7.6392 5.6746L7.70388 5.57758H12.2961L12.3608 5.6746C16.1122 9.29665 19.3462 23.2998 19.896 24.8197C20.09 25.4989 19.993 25.6929 19.7666 25.6929Z" fill="black"/>
</svg>
