<svg width="27" height="34" viewBox="0 0 27 34" fill="none" xmlns="http://www.w3.org/2000/svg">
<path d="M11.0122 5.03147L13.1244 10.0304L15.2366 5.03147C15.2637 4.96648 15.307 4.90688 15.3612 4.85815C16.4986 3.85617 17.1431 2.1339 17.1756 0C14.473 0.926144 11.7758 0.926144 9.07324 0C9.10574 2.1339 9.75024 3.85618 10.8876 4.85815C10.9418 4.90688 10.9851 4.96648 11.0122 5.03147Z" fill="black"/>
<path d="M26.1835 18.4908C26.0567 18.2646 25.7787 18.1864 25.5503 18.2944C23.9725 14.6746 24.2315 5.50818 22.543 2.45841C22.3751 2.16054 22.1152 1.92763 21.8065 1.78684L18.1344 0.0537164C18.0965 2.39343 17.3708 4.32151 16.0872 5.50762L13.6066 11.3731V33.0201C13.2835 33.0258 12.9604 33.0258 12.6372 33.0201V11.3731L10.1621 5.50761C8.8785 4.32151 8.15274 2.39342 8.10944 0.0537109L4.43196 1.78141C4.12324 1.92762 3.86329 2.16053 3.69539 2.46383C2.01751 5.51313 2.26662 14.6723 0.688899 18.2928C0.461374 18.1883 0.185814 18.2663 0.0608562 18.4908C-0.0687591 18.7255 0.0154373 19.0197 0.249148 19.1503L4.25977 21.3784C4.33454 21.4191 4.41493 21.439 4.49536 21.439C4.66471 21.439 4.83029 21.3491 4.91924 21.1901C5.04886 20.9555 4.96463 20.6613 4.73095 20.5307L4.67231 20.4981C5.61726 18.1218 6.19803 15.2491 6.5442 12.0826C6.87827 17.666 5.97559 24.241 4.14882 31.5633C3.90688 31.5034 3.65658 31.6361 3.57668 31.8766C3.49245 32.1311 3.6306 32.4046 3.8851 32.4879C6.94868 33.4964 10.034 33.9998 13.1212 33.9998C16.2075 33.9998 19.2956 33.4964 22.363 32.4879C22.6166 32.4046 22.7556 32.1311 22.6714 31.8766C22.5925 31.6363 22.3411 31.5038 22.1 31.5632C20.2625 24.224 19.3493 17.6173 19.6834 12.023C20.0298 15.2229 20.6114 18.1046 21.5669 20.5009L21.5134 20.5307C21.2797 20.6613 21.1954 20.9555 21.3251 21.1901C21.414 21.3491 21.5796 21.439 21.7489 21.439C21.8294 21.439 21.9098 21.4191 21.9845 21.3784L25.9952 19.1503C26.2289 19.0197 26.3131 18.7255 26.1835 18.4908Z" fill="black"/>
</svg>
