<svg width="19" height="23" viewBox="0 0 19 23" fill="none" xmlns="http://www.w3.org/2000/svg">
<path d="M18.5925 21.1488C15.6888 22.2284 12.6083 22.7878 9.49991 22.8C6.39153 22.7879 3.31106 22.2285 0.407398 21.1489C0.259678 21.0948 0.138264 20.9886 0.067252 20.8514C-0.00375966 20.7143 -0.0191773 20.5561 0.0240588 20.4084C0.304525 19.4529 0.645761 18.5218 1.0066 17.5365C1.64282 15.916 2.15024 14.2504 2.52438 12.5543H5.70044C5.92181 12.9063 6.23771 13.1928 6.61408 13.383C6.99046 13.5732 7.41305 13.6598 7.83627 13.6335C7.98075 13.6328 8.12501 13.6224 8.268 13.6022L7.79442 14.9868C7.76834 15.063 7.75795 15.1435 7.76385 15.2237C7.76976 15.3038 7.79184 15.382 7.82884 15.4539C7.86584 15.5257 7.91702 15.5898 7.97947 15.6424C8.04192 15.6949 8.1144 15.735 8.19278 15.7603C8.25666 15.7813 8.32363 15.792 8.39105 15.792C8.52303 15.7919 8.65162 15.7514 8.75866 15.6763C8.8657 15.6011 8.94577 15.4952 8.98755 15.3734L9.49972 13.8751L10.013 15.3734C10.0374 15.4515 10.0777 15.5241 10.1315 15.5868C10.1852 15.6496 10.2513 15.7012 10.3259 15.7387C10.4005 15.7762 10.482 15.7988 10.5657 15.8051C10.6494 15.8114 10.7335 15.8013 10.8131 15.7754C10.8928 15.7496 10.9663 15.7085 11.0293 15.6545C11.0923 15.6006 11.1436 15.5349 11.1801 15.4614C11.2166 15.3878 11.2376 15.3079 11.2419 15.2263C11.2461 15.1447 11.2335 15.0632 11.2048 14.9864L10.7308 13.6018C10.8742 13.6221 11.0188 13.6325 11.1637 13.6332C11.587 13.6595 12.0096 13.5729 12.3859 13.3827C12.7623 13.1925 13.0782 12.906 13.2996 12.554H16.4754C16.8496 14.25 17.3571 15.9156 17.9933 17.5361C18.3542 18.5214 18.6954 19.4525 18.9759 20.408C19.0192 20.5557 19.0038 20.714 18.9328 20.8512C18.8617 20.9884 18.7403 21.0947 18.5925 21.1488ZM2.72195 11.3313H5.70032C5.92168 10.9793 6.23758 10.6927 6.61397 10.5026C6.99035 10.3124 7.41293 10.2258 7.83615 10.2522C8.43519 10.2396 9.02118 10.4234 9.49991 10.774C9.97863 10.4234 10.5646 10.2396 11.1637 10.2522C11.5869 10.2258 12.0095 10.3124 12.3859 10.5026C12.7623 10.6927 13.0782 10.9793 13.2996 11.3313H16.2779C16.1395 10.2773 16.1078 9.21272 16.1831 8.15274C16.2208 7.73283 16.1047 7.31347 15.8554 6.96878C15.1349 6.00734 14.6949 4.19485 14.5819 1.72723C14.5641 1.30413 14.3936 0.900677 14.1005 0.587738C13.8073 0.274799 13.4102 0.0723943 12.9789 0.0160804C12.5476 -0.0402335 12.1098 0.0531456 11.7422 0.279813C11.3746 0.506481 11.1009 0.851939 10.9691 1.2555C10.5721 2.49671 10.0228 3.23757 9.49991 3.23757C8.98259 3.23757 8.44679 2.50374 8.06816 1.27427C7.93469 0.868413 7.66007 0.520489 7.29152 0.290334C6.92297 0.060179 6.48353 -0.0378239 6.04876 0.013179C5.61399 0.0641819 5.21108 0.261003 4.90929 0.569796C4.60751 0.878588 4.42573 1.28005 4.3952 1.70515C4.24545 4.31996 3.83672 6.04195 3.14325 6.96939C2.89455 7.3141 2.77883 7.73316 2.81647 8.15274C2.89187 9.21271 2.86022 10.2773 2.72195 11.3313ZM7.83615 11.4752C7.19427 11.4752 6.80151 11.778 6.80151 11.9428C6.80151 12.1076 7.19427 12.4104 7.83615 12.4104C8.47802 12.4104 8.87148 12.1076 8.87148 11.9428C8.87148 11.7779 8.47871 11.4752 7.83615 11.4752ZM12.1983 11.9428C12.1983 11.7777 11.8055 11.4752 11.1637 11.4752C10.5218 11.4752 10.1283 11.778 10.1283 11.9428C10.1329 11.9823 10.1491 12.0197 10.175 12.0504L10.1858 12.0658C10.3149 12.1867 10.4687 12.2798 10.6371 12.3392C10.8056 12.3986 10.985 12.4228 11.1637 12.4104C11.8055 12.4104 12.1983 12.1076 12.1983 11.9428Z" fill="black"/>
</svg>
