<svg width="34" height="34" viewBox="0 0 34 34" fill="none" xmlns="http://www.w3.org/2000/svg">
<path d="M12.6045 0.380818C12.5787 0.169848 12.7879 -0.0264386 13.0076 0.00292712C13.2047 0.0160644 13.3549 0.20076 13.3436 0.383909C13.346 1.3553 13.3372 2.32591 13.3485 3.2973C13.8259 3.76792 14.2984 4.24319 14.775 4.71536C14.8469 4.77409 14.9075 4.88382 15.0206 4.86064C16.2031 4.85909 17.3865 4.86219 18.5699 4.85909C19.1677 4.29419 19.7913 3.75401 20.3777 3.17906C20.364 2.24709 20.3753 1.31589 20.3712 0.383909C20.3446 0.179122 20.5393 -0.0163924 20.7557 0.00292712C20.9617 0.00138156 21.1306 0.193805 21.1104 0.387C21.1112 1.39316 21.1087 2.4001 21.1104 3.40626C21.0982 3.52218 21.175 3.61569 21.2307 3.71151C21.9561 4.89851 22.713 6.07236 23.5563 7.18672C23.4481 7.4711 23.3035 7.74157 23.2138 8.03214C23.0329 8.57077 22.7631 9.07849 22.6015 9.62407C22.4408 10.0545 22.2501 10.4741 22.0942 10.9061C21.9343 11.3312 21.818 11.7724 21.6168 12.182C21.3672 12.6789 21.2339 13.2198 20.9763 13.7136C20.9787 13.726 20.9843 13.75 20.9868 13.7623C22.8438 14.6402 24.4578 15.9223 25.8932 17.3388C28.2293 19.6563 30.1453 22.3294 31.8384 25.1037C32.6147 26.3911 33.3522 27.7026 34 29.0542C32.7294 29.8625 31.3715 30.5371 29.9902 31.1538C26.4724 32.6909 22.6831 33.7163 18.8139 33.9497C14.7855 34.2001 10.7418 33.4984 6.94847 32.2187C4.5308 31.3895 2.17857 30.3602 0 29.0542C1.25205 26.4862 2.7432 24.0264 4.42014 21.6918C5.8709 19.6958 7.48725 17.7939 9.38148 16.1649C10.4728 15.2291 11.6748 14.403 12.9874 13.7731C12.0778 11.6024 11.3508 9.36519 10.4332 7.19753C11.1796 6.12182 11.8662 5.00901 12.5358 3.88848C12.5851 3.80888 12.6077 3.7231 12.6045 3.63114C12.6037 2.5477 12.6029 1.46426 12.6045 0.380818ZM15.6547 5.55769C15.9503 5.92013 16.3098 6.23387 16.6434 6.56463H16.7056C17.0739 6.23774 17.4358 5.90158 17.792 5.56155C17.0796 5.54842 16.3671 5.55692 15.6547 5.55769Z" fill="black"/>
</svg>
