<svg width="25" height="16" viewBox="0 0 25 16" fill="none" xmlns="http://www.w3.org/2000/svg">
<path d="M5.60046 8.37098L5.07556 8.46226C4.14512 8.6223 3.30172 9.10751 2.69568 9.83142C2.08963 10.5553 1.76031 11.4709 1.7664 12.415V15.2723H0V4.87012L0.333198 5.04356C2.02233 5.91948 3.64004 6.92674 5.17141 8.05604L5.60046 8.37098Z" fill="black"/>
<path d="M24.9582 14.8661C24.9205 14.9645 24.8534 15.0489 24.766 15.1078C24.6786 15.1666 24.5751 15.197 24.4698 15.1947H13.6112C13.414 15.1956 13.2193 15.1512 13.0421 15.065C12.8648 14.9787 12.7097 14.8529 12.5888 14.6972C11.5387 13.335 10.3933 12.0492 9.16093 10.8495C8.34848 10.0598 7.4493 9.2702 6.49079 8.50795H6.4634C4.51079 6.94135 2.40509 5.57578 0.178286 4.43199L0.0322266 4.35896L0.036791 4.1992C0.164304 3.26977 0.527244 2.38834 1.09116 1.6386C1.58411 0.999593 2.57001 0.0365148 3.27748 0H3.314C3.40061 0.000683896 3.48608 0.0197545 3.56477 0.0559501C3.64345 0.0921456 3.71356 0.144641 3.77043 0.20996C4.35467 0.826148 4.91608 1.49254 5.47294 2.14068C6.02979 2.78882 6.56838 3.40957 7.14349 4.01663L13.246 10.5893C14.0494 11.452 14.9394 12.2507 15.9846 12.2507H16.0531C16.7073 12.1864 17.3258 11.9218 17.8241 11.493C17.888 11.4428 17.9519 11.3789 18.0295 11.3059C18.1054 11.2275 18.1878 11.1558 18.2759 11.0914L18.3353 11.0594H18.4357C18.6401 11.1009 18.8351 11.1799 19.0108 11.2922L19.1614 11.3698L24.4926 13.9441L24.8577 14.3092C24.9274 14.3819 24.9742 14.4735 24.992 14.5725C25.0099 14.6716 24.9981 14.7737 24.9582 14.8661Z" fill="black"/>
</svg>
