<svg width="32" height="32" viewBox="0 0 32 32" fill="none" xmlns="http://www.w3.org/2000/svg">
<path fill-rule="evenodd" clip-rule="evenodd" d="M24.7273 2.90909C23.9239 2.90909 23.2727 3.56029 23.2727 4.36364C23.2727 5.16698 23.9239 5.81818 24.7273 5.81818C25.5306 5.81818 26.1818 5.16698 26.1818 4.36364C26.1818 3.56029 25.5306 2.90909 24.7273 2.90909ZM1.45455 2.90909H20.6119C21.211 1.21425 22.8273 0 24.7273 0C26.6272 0 28.2436 1.21425 28.8426 2.90909H30.5455C31.3488 2.90909 32 3.56029 32 4.36364C32 5.16698 31.3488 5.81818 30.5455 5.81818H28.8426C28.2436 7.51302 26.6272 8.72727 24.7273 8.72727C22.8273 8.72727 21.211 7.51302 20.6119 5.81818H1.45455C0.6512 5.81818 0 5.16698 0 4.36364C0 3.56029 0.6512 2.90909 1.45455 2.90909ZM1.45455 14.5455C0.6512 14.5455 0 15.1967 0 16C0 16.8033 0.6512 17.4545 1.45455 17.4545H11.8847C12.4837 19.1494 14.1001 20.3636 16 20.3636C17.8999 20.3636 19.5163 19.1494 20.1153 17.4545H30.5455C31.3488 17.4545 32 16.8033 32 16C32 15.1967 31.3488 14.5455 30.5455 14.5455H20.1153C19.5163 12.8506 17.8999 11.6364 16 11.6364C14.1001 11.6364 12.4837 12.8506 11.8847 14.5455H1.45455ZM17.4545 16C17.4545 15.1967 16.8033 14.5455 16 14.5455C15.1967 14.5455 14.5455 15.1967 14.5455 16C14.5455 16.8033 15.1967 17.4545 16 17.4545C16.8033 17.4545 17.4545 16.8033 17.4545 16ZM0 27.6364C0 26.833 0.6512 26.1818 1.45455 26.1818H20.6119C21.211 24.487 22.8273 23.2727 24.7273 23.2727C26.6272 23.2727 28.2436 24.487 28.8426 26.1818H30.5455C31.3488 26.1818 32 26.833 32 27.6364C32 28.4397 31.3488 29.0909 30.5455 29.0909H28.8426C28.2436 30.7857 26.6272 32 24.7273 32C22.8273 32 21.211 30.7857 20.6119 29.0909H1.45455C0.6512 29.0909 0 28.4397 0 27.6364ZM26.1818 27.6364C26.1818 26.833 25.5306 26.1818 24.7273 26.1818C23.9239 26.1818 23.2727 26.833 23.2727 27.6364C23.2727 28.4397 23.9239 29.0909 24.7273 29.0909C25.5306 29.0909 26.1818 28.4397 26.1818 27.6364Z" fill="#333333"/>
</svg>
