<svg width="21" height="25" viewBox="0 0 21 25" fill="none" xmlns="http://www.w3.org/2000/svg">
<path d="M5.74642 0L10.5005 2.49409L9.43362 5.40391L5.14746 1.7572L5.74642 0Z" fill="#010101"/>
<path d="M1.87169 3.58057L0 6.7549L3.67787 9.92921L1.87169 3.58057Z" fill="#010101"/>
<path d="M3.67788 9.9292L4.54824 15.9378L3.54688 21.2755L10.3692 24.242L10.5002 2.513" fill="#010101"/>
<path d="M15.2541 0L10.5 2.49409L11.5669 5.40391L15.853 1.7572L15.2541 0Z" fill="#010101"/>
<path d="M19.1284 3.58057L21.0001 6.7549L17.3223 9.92921L19.1284 3.58057Z" fill="#010101"/>
<path d="M17.3225 9.9292L16.4521 15.9378L17.4535 21.2755L10.3691 24.242L10.5002 2.513" fill="#010101"/>
<path d="M8.96524 8.97501C9.14614 8.97501 9.29279 8.82697 9.29279 8.64435C9.29279 8.46173 9.14614 8.31369 8.96524 8.31369C8.78434 8.31369 8.6377 8.46173 8.6377 8.64435C8.6377 8.82697 8.78434 8.97501 8.96524 8.97501Z" fill="white"/>
<path d="M8.96524 14.0388C9.14614 14.0388 9.29279 13.8908 9.29279 13.7082C9.29279 13.5256 9.14614 13.3775 8.96524 13.3775C8.78434 13.3775 8.6377 13.5256 8.6377 13.7082C8.6377 13.8908 8.78434 14.0388 8.96524 14.0388Z" fill="white"/>
<path d="M9.03067 18.6964C9.21157 18.6964 9.35822 18.5483 9.35822 18.3657C9.35822 18.1831 9.21157 18.035 9.03067 18.035C8.84977 18.035 8.70312 18.1831 8.70312 18.3657C8.70312 18.5483 8.84977 18.6964 9.03067 18.6964Z" fill="white"/>
<path d="M10.3691 4.89371V24.242" stroke="white" stroke-width="0.2" stroke-miterlimit="10"/>
</svg>
