<svg width="20" height="15" viewBox="0 0 20 15" fill="none" xmlns="http://www.w3.org/2000/svg">
<path d="M16.4516 0H3.54839C2.6073 0 1.70475 0.299722 1.0393 0.83323C0.373847 1.36674 0 2.09033 0 2.84483V12.1552C0 12.9097 0.373847 13.6333 1.0393 14.1668C1.70475 14.7003 2.6073 15 3.54839 15H16.4516C17.3927 15 18.2952 14.7003 18.9607 14.1668C19.6262 13.6333 20 12.9097 20 12.1552V2.84483C20 2.09033 19.6262 1.36674 18.9607 0.83323C18.2952 0.299722 17.3927 0 16.4516 0ZM3.54839 1.55172H16.4516C16.8794 1.55172 17.2896 1.68796 17.5921 1.93047C17.8946 2.17297 18.0645 2.50188 18.0645 2.84483V3.70086L11.7774 7.30086C11.2594 7.59669 10.6392 7.75567 10.0032 7.75567C9.36723 7.75567 8.74705 7.59669 8.22903 7.30086L1.93548 3.70086V2.84483C1.93548 2.50188 2.10541 2.17297 2.40789 1.93047C2.71037 1.68796 3.12062 1.55172 3.54839 1.55172ZM16.4516 13.4483H3.54839C3.12062 13.4483 2.71037 13.312 2.40789 13.0695C2.10541 12.827 1.93548 12.4981 1.93548 12.1552V5.60948L7.09677 8.56552C7.94383 9.05079 8.9589 9.31167 10 9.31167C11.0411 9.31167 12.0562 9.05079 12.9032 8.56552L18.0645 5.60948V12.1552C18.0645 12.4981 17.8946 12.827 17.5921 13.0695C17.2896 13.312 16.8794 13.4483 16.4516 13.4483Z" fill="black"/>
</svg>
