<svg width="22" height="22" viewBox="0 0 22 22" fill="none" xmlns="http://www.w3.org/2000/svg">
<path d="M20.9807 16.3974C20.8991 15.9902 20.6539 15.6572 20.252 15.4078L20.2426 15.4023L16.3599 13.1071C16.3254 13.0861 16.2884 13.0694 16.2499 13.0573C16.0281 12.9576 15.7867 12.9092 15.5436 12.9154C15.1092 12.9109 14.6891 13.0709 14.3678 13.3634C14.3595 13.3707 14.3515 13.3784 14.3439 13.3863L13.2601 14.4899L13.1372 14.4655C13.0686 14.4516 12.8994 14.4013 12.5403 14.2166C12.2508 14.0673 11.8773 13.8284 11.4301 13.5023C10.983 13.1763 10.4642 12.7109 9.8832 12.117L9.87524 12.109C9.28184 11.5286 8.81976 11.0139 8.50192 10.5724C8.23953 10.2216 8.00471 9.85098 7.79959 9.46384L7.79661 9.45737C7.67223 9.2269 7.57428 8.9831 7.50463 8.73061L8.43129 7.80375C8.67526 7.55881 8.84124 7.24702 8.9083 6.90775C8.98965 6.55283 8.93647 6.18033 8.75908 5.86241L6.60931 1.78062C6.60301 1.76867 6.59621 1.75689 6.58892 1.74528C6.46538 1.55337 6.30835 1.38526 6.12534 1.24899C5.90613 1.08413 5.63851 0.996609 5.36432 1.0001C5.17831 1.00117 4.99441 1.03962 4.82352 1.11315C4.65264 1.18669 4.49825 1.29382 4.36952 1.42819L1.70146 4.09529C1.51443 4.27073 1.3625 4.48021 1.2538 4.71254C1.14238 4.93936 1.06639 5.18195 1.02848 5.43183C1.02515 5.45391 1.02348 5.4762 1.02351 5.49853C1.02351 5.51496 1.02002 5.58664 1.00411 5.87784C0.988687 6.15759 1.01654 6.51848 1.09016 6.97992C1.18308 7.51727 1.31609 8.0469 1.48808 8.56436C1.72322 9.2648 2.01689 9.94418 2.36599 10.5953C2.75147 11.332 3.26529 12.1424 3.89351 13.0041C4.52172 13.8657 5.3295 14.7821 6.28003 15.7209C7.47926 16.934 8.62925 17.9037 9.69866 18.6036C10.7681 19.3034 11.738 19.8351 12.5866 20.1865C13.4575 20.5479 14.1783 20.7694 14.7945 20.8635C15.3954 20.9551 15.8246 20.9999 16.1072 20.9999C16.2106 21.0008 16.314 20.9965 16.4171 20.9869L16.5021 20.9795C16.5214 20.9789 16.5407 20.9773 16.5598 20.9745C16.8096 20.9369 17.052 20.8608 17.2785 20.749C17.5106 20.6402 17.7197 20.4882 17.8948 20.301L20.5629 17.6508C20.7252 17.4954 20.8482 17.3036 20.9218 17.0912C20.9954 16.8788 21.0175 16.6519 20.9862 16.4293C20.9847 16.4203 20.9827 16.4089 20.9807 16.3974ZM19.8606 16.945L17.185 19.6026L17.1661 19.6225C17.075 19.7183 16.9662 19.7955 16.8458 19.85C16.7177 19.9139 16.581 19.9588 16.4399 19.9834C16.4136 19.9834 16.3758 19.9884 16.3166 19.9939C16.2833 19.9974 16.2196 20.0013 16.1067 20.0013C15.95 20.0013 15.6207 19.9794 14.9442 19.8764C14.417 19.7958 13.7505 19.5897 12.9671 19.2641C12.1837 18.9386 11.2595 18.4353 10.2428 17.7688C9.22613 17.1023 8.13534 16.1814 6.98485 15.0171L6.98037 15.0126C6.06516 14.1096 5.29767 13.236 4.69929 12.4157C4.10092 11.5953 3.61198 10.8263 3.24937 10.1324C2.92695 9.53247 2.65541 8.90656 2.43761 8.26121C2.28056 7.79242 2.15869 7.31256 2.07302 6.82561C2.01184 6.43983 1.98647 6.14017 1.99791 5.93459C2.01084 5.69864 2.01582 5.59859 2.01781 5.54931C2.04276 5.40983 2.08731 5.27459 2.15012 5.1476C2.20435 5.02695 2.28137 4.91793 2.37693 4.82653L2.39633 4.80811L5.07185 2.13006C5.19272 2.0091 5.2912 1.99367 5.36382 1.99367C5.42266 1.99064 5.4807 2.00825 5.52796 2.04345C5.61087 2.10592 5.68224 2.1824 5.73886 2.26944L7.88116 6.3363L7.88763 6.34824C7.95013 6.45688 7.96797 6.58558 7.93737 6.70714C7.90934 6.85645 7.83727 6.99393 7.73045 7.10188L6.74311 8.08947C6.65564 8.18139 6.5909 8.29255 6.5541 8.41403C6.519 8.51304 6.50018 8.6171 6.49839 8.72215C6.49845 8.75339 6.50145 8.78456 6.50734 8.81524C6.57051 9.14676 6.70382 9.50615 6.91471 9.91483C7.08881 10.2633 7.34546 10.6695 7.69961 11.1593C8.05376 11.6491 8.54768 12.2011 9.17888 12.8194C9.79665 13.4511 10.3577 13.9523 10.8472 14.3092C11.3366 14.6661 11.7499 14.9315 12.0907 15.1057C12.4553 15.2913 12.7258 15.3984 12.9432 15.4422L13.1944 15.492C13.2272 15.4984 13.2605 15.5016 13.2939 15.5014C13.3912 15.499 13.4875 15.4805 13.5789 15.4467C13.7034 15.4094 13.817 15.3427 13.9102 15.252L15.0442 14.0977C15.1822 13.974 15.3619 13.9073 15.5471 13.911C15.7316 13.911 15.8092 13.9458 15.8341 13.9608C15.8643 13.9789 15.8963 13.9937 15.9296 14.0051L19.7357 16.255C19.9347 16.379 19.9844 16.4945 20.0053 16.5756C20.0135 16.6447 20.0045 16.7148 19.9793 16.7796C19.9541 16.8445 19.9133 16.9021 19.8606 16.9475V16.945Z" fill="black" stroke="black" stroke-width="0.8"/>
</svg>
