<svg width="277" height="84" viewBox="0 0 277 84" fill="none" xmlns="http://www.w3.org/2000/svg">
<path d="M11.2367 0H265.372C271.571 0 276.609 4.50639 276.609 10.0514V73.7105C276.609 79.2555 271.571 83.7619 265.372 83.7619H11.2367C5.03777 83.7619 0 79.2555 0 73.7105V10.0514C0 4.50639 5.03777 0 11.2367 0Z" fill="black"/>
<path d="M91.4627 60.9972H86.7433L84.1589 53.7266H75.1696L72.7162 60.9972H68.1279L77.0236 36.2539H82.5296L91.4627 60.9972ZM83.3911 50.6777L81.0501 44.228C80.8066 43.5579 80.3384 42.0167 79.6642 39.5709H79.5706C79.2897 40.6263 78.8589 42.1842 78.2597 44.228L75.9561 50.6777H83.3911Z" fill="white"/>
<path d="M114.33 51.8669C114.33 54.8991 113.412 57.2947 111.558 59.0537C109.91 60.6284 107.85 61.399 105.416 61.399C102.775 61.399 100.883 60.5614 99.7223 58.8694V68.234H95.2838V49.019C95.2838 47.1092 95.2276 45.1659 95.1152 43.1557H99.0106L99.2541 45.9868H99.329C100.808 43.8593 103.056 42.7871 106.052 42.7871C108.412 42.7871 110.36 43.6247 111.933 45.2832C113.543 46.9585 114.33 49.1363 114.33 51.8669ZM109.817 52.0009C109.817 50.2587 109.386 48.8347 108.506 47.7123C107.55 46.5396 106.258 45.9533 104.648 45.9533C103.561 45.9533 102.569 46.2884 101.67 46.9249C100.79 47.5783 100.19 48.4159 99.9283 49.4713C99.7972 49.9571 99.7223 50.3592 99.7223 50.6775V53.6594C99.7223 54.9493 100.172 56.055 101.052 56.9429C101.932 57.8307 103.093 58.2831 104.517 58.2831C106.183 58.2831 107.476 57.6967 108.412 56.5576C109.348 55.4017 109.817 53.8939 109.817 52.0009Z" fill="white"/>
<path d="M137.253 51.8669C137.253 54.8991 136.335 57.2947 134.481 59.0537C132.833 60.6284 130.773 61.399 128.338 61.399C125.698 61.399 123.806 60.5614 122.645 58.8694V68.234H118.207V49.019C118.207 47.1092 118.15 45.1659 118.038 43.1557H121.933L122.177 45.9868H122.252C123.731 43.8593 125.979 42.7871 128.975 42.7871C131.335 42.7871 133.283 43.6247 134.856 45.2832C136.466 46.9585 137.253 49.1363 137.253 51.8669ZM132.739 52.0009C132.739 50.2587 132.309 48.8347 131.428 47.7123C130.473 46.5396 129.181 45.9533 127.571 45.9533C126.484 45.9533 125.492 46.2884 124.593 46.9249C123.713 47.5783 123.132 48.4159 122.851 49.4713C122.72 49.9571 122.645 50.3592 122.645 50.6775V53.6594C122.645 54.9493 123.095 56.055 123.975 56.9429C124.855 57.8307 126.016 58.2831 127.439 58.2831C129.106 58.2831 130.417 57.6967 131.335 56.5576C132.29 55.4017 132.739 53.8939 132.739 52.0009Z" fill="white"/>
<path d="M162.909 54.0619C162.909 56.1727 162.085 57.8815 160.456 59.2049C158.658 60.6456 156.149 61.366 152.927 61.366C149.95 61.366 147.571 60.8466 145.773 59.8247L146.803 56.5245C148.751 57.5464 150.886 58.0657 153.208 58.0657C154.875 58.0657 156.186 57.7307 157.104 57.0606C158.04 56.3905 158.508 55.4859 158.508 54.3635C158.508 53.3583 158.115 52.5207 157.366 51.8339C156.598 51.147 155.325 50.5104 153.545 49.9241C148.658 48.2991 146.242 45.937 146.242 42.8378C146.242 40.8108 147.103 39.1523 148.807 37.8456C150.512 36.5557 152.778 35.9023 155.606 35.9023C158.115 35.9023 160.213 36.2876 161.879 37.075L160.756 40.2915C159.183 39.5376 157.422 39.1523 155.437 39.1523C153.883 39.1523 152.647 39.5041 151.766 40.1742C151.036 40.794 150.661 41.5311 150.661 42.419C150.661 43.3907 151.092 44.2115 151.935 44.8314C152.665 45.4177 154.014 46.0543 155.961 46.7411C158.34 47.5955 160.081 48.6006 161.205 49.7566C162.347 50.9125 162.909 52.3532 162.909 54.0619Z" fill="white"/>
<path d="M177.592 46.1381H172.704V54.7991C172.704 56.9936 173.565 58.0993 175.288 58.0993C176.075 58.0993 176.73 58.0323 177.255 57.915L177.386 60.9305C176.505 61.2152 175.363 61.366 173.94 61.366C172.179 61.366 170.831 60.8802 169.838 59.9253C168.846 58.9704 168.359 57.3622 168.359 55.1174V46.1213H165.456V43.1562H168.359V39.8895L172.704 38.7168V43.1562H177.592V46.1381Z" fill="white"/>
<path d="M199.577 51.9347C199.577 54.6821 198.697 56.9269 196.955 58.6859C195.12 60.4952 192.685 61.3998 189.651 61.3998C186.73 61.3998 184.389 60.5287 182.647 58.8032C180.905 57.0777 180.044 54.8831 180.044 52.2363C180.044 49.4721 180.943 47.2106 182.722 45.4516C184.52 43.6926 186.936 42.8047 189.97 42.8047C192.891 42.8047 195.251 43.6758 197.03 45.4181C198.734 47.0933 199.577 49.2711 199.577 51.9347ZM194.989 52.0185C194.989 50.3768 194.595 48.9863 193.809 47.8136C192.872 46.3897 191.543 45.6861 189.82 45.6861C188.041 45.6861 186.674 46.3897 185.756 47.8136C184.951 48.9863 184.576 50.4103 184.576 52.1023C184.576 53.744 184.969 55.1512 185.756 56.3071C186.711 57.731 188.059 58.4346 189.782 58.4346C191.468 58.4346 192.798 57.7143 193.771 56.2736C194.577 55.0674 194.989 53.6602 194.989 52.0185Z" fill="white"/>
<path d="M213.997 46.6402C213.567 46.5732 213.098 46.5396 212.593 46.5396C211.038 46.5396 209.821 47.059 208.978 48.1144C208.248 49.0358 207.873 50.2252 207.873 51.6324V60.997H203.435V48.7677C203.435 46.7072 203.397 44.8309 203.304 43.1557H207.162L207.33 46.5732H207.461C207.929 45.4005 208.66 44.4456 209.671 43.742C210.664 43.1054 211.731 42.7871 212.874 42.7871C213.286 42.7871 213.66 42.8206 213.979 42.8541L213.997 46.6402Z" fill="white"/>
<path d="M233.812 51.2317C233.812 51.9353 233.756 52.5384 233.644 53.0243H220.347C220.403 54.7833 221.04 56.1402 222.276 57.0616C223.4 57.8824 224.842 58.3013 226.621 58.3013C228.587 58.3013 230.385 58.0165 231.996 57.4636L232.689 60.211C230.797 60.9481 228.569 61.3167 226.003 61.3167C222.913 61.3167 220.478 60.4958 218.718 58.8708C216.957 57.2459 216.077 55.0513 216.077 52.3207C216.077 49.6403 216.901 47.3954 218.549 45.6029C220.272 43.6932 222.594 42.7383 225.516 42.7383C228.381 42.7383 230.572 43.6932 232.033 45.6029C233.213 47.1442 233.812 49.0037 233.812 51.2317ZM229.58 50.2098C229.617 49.0372 229.318 48.0153 228.718 47.1609C227.951 46.0553 226.771 45.5024 225.198 45.5024C223.756 45.5024 222.576 46.0385 221.677 47.1107C220.946 47.965 220.497 49.0037 220.366 50.1931L229.58 50.2098Z" fill="white"/>
<path d="M79.6071 27.4083H77.2848L76.0113 23.8401H71.5916L70.3743 27.4083H68.127L72.4905 15.2461H75.1873L79.6071 27.4083ZM75.6181 22.3324L74.4757 19.1494C74.3633 18.8311 74.1386 18.0605 73.7827 16.8543H73.7453C73.5955 17.3736 73.4082 18.1275 73.0898 19.1494L71.9661 22.3324H75.6181Z" fill="white"/>
<path d="M90.5421 18.6289L86.834 27.4072H84.7178L81.1221 18.6289H83.463L85.1298 23.2693C85.4107 24.0399 85.6542 24.777 85.8415 25.4806H85.8977C86.0662 24.844 86.3097 24.1069 86.6093 23.2693L88.2574 18.6289H90.5421Z" fill="white"/>
<path d="M98.4469 27.4095L98.2783 26.4043H98.2221C97.5479 27.2085 96.5928 27.6105 95.3568 27.6105C93.5964 27.6105 92.3604 26.5049 92.3604 25.0306C92.3604 22.8696 94.4579 21.7472 98.091 21.7472V21.5797C98.091 20.4237 97.3981 19.8542 96.0497 19.8542C95.0759 19.8542 94.2331 20.0719 93.484 20.5075L93.0345 19.2343C93.9335 18.7318 95.0759 18.4805 96.4055 18.4805C98.9712 18.4805 100.263 19.6866 100.263 22.1157V25.3489C100.263 26.2368 100.301 26.9237 100.413 27.443L98.4469 27.4095ZM98.1472 23.0371C95.7313 23.0371 94.514 23.5564 94.514 24.8129C94.514 25.7342 95.1321 26.1866 96.0123 26.1866C97.1172 26.1866 98.1472 25.4327 98.1472 24.3941V23.0371Z" fill="white"/>
<path d="M105.115 17.1899C104.385 17.1899 103.823 16.6873 103.823 16.0172C103.823 15.3471 104.404 14.8613 105.153 14.8613C105.902 14.8613 106.501 15.3471 106.483 16.0172C106.483 16.7208 105.921 17.1899 105.115 17.1899ZM104.067 18.6306H106.239V27.3921H104.067V18.6306Z" fill="white"/>
<path d="M110.116 14.6094H112.288V27.3914H110.116V14.6094Z" fill="white"/>
<path d="M121.539 27.4106L121.37 26.4055H121.314C120.64 27.2096 119.685 27.6116 118.449 27.6116C116.688 27.6116 115.452 26.506 115.452 25.0318C115.452 22.8707 117.55 21.7483 121.183 21.7483V21.5808C121.183 20.4249 120.49 19.8553 119.142 19.8553C118.168 19.8553 117.325 20.0731 116.576 20.5086L116.126 19.2187C117.025 18.7161 118.168 18.4648 119.497 18.4648C122.063 18.4648 123.355 19.671 123.355 22.1001V25.3333C123.355 26.2212 123.393 26.908 123.486 27.4274H121.539V27.4106ZM121.239 23.0382C118.823 23.0382 117.606 23.5576 117.606 24.814C117.606 25.7354 118.224 26.1877 119.104 26.1877C120.209 26.1877 121.239 25.4338 121.239 24.3952V23.0382Z" fill="white"/>
<path d="M132.196 27.6092C130.81 27.6092 129.78 27.0899 129.106 26.0512H129.068L128.937 27.4082H127.083C127.139 26.7046 127.158 25.9172 127.158 25.0461V14.6094H129.349V19.9199H129.387C130.042 18.9482 131.072 18.4624 132.514 18.4624C134.874 18.4624 136.522 20.2717 136.522 22.9018C136.522 25.6157 134.686 27.6092 132.196 27.6092ZM131.746 19.9869C130.491 19.9869 129.349 20.9585 129.349 22.3155V23.8567C129.349 25.0629 130.379 26.0512 131.709 26.0512C133.338 26.0512 134.312 24.8618 134.312 22.9688C134.312 21.1931 133.301 19.9869 131.746 19.9869Z" fill="white"/>
<path d="M139.741 14.6094H141.913V27.3914H139.741V14.6094Z" fill="white"/>
<path d="M153.77 23.4889H147.234C147.272 25.1474 148.508 26.0855 150.324 26.0855C151.298 26.0855 152.178 25.9348 152.965 25.6667L153.302 27.0237C152.384 27.3922 151.298 27.5597 150.025 27.5597C146.953 27.5597 145.137 25.8342 145.137 23.1371C145.137 20.4567 146.991 18.4297 149.781 18.4297C152.272 18.4297 153.864 20.0882 153.864 22.601C153.864 22.9528 153.845 23.2544 153.77 23.4889ZM151.785 22.0985C151.785 20.7415 151.017 19.7866 149.631 19.7866C148.377 19.7866 147.403 20.7583 147.253 22.0985H151.785Z" fill="white"/>
<path d="M166.971 27.6116C164.106 27.6116 162.252 25.7019 162.252 23.1053C162.252 20.3914 164.143 18.4648 167.14 18.4648C169.968 18.4648 171.859 20.2909 171.859 22.9545C171.859 25.6851 169.912 27.6116 166.971 27.6116ZM167.065 19.8888C165.492 19.8888 164.481 21.2122 164.481 23.0382C164.481 24.8475 165.511 26.1542 167.046 26.1542C168.582 26.1542 169.612 24.747 169.612 22.988C169.593 21.2122 168.601 19.8888 167.065 19.8888Z" fill="white"/>
<path d="M183.565 27.4078H181.392V22.3654C181.392 20.8074 180.718 20.0368 179.407 20.0368C178.115 20.0368 177.235 21.0252 177.235 22.1811V27.3911H175.062V21.1424C175.062 20.3718 175.043 19.5342 174.987 18.6296H176.898L176.991 19.9865H177.047C177.628 19.0484 178.826 18.4453 180.156 18.4453C182.216 18.4453 183.565 19.8525 183.565 22.1476V27.4078Z" fill="white"/>
<path d="M197.817 20.1051H195.419V24.3602C195.419 25.4492 195.85 25.9852 196.693 25.9852C197.068 25.9852 197.405 25.9517 197.667 25.9015L197.723 27.3757C197.292 27.5265 196.73 27.5935 196.037 27.5935C194.315 27.5935 193.303 26.7391 193.303 24.5278V20.1051H191.88V18.6477H193.303V17.0395L195.438 16.4531V18.6309H197.835V20.1051" fill="white"/>
<path d="M209.351 27.4082H207.179V22.3992C207.179 20.8245 206.504 20.0371 205.193 20.0371C204.07 20.0371 203.021 20.724 203.021 22.1144V27.3914H200.849V14.6094H203.021V19.8696H203.059C203.751 18.9147 204.725 18.4457 205.999 18.4457C208.078 18.4457 209.351 19.8864 209.351 22.1814V27.4082Z" fill="white"/>
<path d="M220.477 23.4889H213.941C213.979 25.1474 215.215 26.0855 217.031 26.0855C218.005 26.0855 218.885 25.9348 219.672 25.6667L220.009 27.0237C219.091 27.3922 218.005 27.5597 216.732 27.5597C213.66 27.5597 211.844 25.8342 211.844 23.1371C211.844 20.4567 213.698 18.4297 216.488 18.4297C218.979 18.4297 220.571 20.0882 220.571 22.601C220.571 22.9528 220.552 23.2544 220.477 23.4889ZM218.492 22.0985C218.492 20.7415 217.724 19.7866 216.338 19.7866C215.084 19.7866 214.091 20.7583 213.96 22.0985H218.492Z" fill="white"/>
<path d="M23.6494 16.5586C22.4024 16.5586 21.3984 17.5625 21.3984 18.8096V64.9544C21.3984 66.2014 22.4024 67.2053 23.6494 67.2053H45.0336C46.2806 67.2053 47.2845 66.2014 47.2845 64.9544V18.8096C47.2845 17.5625 46.2806 16.5586 45.0336 16.5586H23.6494ZM23.6494 22.186H45.0336V59.327H23.6494V22.186ZM34.3415 61.0152C35.5847 61.0152 36.5925 62.023 36.5925 63.2661C36.5925 64.5094 35.5847 65.5171 34.3415 65.5171C33.0983 65.5171 32.0905 64.5094 32.0905 63.2661C32.0905 62.023 33.0983 61.0152 34.3415 61.0152Z" fill="white"/>
</svg>
