<svg width="277" height="85" viewBox="0 0 277 85" fill="none" xmlns="http://www.w3.org/2000/svg">
<path d="M11.2367 0.273438H265.372C271.571 0.273438 276.609 4.77983 276.609 10.3249V73.9839C276.609 79.529 271.571 84.0353 265.372 84.0353H11.2367C5.03777 84.0353 0 79.529 0 73.9839V10.3249C0 4.77983 5.03777 0.273438 11.2367 0.273438Z" fill="black"/>
<path d="M189.291 57.0239L187.447 58.7829C187.015 59.0174 186.6 59.3022 186.184 59.4865C184.905 60.0728 183.61 60.2236 182.447 60.2236C181.218 60.2236 179.291 60.1398 177.33 58.6991C174.606 56.7559 173.41 53.3886 173.41 50.4737C173.41 44.4261 178.261 41.4609 182.231 41.4609C183.61 41.4609 185.038 41.8127 186.184 42.5498C188.111 43.8398 188.61 45.515 188.875 46.4196L179.839 50.1219L176.882 50.3565C177.845 55.3152 181.151 58.1966 184.806 58.1966C186.633 58.1966 187.978 57.5935 189.224 56.9736C189.224 56.9736 189.473 56.8396 189.291 57.0239ZM183.776 47.073C184.507 46.8049 184.872 46.5704 184.872 46.0176C184.872 44.4429 183.161 42.6336 181.101 42.6336C179.59 42.6336 176.732 43.8565 176.732 48.0949C176.732 48.765 176.816 49.4686 176.849 50.1722L183.776 47.073Z" fill="white"/>
<path d="M170.419 56.807C170.419 58.3147 170.685 58.5493 171.947 58.6665C172.612 58.7503 173.26 58.7838 173.907 58.8508L172.495 59.7052H165.735C166.615 58.5325 166.781 58.4153 166.781 57.6446V56.7735L166.764 33.6552H163.774L166.648 32.248H172.13C170.934 32.9516 170.585 33.3705 170.436 34.7274L170.419 56.807Z" fill="white"/>
<path d="M159.939 43.372C160.82 44.1091 162.647 45.6671 162.647 48.6155C162.647 51.4969 161.052 52.8539 159.441 54.1438C158.943 54.6464 158.361 55.1992 158.361 56.0536C158.361 56.908 158.943 57.377 159.358 57.7288L160.737 58.8177C162.414 60.2584 163.943 61.5819 163.943 64.2623C163.943 67.9143 160.454 71.6166 153.876 71.6166C148.328 71.6166 145.653 68.9362 145.653 66.0548C145.653 64.6476 146.334 62.6708 148.61 61.3138C150.986 59.8396 154.192 59.6386 155.919 59.5213C155.388 58.8177 154.773 58.0806 154.773 56.8745C154.773 56.2211 154.972 55.8191 155.155 55.35C154.74 55.3835 154.308 55.4338 153.926 55.4338C149.873 55.4338 147.58 52.3513 147.58 49.3191C147.58 47.5266 148.378 45.5499 150.039 44.1091C152.215 42.2831 154.823 41.9648 156.883 41.9648H164.773L162.315 43.372H159.939ZM157.248 60.6102C156.933 60.56 156.75 60.56 156.368 60.56C156.019 60.56 153.926 60.6437 152.315 61.1966C151.467 61.5149 148.992 62.4698 148.992 65.2842C148.992 68.0986 151.65 70.1256 155.786 70.1256C159.491 70.1256 161.451 68.2996 161.451 65.8537C161.451 63.8099 160.172 62.7378 157.248 60.6102ZM158.328 53.1052C159.208 52.2173 159.291 50.9776 159.291 50.274C159.291 47.4764 157.663 43.1375 154.491 43.1375C153.511 43.1375 152.431 43.6401 151.816 44.4274C151.168 45.2316 150.986 46.287 150.986 47.2921C150.986 49.8887 152.481 54.1941 155.753 54.1941C156.7 54.1941 157.73 53.725 158.328 53.1052Z" fill="white"/>
<path d="M136.085 60.2236C129.988 60.2236 126.732 55.3654 126.732 50.9763C126.732 45.8501 130.835 41.4609 136.666 41.4609C142.297 41.4609 145.836 45.9673 145.836 50.7083C145.836 55.3319 142.347 60.2236 136.085 60.2236ZM140.852 57.0574C141.782 55.801 142.015 54.2263 142.015 52.7018C142.015 49.234 140.404 42.6336 135.62 42.6336C134.357 42.6336 133.078 43.1362 132.148 43.9738C130.653 45.3475 130.37 47.073 130.37 48.765C130.37 52.6515 132.247 59.0509 136.915 59.0509C138.444 59.0509 139.972 58.3138 140.852 57.0574Z" fill="white"/>
<path d="M115.653 60.2236C109.557 60.2236 106.301 55.3654 106.301 50.9763C106.301 45.8501 110.404 41.4609 116.234 41.4609C121.866 41.4609 125.404 45.9673 125.404 50.7083C125.404 55.3319 121.916 60.2236 115.653 60.2236ZM120.421 57.0574C121.351 55.801 121.583 54.2263 121.583 52.7018C121.583 49.234 119.955 42.6336 115.188 42.6336C113.909 42.6336 112.646 43.1362 111.716 43.9738C110.204 45.3475 109.939 47.073 109.939 48.765C109.939 52.6515 111.832 59.0509 116.484 59.0509C118.012 59.0509 119.54 58.3138 120.421 57.0574Z" fill="white"/>
<path d="M103.775 59.0672L98.6085 60.2734C96.5154 60.6084 94.6383 60.91 92.6449 60.91C82.678 60.8932 78.8906 53.4552 78.8906 47.6253C78.8906 40.5223 84.2728 33.9219 93.4755 33.9219C95.4191 33.9219 97.2962 34.2067 99.0071 34.6925C101.715 35.4631 102.977 36.418 103.775 36.9708L100.768 39.869L99.5055 40.1538L100.403 38.6963C99.1733 37.4901 96.9307 35.2453 92.6782 35.2453C86.9804 35.2453 82.678 39.6344 82.678 46.0506C82.678 52.9358 87.5784 59.419 95.4523 59.419C97.7613 59.419 98.9573 58.9499 100.037 58.5144V52.6008L94.5885 52.9023L97.4789 51.3276H105.137L104.207 52.249C103.957 52.4668 103.924 52.5338 103.841 52.8353C103.808 53.1704 103.775 54.2258 103.775 54.6111V59.0672Z" fill="white"/>
<path d="M200.438 57.1914V67.0921H198.494V41.9133H200.438V44.7779C201.7 42.9184 204.026 41.4609 206.7 41.4609C211.518 41.4609 214.773 45.1632 214.773 51.0098C214.773 56.8229 211.534 60.5921 206.7 60.5921C204.175 60.5921 201.9 59.2687 200.438 57.1914ZM212.78 51.1606C212.78 46.7044 210.504 43.3037 206.451 43.3037C203.943 43.3037 201.534 45.314 200.488 47.073V55.2146C201.534 56.9736 203.943 59.0509 206.451 59.0509C210.504 59.0509 212.78 55.6167 212.78 51.1606Z" fill="white"/>
<path d="M217.431 34.9297H219.424V60.2258H217.431V34.9297Z" fill="white"/>
<path d="M241.101 65.3507C241.516 65.535 242.23 65.6523 242.679 65.6523C243.875 65.6523 244.689 65.1664 245.436 63.4242L246.848 60.1742L239.19 41.7969H241.367L247.928 57.7284L254.44 41.7969H256.633L247.297 64.0273C246.333 66.3224 244.805 67.428 242.712 67.428C242.081 67.428 241.25 67.3107 240.769 67.16L241.101 65.3507Z" fill="white"/>
<path d="M235.602 60.2068C235.469 59.5703 235.369 59.0174 235.303 58.5484C235.236 58.0793 235.203 57.6102 235.203 57.1244C234.538 58.1128 233.592 58.9504 232.362 59.6038C231.15 60.2571 229.987 60.5754 228.409 60.5754C226.499 60.5754 225.02 60.1063 223.974 59.1347C222.927 58.1798 222.396 56.8731 222.396 55.2314C222.396 53.5897 223.16 52.2495 224.688 51.2276C226.216 50.2057 228.193 49.6864 230.635 49.6864H235.186V47.408C235.186 46.1013 234.738 45.0627 233.857 44.3256C232.977 43.5717 231.731 43.2032 230.12 43.2032C228.641 43.2032 227.445 43.555 226.532 44.2251C225.635 44.9119 225.17 45.7663 225.17 46.7882H223.176L223.143 46.6877C223.077 45.2972 223.691 44.0911 225.037 43.0357C226.366 41.9803 228.093 41.4609 230.236 41.4609C232.362 41.4609 234.09 41.9803 235.386 43.0189C236.681 44.0408 237.329 45.5318 237.329 47.4583V56.5046C237.329 57.1579 237.362 57.7778 237.445 58.3976C237.529 59.0174 237.661 59.6205 237.828 60.2068H235.602ZM228.658 58.8834C230.319 58.8834 231.515 58.4981 232.728 57.761C233.94 57.0239 234.754 56.0523 235.186 54.8796V51.3448H230.602C228.857 51.3448 227.412 51.7301 226.266 52.5343C225.12 53.3216 224.555 54.2765 224.555 55.3989C224.555 56.4543 224.92 57.2919 225.651 57.9285C226.399 58.5651 227.396 58.8834 228.658 58.8834Z" fill="white"/>
<path d="M78.8926 17.8913C78.8926 14.2895 81.7498 11.9609 85.3046 11.9609C87.6801 11.9609 89.2416 13.0331 90.2216 14.3398L88.4774 15.2779C87.813 14.4235 86.6668 13.7534 85.3046 13.7534C82.896 13.7534 81.0853 15.4789 81.0853 17.8913C81.1019 20.2869 82.896 22.0291 85.3046 22.0291C86.5505 22.0291 87.6468 21.493 88.195 20.9905V19.2315H84.5405V17.4557H90.3213V21.7276C89.1253 22.984 87.4143 23.8216 85.3046 23.8216C81.7498 23.8384 78.8926 21.493 78.8926 17.8913Z" fill="white"/>
<path d="M93.0938 23.6702V12.1445H101.582V13.9203H95.2699V16.8855H101.449V18.678H95.2699V21.8944H101.582V23.6702H93.0938Z" fill="white"/>
<path d="M107.348 23.6702V13.9203H103.66V12.1445H113.179V13.9203H109.491V23.6702H107.348Z" fill="white"/>
<path d="M120.804 12.1445H122.88V23.6702H120.804V12.1445Z" fill="white"/>
<path d="M128.826 23.6702V13.9203H125.139V12.1445H134.657V13.9203H130.969V23.6702H128.826Z" fill="white"/>
<path d="M141.768 17.9069C141.768 14.4894 144.376 11.9766 148.097 11.9766C151.784 11.9766 154.409 14.4894 154.409 17.9069C154.409 21.3244 151.768 23.8373 148.097 23.8373C144.376 23.8373 141.768 21.3244 141.768 17.9069ZM152.15 17.8064C152.15 15.4611 150.555 13.7021 148.08 13.7021C145.588 13.7021 144.01 15.4611 144.01 17.8064C144.01 20.135 145.588 21.9107 148.08 21.9107C150.555 21.9107 152.15 20.1517 152.15 17.8064Z" fill="white"/>
<path d="M165.322 23.6702L158.959 15.428V23.6702H156.816V12.1445H159.009L165.238 20.1354V12.1445H167.381V23.6702H165.322Z" fill="white"/>
<path d="M21.5482 19.752L42.6409 40.6924L48.4239 34.9095L22.857 20.1476C22.4309 19.9003 21.9743 19.7634 21.5482 19.752ZM19.7829 20.7259C19.5927 21.0645 19.4785 21.464 19.4785 21.913V62.6069C19.4785 62.9341 19.547 63.227 19.6611 63.4896L41.2408 42.0621L19.7829 20.7259ZM50.1892 35.9139L44.0105 42.0621L50.1892 48.1799L57.7375 43.8579C58.8104 43.2377 58.9626 42.4502 58.955 42.0316C58.9436 41.3392 58.506 40.6924 57.7679 40.2968C57.125 39.9505 52.3502 37.1694 50.1892 35.9139ZM42.6409 43.4317L21.3656 64.5244C21.7194 64.5054 22.1037 64.4293 22.4613 64.22C23.2945 63.7368 40.1451 53.9933 40.1451 53.9933L48.4543 49.2147L42.6409 43.4317Z" fill="white"/>
</svg>
