<svg width="16" height="16" viewBox="0 0 16 16" fill="none" xmlns="http://www.w3.org/2000/svg">
<path d="M2.37632 6.74737L2.27632 6.82237V6.94737V13.4737V13.7237H2.52632H6.73684H6.98684V13.4737V9.51316H9.01316V13.4737V13.7237H9.26316H13.4737H13.7237V13.4737V6.94737V6.82237L13.6237 6.74737L8.15 2.64211L8 2.52961L7.85 2.64211L2.37632 6.74737ZM0.655263 5.50526L0.508597 5.30971L0.655263 5.50526L7.39211 0.452632C7.56748 0.321101 7.78078 0.25 8 0.25C8.21922 0.25 8.43252 0.321101 8.60789 0.452632L15.3447 5.50526C15.4706 5.59964 15.5727 5.72201 15.643 5.86269C15.7134 6.00337 15.75 6.1585 15.75 6.31579V14.7368C15.75 15.0055 15.6433 15.2632 15.4533 15.4533C15.2632 15.6433 15.0055 15.75 14.7368 15.75H1.26316C0.994452 15.75 0.736751 15.6433 0.546747 15.4533L0.36997 15.63L0.546747 15.4533C0.356743 15.2632 0.25 15.0055 0.25 14.7368V6.31579C0.25 6.1585 0.286621 6.00337 0.356962 5.86269C0.427303 5.72201 0.529433 5.59964 0.655263 5.50526Z" fill="#FDC114" stroke="#333333" stroke-width="0.5"/>
</svg>
