<svg width="16" height="16" viewBox="0 0 16 16" fill="none" xmlns="http://www.w3.org/2000/svg">
<path d="M10.6929 12.4375L10.6296 12.3708L10.5578 12.4284C9.46281 13.3072 8.09087 13.8373 6.6157 13.8373C3.02389 13.8373 0.1 10.7651 0.1 6.96864C0.1 3.17222 3.02389 0.1 6.6157 0.1C10.2075 0.1 13.1314 3.17222 13.1314 6.96864C13.1314 8.52651 12.6268 9.97418 11.7919 11.1284L11.7434 11.1954L11.8003 11.2556L14.8346 14.4705L14.8348 14.4707C15.1511 14.8038 15.1511 15.3193 14.8348 15.6524L14.8347 15.6523L14.8313 15.6563C14.694 15.8171 14.4763 15.9 14.2899 15.9C14.1068 15.9 13.9033 15.8192 13.745 15.6524L10.6929 12.4375ZM11.5672 6.96864C11.5672 4.09351 9.33945 1.7583 6.6157 1.7583C3.87384 1.7583 1.66419 4.11258 1.66419 6.96864C1.66419 9.82495 3.89171 12.179 6.6157 12.179C9.33945 12.179 11.5672 9.84377 11.5672 6.96864Z" fill="white" stroke="#333333" stroke-width="0.2"/>
</svg>
