<svg width="16" height="17" viewBox="0 0 16 17" fill="none" xmlns="http://www.w3.org/2000/svg">
<path d="M8 0C3.59111 0 0 3.70181 0 8.24661C0 12.7914 3.59111 16.4932 8 16.4932C12.4089 16.4932 16 12.7914 16 8.24661C16 3.70181 12.4089 0 8 0ZM8 15.1188C4.32 15.1188 1.33333 12.0401 1.33333 8.24661C1.33333 4.45317 4.32 1.37444 8 1.37444C11.68 1.37444 14.6667 4.45317 14.6667 8.24661C14.6667 12.0401 11.68 15.1188 8 15.1188Z" fill="white"/>
<path d="M11.3424 7.5686H8.67575V4.81973C8.67575 4.43489 8.37353 4.12335 8.0002 4.12335C7.62687 4.12335 7.32464 4.43489 7.32464 4.81973V7.5686H4.65798C4.28464 7.5686 3.98242 7.88014 3.98242 8.26498C3.98242 8.64983 4.28464 8.96137 4.65798 8.96137H7.32464V11.7102C7.32464 12.0951 7.62687 12.4066 8.0002 12.4066C8.37353 12.4066 8.67575 12.0951 8.67575 11.7102V8.96137H11.3424C11.7158 8.96137 12.018 8.64983 12.018 8.26498C12.018 7.88014 11.698 7.5686 11.3424 7.5686Z" fill="white"/>
</svg>
