<svg width="157" height="24" viewBox="0 0 157 24" fill="none" xmlns="http://www.w3.org/2000/svg">
<path opacity="0.5" d="M33.0309 14.65L30.9009 9.08C30.7475 8.7 30.5942 8.22 30.4409 7.64C30.3675 7.92667 30.2909 8.19333 30.2109 8.44C30.1375 8.68667 30.0642 8.90667 29.9909 9.1L27.8709 14.65H33.0309ZM37.2409 20H35.6009C35.4142 20 35.2609 19.9533 35.1409 19.86C35.0209 19.7667 34.9342 19.6467 34.8809 19.5L33.6109 16.17H27.2809L26.0109 19.5C25.9642 19.6267 25.8775 19.7433 25.7509 19.85C25.6242 19.95 25.4709 20 25.2909 20H23.6509L29.3709 5.64H31.5209L37.2409 20ZM46.6529 9.84L42.5329 20H40.7729L36.6529 9.84H38.2629C38.4162 9.84 38.5429 9.87667 38.6429 9.95C38.7429 10.0233 38.8096 10.1167 38.8429 10.23L41.2729 16.47C41.3596 16.73 41.4329 16.99 41.4929 17.25C41.5596 17.5033 41.6196 17.7567 41.6729 18.01C41.7262 17.7567 41.7862 17.5033 41.8529 17.25C41.9196 16.9967 41.9996 16.7367 42.0929 16.47L44.5529 10.23C44.5929 10.1167 44.6629 10.0233 44.7629 9.95C44.8629 9.87667 44.9829 9.84 45.1229 9.84H46.6529ZM53.4296 15.49C52.6363 15.5167 51.9629 15.58 51.4096 15.68C50.8563 15.7733 50.4063 15.9 50.0596 16.06C49.7129 16.22 49.4629 16.41 49.3096 16.63C49.1563 16.8433 49.0796 17.0833 49.0796 17.35C49.0796 17.6033 49.1196 17.8233 49.1996 18.01C49.2863 18.19 49.3996 18.34 49.5396 18.46C49.6863 18.5733 49.8563 18.6567 50.0496 18.71C50.2429 18.7633 50.4529 18.79 50.6796 18.79C50.9796 18.79 51.2529 18.76 51.4996 18.7C51.7529 18.64 51.9896 18.5567 52.2096 18.45C52.4296 18.3367 52.6396 18.2 52.8396 18.04C53.0396 17.88 53.2363 17.6967 53.4296 17.49V15.49ZM47.7096 11.26C48.2763 10.72 48.8896 10.3167 49.5496 10.05C50.2163 9.78333 50.9463 9.65 51.7396 9.65C52.3196 9.65 52.8329 9.74667 53.2796 9.94C53.7263 10.1267 54.1029 10.39 54.4096 10.73C54.7163 11.07 54.9463 11.4767 55.0996 11.95C55.2596 12.4233 55.3396 12.9467 55.3396 13.52V20H54.4696C54.2763 20 54.1296 19.97 54.0296 19.91C53.9296 19.8433 53.8496 19.7233 53.7896 19.55L53.5796 18.66C53.3196 18.9 53.0629 19.1133 52.8096 19.3C52.5563 19.48 52.2896 19.6367 52.0096 19.77C51.7363 19.8967 51.4429 19.9933 51.1296 20.06C50.8163 20.1267 50.4696 20.16 50.0896 20.16C49.6896 20.16 49.3129 20.1067 48.9596 20C48.6129 19.8867 48.3096 19.7167 48.0496 19.49C47.7896 19.2633 47.5829 18.98 47.4296 18.64C47.2829 18.3 47.2096 17.9033 47.2096 17.45C47.2096 17.05 47.3163 16.6667 47.5296 16.3C47.7496 15.9267 48.1029 15.5933 48.5896 15.3C49.0829 15.0067 49.7229 14.7667 50.5096 14.58C51.3029 14.3933 52.2763 14.2867 53.4296 14.26V13.52C53.4296 12.7533 53.2663 12.18 52.9396 11.8C52.6129 11.42 52.1329 11.23 51.4996 11.23C51.0729 11.23 50.7129 11.2833 50.4196 11.39C50.1329 11.4967 49.8829 11.6167 49.6696 11.75C49.4629 11.8767 49.2796 11.9933 49.1196 12.1C48.9663 12.2067 48.8063 12.26 48.6396 12.26C48.5063 12.26 48.3896 12.2233 48.2896 12.15C48.1963 12.0767 48.1196 11.99 48.0596 11.89L47.7096 11.26ZM59.9901 9.84V20H58.0401V9.84H59.9901ZM60.3601 6.7C60.3601 6.88 60.3234 7.05333 60.2501 7.22C60.1767 7.38 60.0767 7.52333 59.9501 7.65C59.8301 7.77 59.6867 7.86667 59.5201 7.94C59.3534 8.00667 59.1801 8.04 59.0001 8.04C58.8201 8.04 58.6501 8.00667 58.4901 7.94C58.3301 7.86667 58.1867 7.77 58.0601 7.65C57.9401 7.52333 57.8434 7.38 57.7701 7.22C57.7034 7.05333 57.6701 6.88 57.6701 6.7C57.6701 6.51333 57.7034 6.34 57.7701 6.18C57.8434 6.01333 57.9401 5.87 58.0601 5.75C58.1867 5.62333 58.3301 5.52667 58.4901 5.46C58.6501 5.38667 58.8201 5.35 59.0001 5.35C59.1801 5.35 59.3534 5.38667 59.5201 5.46C59.6867 5.52667 59.8301 5.62333 59.9501 5.75C60.0767 5.87 60.1767 6.01333 60.2501 6.18C60.3234 6.34 60.3601 6.51333 60.3601 6.7ZM64.8134 5.24V20H62.8534V5.24H64.8134ZM73.0585 15.49C72.2652 15.5167 71.5918 15.58 71.0385 15.68C70.4852 15.7733 70.0352 15.9 69.6885 16.06C69.3418 16.22 69.0918 16.41 68.9385 16.63C68.7852 16.8433 68.7085 17.0833 68.7085 17.35C68.7085 17.6033 68.7485 17.8233 68.8285 18.01C68.9152 18.19 69.0285 18.34 69.1685 18.46C69.3152 18.5733 69.4852 18.6567 69.6785 18.71C69.8718 18.7633 70.0818 18.79 70.3085 18.79C70.6085 18.79 70.8818 18.76 71.1285 18.7C71.3818 18.64 71.6185 18.5567 71.8385 18.45C72.0585 18.3367 72.2685 18.2 72.4685 18.04C72.6685 17.88 72.8652 17.6967 73.0585 17.49V15.49ZM67.3385 11.26C67.9052 10.72 68.5185 10.3167 69.1785 10.05C69.8452 9.78333 70.5752 9.65 71.3685 9.65C71.9485 9.65 72.4618 9.74667 72.9085 9.94C73.3552 10.1267 73.7318 10.39 74.0385 10.73C74.3452 11.07 74.5752 11.4767 74.7285 11.95C74.8885 12.4233 74.9685 12.9467 74.9685 13.52V20H74.0985C73.9052 20 73.7585 19.97 73.6585 19.91C73.5585 19.8433 73.4785 19.7233 73.4185 19.55L73.2085 18.66C72.9485 18.9 72.6918 19.1133 72.4385 19.3C72.1852 19.48 71.9185 19.6367 71.6385 19.77C71.3652 19.8967 71.0718 19.9933 70.7585 20.06C70.4452 20.1267 70.0985 20.16 69.7185 20.16C69.3185 20.16 68.9418 20.1067 68.5885 20C68.2418 19.8867 67.9385 19.7167 67.6785 19.49C67.4185 19.2633 67.2118 18.98 67.0585 18.64C66.9118 18.3 66.8385 17.9033 66.8385 17.45C66.8385 17.05 66.9452 16.6667 67.1585 16.3C67.3785 15.9267 67.7318 15.5933 68.2185 15.3C68.7118 15.0067 69.3518 14.7667 70.1385 14.58C70.9318 14.3933 71.9052 14.2867 73.0585 14.26V13.52C73.0585 12.7533 72.8952 12.18 72.5685 11.8C72.2418 11.42 71.7618 11.23 71.1285 11.23C70.7018 11.23 70.3418 11.2833 70.0485 11.39C69.7618 11.4967 69.5118 11.6167 69.2985 11.75C69.0918 11.8767 68.9085 11.9933 68.7485 12.1C68.5952 12.2067 68.4352 12.26 68.2685 12.26C68.1352 12.26 68.0185 12.2233 67.9185 12.15C67.8252 12.0767 67.7485 11.99 67.6885 11.89L67.3385 11.26ZM79.529 17.5C79.849 17.92 80.1957 18.2133 80.569 18.38C80.9423 18.5467 81.349 18.63 81.789 18.63C82.6957 18.63 83.3923 18.3067 83.879 17.66C84.3723 17.0133 84.619 16.0367 84.619 14.73C84.619 13.5233 84.4023 12.64 83.969 12.08C83.5357 11.5133 82.9223 11.23 82.129 11.23C81.569 11.23 81.0823 11.3567 80.669 11.61C80.2623 11.8633 79.8823 12.2233 79.529 12.69V17.5ZM79.529 11.24C79.949 10.7733 80.4257 10.3967 80.959 10.11C81.4923 9.82333 82.099 9.68 82.779 9.68C83.3723 9.68 83.9057 9.79667 84.379 10.03C84.859 10.2567 85.2657 10.5867 85.599 11.02C85.9323 11.4467 86.189 11.9667 86.369 12.58C86.549 13.1933 86.639 13.8867 86.639 14.66C86.639 15.48 86.5357 16.2267 86.329 16.9C86.129 17.5733 85.839 18.15 85.459 18.63C85.0857 19.11 84.629 19.4833 84.089 19.75C83.549 20.01 82.9423 20.14 82.269 20.14C81.9423 20.14 81.6423 20.1067 81.369 20.04C81.0957 19.98 80.8423 19.89 80.609 19.77C80.3823 19.65 80.1723 19.5033 79.979 19.33C79.7857 19.1567 79.6023 18.96 79.429 18.74L79.339 19.59C79.2857 19.8633 79.119 20 78.839 20H77.579V5.24H79.529V11.24ZM90.8095 5.24V20H88.8495V5.24H90.8095ZM100.325 13.79C100.325 13.4033 100.268 13.0467 100.155 12.72C100.048 12.3933 99.8879 12.11 99.6746 11.87C99.4613 11.63 99.2013 11.4433 98.8946 11.31C98.5879 11.1767 98.2346 11.11 97.8346 11.11C97.0146 11.11 96.3679 11.3467 95.8946 11.82C95.4279 12.2933 95.1313 12.95 95.0046 13.79H100.325ZM101.935 18.55C101.695 18.83 101.418 19.0733 101.105 19.28C100.791 19.48 100.458 19.6433 100.105 19.77C99.7513 19.8967 99.3846 19.99 99.0046 20.05C98.6313 20.11 98.2613 20.14 97.8946 20.14C97.1946 20.14 96.5446 20.0233 95.9446 19.79C95.3513 19.55 94.8346 19.2033 94.3946 18.75C93.9613 18.29 93.6213 17.7233 93.3746 17.05C93.1346 16.37 93.0146 15.59 93.0146 14.71C93.0146 14.0033 93.1246 13.3467 93.3446 12.74C93.5646 12.1267 93.8779 11.5933 94.2846 11.14C94.6979 10.6867 95.2013 10.33 95.7946 10.07C96.3879 9.81 97.0546 9.68 97.7946 9.68C98.4146 9.68 98.9846 9.78333 99.5046 9.99C100.031 10.19 100.485 10.4833 100.865 10.87C101.245 11.2567 101.541 11.7333 101.755 12.3C101.975 12.8667 102.085 13.5133 102.085 14.24C102.085 14.54 102.051 14.7433 101.985 14.85C101.918 14.95 101.795 15 101.615 15H94.9546C94.9746 15.6067 95.0613 16.1367 95.2146 16.59C95.3679 17.0367 95.5779 17.41 95.8446 17.71C96.1179 18.01 96.4413 18.2333 96.8146 18.38C97.1879 18.5267 97.6046 18.6 98.0646 18.6C98.4979 18.6 98.8713 18.55 99.1846 18.45C99.5046 18.35 99.7779 18.2433 100.005 18.13C100.238 18.01 100.431 17.9 100.585 17.8C100.745 17.7 100.885 17.65 101.005 17.65C101.165 17.65 101.288 17.71 101.375 17.83L101.935 18.55ZM117.069 7.98C117.002 8.09333 116.932 8.17667 116.859 8.23C116.786 8.28333 116.692 8.31 116.579 8.31C116.459 8.31 116.322 8.25667 116.169 8.15C116.016 8.03667 115.822 7.91333 115.589 7.78C115.362 7.64 115.089 7.51667 114.769 7.41C114.449 7.29667 114.066 7.24 113.619 7.24C113.199 7.24 112.829 7.29667 112.509 7.41C112.196 7.51667 111.932 7.66667 111.719 7.86C111.506 8.04667 111.342 8.27 111.229 8.53C111.122 8.78333 111.069 9.06 111.069 9.36C111.069 9.74667 111.166 10.0667 111.359 10.32C111.559 10.5733 111.819 10.79 112.139 10.97C112.459 11.15 112.822 11.3067 113.229 11.44C113.636 11.5733 114.052 11.7133 114.479 11.86C114.906 12 115.322 12.1633 115.729 12.35C116.136 12.5367 116.499 12.7733 116.819 13.06C117.139 13.34 117.396 13.6867 117.589 14.1C117.789 14.5067 117.889 15.0067 117.889 15.6C117.889 16.2333 117.779 16.8267 117.559 17.38C117.346 17.9333 117.032 18.4167 116.619 18.83C116.206 19.2433 115.696 19.57 115.089 19.81C114.489 20.0433 113.806 20.16 113.039 20.16C112.579 20.16 112.132 20.1133 111.699 20.02C111.266 19.9333 110.856 19.81 110.469 19.65C110.082 19.4833 109.719 19.2867 109.379 19.06C109.046 18.8267 108.746 18.5667 108.479 18.28L109.089 17.26C109.149 17.18 109.219 17.1133 109.299 17.06C109.386 17.0067 109.482 16.98 109.589 16.98C109.729 16.98 109.889 17.0533 110.069 17.2C110.256 17.3467 110.482 17.51 110.749 17.69C111.022 17.8633 111.346 18.0233 111.719 18.17C112.099 18.3167 112.559 18.39 113.099 18.39C113.539 18.39 113.932 18.3333 114.279 18.22C114.626 18.1 114.916 17.9333 115.149 17.72C115.389 17.5 115.572 17.2367 115.699 16.93C115.826 16.6233 115.889 16.2833 115.889 15.91C115.889 15.49 115.792 15.1467 115.599 14.88C115.406 14.6133 115.149 14.39 114.829 14.21C114.509 14.03 114.146 13.8767 113.739 13.75C113.332 13.6233 112.916 13.4933 112.489 13.36C112.062 13.22 111.646 13.06 111.239 12.88C110.832 12.7 110.469 12.4667 110.149 12.18C109.829 11.8867 109.572 11.5233 109.379 11.09C109.186 10.65 109.089 10.11 109.089 9.47C109.089 8.95667 109.189 8.46 109.389 7.98C109.589 7.5 109.879 7.07667 110.259 6.71C110.646 6.33667 111.119 6.04 111.679 5.82C112.239 5.59333 112.879 5.48 113.599 5.48C114.406 5.48 115.146 5.61 115.819 5.87C116.499 6.12333 117.089 6.49 117.589 6.97L117.069 7.98ZM122.08 9.84V20H120.13V9.84H122.08ZM122.45 6.7C122.45 6.88 122.413 7.05333 122.34 7.22C122.267 7.38 122.167 7.52333 122.04 7.65C121.92 7.77 121.777 7.86667 121.61 7.94C121.443 8.00667 121.27 8.04 121.09 8.04C120.91 8.04 120.74 8.00667 120.58 7.94C120.42 7.86667 120.277 7.77 120.15 7.65C120.03 7.52333 119.933 7.38 119.86 7.22C119.793 7.05333 119.76 6.88 119.76 6.7C119.76 6.51333 119.793 6.34 119.86 6.18C119.933 6.01333 120.03 5.87 120.15 5.75C120.277 5.62333 120.42 5.52667 120.58 5.46C120.74 5.38667 120.91 5.35 121.09 5.35C121.27 5.35 121.443 5.38667 121.61 5.46C121.777 5.52667 121.92 5.62333 122.04 5.75C122.167 5.87 122.267 6.01333 122.34 6.18C122.413 6.34 122.45 6.51333 122.45 6.7ZM131.983 10.66C131.983 10.8 131.957 10.9367 131.903 11.07C131.857 11.2033 131.793 11.3167 131.713 11.41L126.383 18.47H131.803V20H124.093V19.18C124.093 19.0867 124.117 18.9767 124.163 18.85C124.21 18.7167 124.277 18.5933 124.363 18.48L129.723 11.37H124.403V9.84H131.983V10.66ZM140.52 13.79C140.52 13.4033 140.463 13.0467 140.35 12.72C140.243 12.3933 140.083 12.11 139.87 11.87C139.657 11.63 139.397 11.4433 139.09 11.31C138.783 11.1767 138.43 11.11 138.03 11.11C137.21 11.11 136.563 11.3467 136.09 11.82C135.623 12.2933 135.327 12.95 135.2 13.79H140.52ZM142.13 18.55C141.89 18.83 141.613 19.0733 141.3 19.28C140.987 19.48 140.653 19.6433 140.3 19.77C139.947 19.8967 139.58 19.99 139.2 20.05C138.827 20.11 138.457 20.14 138.09 20.14C137.39 20.14 136.74 20.0233 136.14 19.79C135.547 19.55 135.03 19.2033 134.59 18.75C134.157 18.29 133.817 17.7233 133.57 17.05C133.33 16.37 133.21 15.59 133.21 14.71C133.21 14.0033 133.32 13.3467 133.54 12.74C133.76 12.1267 134.073 11.5933 134.48 11.14C134.893 10.6867 135.397 10.33 135.99 10.07C136.583 9.81 137.25 9.68 137.99 9.68C138.61 9.68 139.18 9.78333 139.7 9.99C140.227 10.19 140.68 10.4833 141.06 10.87C141.44 11.2567 141.737 11.7333 141.95 12.3C142.17 12.8667 142.28 13.5133 142.28 14.24C142.28 14.54 142.247 14.7433 142.18 14.85C142.113 14.95 141.99 15 141.81 15H135.15C135.17 15.6067 135.257 16.1367 135.41 16.59C135.563 17.0367 135.773 17.41 136.04 17.71C136.313 18.01 136.637 18.2333 137.01 18.38C137.383 18.5267 137.8 18.6 138.26 18.6C138.693 18.6 139.067 18.55 139.38 18.45C139.7 18.35 139.973 18.2433 140.2 18.13C140.433 18.01 140.627 17.9 140.78 17.8C140.94 17.7 141.08 17.65 141.2 17.65C141.36 17.65 141.483 17.71 141.57 17.83L142.13 18.55ZM155.384 9.42L154.914 10.24L153.224 9.25C153.104 9.17667 152.994 9.10333 152.894 9.03C152.794 8.95 152.708 8.85667 152.634 8.75C152.734 8.98333 152.784 9.23333 152.784 9.5V11.44H151.834V9.51C151.834 9.37667 151.841 9.25333 151.854 9.14C151.874 9.02 151.911 8.90333 151.964 8.79C151.891 8.88333 151.808 8.96667 151.714 9.04C151.621 9.11333 151.518 9.18333 151.404 9.25L149.724 10.23L149.254 9.41L150.934 8.43C151.054 8.36333 151.171 8.31 151.284 8.27C151.398 8.22333 151.518 8.19333 151.644 8.18C151.391 8.14667 151.154 8.06 150.934 7.92L149.244 6.93L149.714 6.11L151.404 7.1C151.524 7.17333 151.631 7.25 151.724 7.33C151.824 7.41 151.911 7.50333 151.984 7.61C151.931 7.49667 151.891 7.37667 151.864 7.25C151.844 7.12333 151.834 6.99333 151.834 6.86V4.91H152.784V6.84C152.784 6.97333 152.774 7.10333 152.754 7.23C152.741 7.35 152.711 7.46667 152.664 7.58C152.738 7.48 152.821 7.39333 152.914 7.32C153.008 7.24667 153.111 7.17333 153.224 7.1L154.904 6.13L155.374 6.95L153.694 7.92C153.581 7.98667 153.468 8.04333 153.354 8.09C153.248 8.13667 153.134 8.16667 153.014 8.18C153.241 8.20667 153.468 8.29 153.694 8.43L155.384 9.42Z" fill="#333333"/>
<path d="M10.181 8.89091C10.2633 8.89091 10.3456 8.84977 10.4073 8.78806C10.4278 8.76749 10.4484 8.72635 10.469 8.68521C10.5101 8.5618 10.4895 8.43838 10.4073 8.33553L8.57657 6.29914C8.51486 6.23743 8.43258 6.19629 8.32973 6.19629C8.24745 6.19629 8.14461 6.23743 8.0829 6.29914L6.2522 8.33553C6.16992 8.43838 6.14935 8.5618 6.19049 8.68521C6.23163 8.80863 6.35505 8.87034 6.47847 8.87034H7.46581V14.6298H6.47847C6.35505 14.6298 6.23163 14.7121 6.19049 14.815C6.14935 14.9384 6.16992 15.0618 6.2522 15.1646L8.0829 17.201C8.14461 17.2627 8.22688 17.3039 8.32973 17.3039C8.41201 17.3039 8.49429 17.2627 8.556 17.201C8.556 17.201 8.556 17.201 8.57657 17.1805L10.4073 15.1441C10.4895 15.0412 10.5101 14.9178 10.469 14.7944C10.4278 14.671 10.3044 14.6093 10.181 14.6093H9.19366V8.89091H10.181Z" fill="#999999"/>
<path d="M13 2.98734V2.26741C13 2.12342 12.8766 2 12.7326 2H0.267405C0.123418 2 0 2.12342 0 2.26741V21.2737C0 21.4177 0.123418 21.5411 0.267405 21.5411H12.7326C12.8766 21.5411 13 21.4177 13 21.2737V20.5538C13 20.4098 12.8766 20.2864 12.7326 20.2864H1.25475V18.4763H4.25791C4.4019 18.4763 4.52532 18.3528 4.52532 18.2089V17.4889C4.52532 17.3449 4.4019 17.2215 4.25791 17.2215H1.25475V15.4114H3.37342C3.5174 15.4114 3.64082 15.288 3.64082 15.144V14.4241C3.64082 14.2801 3.5174 14.1566 3.37342 14.1566H1.25475V12.3877H3.37342C3.5174 12.3877 3.64082 12.2642 3.64082 12.1203V11.4003C3.64082 11.2563 3.5174 11.1329 3.37342 11.1329H1.25475V9.32278H3.37342C3.5174 9.32278 3.64082 9.19937 3.64082 9.05538V8.33544C3.64082 8.19146 3.5174 8.06804 3.37342 8.06804H1.25475V6.25791H4.25791C4.4019 6.25791 4.52532 6.13449 4.52532 5.99051V5.27057C4.52532 5.12658 4.4019 5.00316 4.25791 5.00316H1.25475V3.23418H12.7326C12.8766 3.23418 13 3.13133 13 2.98734Z" fill="#999999"/>
</svg>
