<svg width="14" height="16" viewBox="0 0 14 16" fill="none" xmlns="http://www.w3.org/2000/svg">
<path d="M13.6409 2.27007L11.7884 0.215491C11.6647 0.0782909 11.4889 0 11.3044 0H2.50501C2.3206 0 2.14478 0.0782909 2.02106 0.215491L0.168567 2.27007C0.0795708 2.36876 0.024977 2.48978 0.00688776 2.61622H8.77041e-10V13.4872C-3.625e-05 14.8727 1.1237 16 2.50501 16H11.3045C12.6858 16 13.8095 14.8727 13.8095 13.4872V2.70913H13.8092C13.8092 2.54993 13.7516 2.3928 13.6409 2.27007ZM2.79465 1.30909H11.0148L11.687 2.05458H2.12249L2.79465 1.30909ZM11.3045 14.6909H2.50501C1.84332 14.6909 1.305 14.1509 1.305 13.4872V3.36367H12.5045V13.4872C12.5045 14.1509 11.9662 14.6909 11.3045 14.6909Z" fill="#333333"/>
<path d="M9.7567 4.97168C9.39633 4.97168 9.10418 5.26473 9.10418 5.62623V7.45583C9.10418 8.67288 8.11711 9.66302 6.90383 9.66302C5.69055 9.66302 4.70347 8.67288 4.70347 7.45583V5.62626C4.70347 5.26477 4.41132 4.97172 4.05095 4.97172C3.69058 4.97172 3.39844 5.26477 3.39844 5.62626V7.45583C3.39844 9.3947 4.97096 10.9721 6.90383 10.9721C8.83669 10.9721 10.4092 9.39473 10.4092 7.45583V5.62623C10.4092 5.26477 10.1171 4.97168 9.7567 4.97168Z" fill="#333333"/>
</svg>
