<svg width="101" height="104" viewBox="0 0 101 104" fill="none" xmlns="http://www.w3.org/2000/svg">
<path d="M73.6104 90.0577C75.9314 90.0577 77.8154 91.9399 77.8154 94.2627C77.8154 96.5763 75.9315 98.4585 73.6104 98.4585C71.2942 98.4585 69.4128 96.578 69.4128 94.2627C69.4128 91.9399 71.2884 90.0577 73.6104 90.0577ZM73.6104 85.0635C68.5318 85.0635 64.418 89.179 64.418 94.2633C64.418 99.3385 68.5318 103.454 73.6104 103.454C78.6938 103.454 82.8102 99.3385 82.8102 94.2633C82.8086 89.179 78.6921 85.0635 73.6104 85.0635Z" fill="#696969"/>
<path d="M43.6084 90.0577C45.9295 90.0577 47.8134 91.9399 47.8134 94.2627C47.8134 96.5763 45.9295 98.4585 43.6084 98.4585C41.2923 98.4585 39.4085 96.578 39.4085 94.2627C39.4085 91.9399 41.2841 90.0577 43.6084 90.0577ZM43.6084 85.0635C38.5298 85.0635 34.416 89.179 34.416 94.2633C34.416 99.3385 38.5298 103.454 43.6084 103.454C48.6836 103.454 52.8059 99.3385 52.8059 94.2633C52.8051 89.179 48.6904 85.0635 43.6084 85.0635Z" fill="#696969"/>
<path d="M2.57581 0.00195312C2.493 0.00195312 2.40274 0.00195312 2.32159 0.00857773C-0.1593 0.179989 -0.886416 3.48411 1.29975 4.68057L11.1514 10.2584C12.0433 10.7594 12.6892 11.5908 12.9649 12.572L29.37 71.2629C30.9566 76.9244 36.1428 80.8744 42.0305 80.8744H83.2854C86.6094 80.8744 86.6094 75.887 83.2854 75.887L42.0284 75.8878C38.36 75.8878 35.1653 73.4624 34.1766 69.9248L33.3874 67.0943H76.6117C82.8231 67.0943 88.3183 63.021 90.1267 57.0722L95.7378 38.6062L99.9221 24.8312C100.89 21.6514 96.1245 20.1932 95.1566 23.3746L90.965 37.1621L85.3589 55.6215C84.1839 59.4903 80.653 62.1062 76.6128 62.1062L31.9851 62.1071L17.7695 11.2364C17.1459 8.98237 15.6422 7.0713 13.601 5.91682L3.7552 0.344728C3.39912 0.132741 2.99253 0.0159784 2.57437 0.00355591L2.57581 0.00195312Z" fill="#696969"/>
<path d="M58.2574 8.82787C68.6986 8.82787 77.1078 17.2444 77.1078 27.6865C77.1078 38.1294 68.6986 46.5385 58.2574 46.5385C47.8162 46.5385 39.4071 38.1294 39.4071 27.6865C39.4071 17.2453 47.8162 8.82787 58.2574 8.82787ZM58.2574 3.84277C45.1208 3.84277 34.4258 14.5507 34.4258 27.6871C34.4258 40.8303 45.122 51.5251 58.2574 51.5251C71.3989 51.5251 82.0954 40.8289 82.0954 27.6871C82.0954 14.5505 71.3992 3.84277 58.2574 3.84277Z" fill="#696969"/>
<path d="M50.3504 17.2708C48.1097 17.2708 47.0042 19.9984 48.6189 21.5586L54.7409 27.6789L48.6189 33.7943C47.5937 34.764 47.573 36.378 48.57 37.3667C49.5596 38.3613 51.1752 38.3348 52.1431 37.3179L58.2651 31.2042L64.3788 37.3179C65.3468 38.3348 66.9625 38.3613 67.9518 37.3667C68.9414 36.3772 68.9199 34.7633 67.903 33.7943L61.7893 27.6789L67.903 21.5586C69.5442 19.9704 68.37 17.2029 66.097 17.2708C65.4428 17.2931 64.8316 17.5664 64.3779 18.0342L58.2641 24.1545L52.1422 18.0342C51.6693 17.5465 51.0226 17.2708 50.3502 17.2708H50.3504Z" fill="#696969"/>
</svg>
