<svg width="481" height="108" viewBox="0 0 481 108" fill="none" xmlns="http://www.w3.org/2000/svg">
<path d="M116.393 25V0.417998H124.876C126.485 0.417998 127.857 0.570999 128.99 0.876999C130.135 1.183 131.07 1.61933 131.795 2.186C132.532 2.75267 133.07 3.43833 133.41 4.243C133.75 5.04767 133.92 5.95433 133.92 6.963C133.92 7.541 133.835 8.09633 133.665 8.629C133.495 9.15033 133.229 9.64333 132.866 10.108C132.515 10.5613 132.061 10.975 131.506 11.349C130.962 11.723 130.31 12.0403 129.551 12.301C132.928 13.0603 134.617 14.885 134.617 17.775C134.617 18.8177 134.419 19.781 134.022 20.665C133.625 21.549 133.047 22.314 132.288 22.96C131.529 23.5947 130.594 24.0933 129.483 24.456C128.372 24.8187 127.103 25 125.675 25H116.393ZM120.966 14.222V21.43H125.607C126.457 21.43 127.165 21.328 127.732 21.124C128.31 20.92 128.769 20.648 129.109 20.308C129.46 19.968 129.71 19.5713 129.857 19.118C130.016 18.6647 130.095 18.183 130.095 17.673C130.095 17.1403 130.01 16.6643 129.84 16.245C129.67 15.8143 129.404 15.4517 129.041 15.157C128.678 14.851 128.214 14.6187 127.647 14.46C127.08 14.3013 126.395 14.222 125.59 14.222H120.966ZM120.966 11.06H124.621C126.174 11.06 127.352 10.7767 128.157 10.21C128.962 9.64333 129.364 8.74233 129.364 7.507C129.364 6.22633 129.001 5.314 128.276 4.77C127.551 4.226 126.417 3.954 124.876 3.954H120.966V11.06ZM148.434 21.311C149.318 21.311 150.105 21.1637 150.797 20.869C151.499 20.5743 152.089 20.1607 152.565 19.628C153.052 19.0953 153.42 18.4493 153.67 17.69C153.93 16.9307 154.061 16.0807 154.061 15.14V0.417998H158.634V15.14C158.634 16.602 158.396 17.9563 157.92 19.203C157.455 20.4383 156.781 21.5093 155.897 22.416C155.013 23.3113 153.942 24.014 152.684 24.524C151.426 25.0227 150.009 25.272 148.434 25.272C146.858 25.272 145.442 25.0227 144.184 24.524C142.926 24.014 141.855 23.3113 140.971 22.416C140.098 21.5093 139.424 20.4383 138.948 19.203C138.483 17.9563 138.251 16.602 138.251 15.14V0.417998H142.824V15.123C142.824 16.0637 142.948 16.9137 143.198 17.673C143.458 18.4323 143.827 19.084 144.303 19.628C144.779 20.1607 145.362 20.5743 146.054 20.869C146.756 21.1637 147.55 21.311 148.434 21.311ZM174.207 15.446V25H169.634V15.446L160.675 0.417998H164.704C165.101 0.417998 165.412 0.514332 165.639 0.707C165.877 0.899666 166.075 1.14333 166.234 1.438L170.739 9.649C171 10.1363 171.226 10.601 171.419 11.043C171.612 11.4737 171.787 11.8987 171.946 12.318C172.093 11.8873 172.258 11.4567 172.439 11.026C172.632 10.584 172.858 10.125 173.119 9.649L177.59 1.438C177.715 1.18867 177.902 0.956332 178.151 0.740999C178.4 0.525665 178.718 0.417998 179.103 0.417998H183.149L174.207 15.446ZM209.419 0.417998V4.175H202.024V25H197.451V4.175H190.022V0.417998H209.419ZM233.057 25H228.45V14.256H216.924V25H212.317V0.417998H216.924V10.992H228.45V0.417998H233.057V25ZM243.167 25H238.577V0.417998H243.167V25ZM261.883 4.889C261.758 5.13833 261.611 5.314 261.441 5.416C261.282 5.518 261.089 5.569 260.863 5.569C260.636 5.569 260.381 5.484 260.098 5.314C259.814 5.13267 259.48 4.93433 259.095 4.719C258.709 4.50367 258.256 4.311 257.735 4.141C257.225 3.95967 256.618 3.869 255.916 3.869C255.281 3.869 254.726 3.94833 254.25 4.107C253.785 4.25433 253.388 4.464 253.06 4.736C252.742 5.008 252.504 5.33667 252.346 5.722C252.187 6.096 252.108 6.50967 252.108 6.963C252.108 7.541 252.266 8.02267 252.584 8.408C252.912 8.79333 253.343 9.122 253.876 9.394C254.408 9.666 255.015 9.90967 255.695 10.125C256.375 10.3403 257.066 10.5727 257.769 10.822C258.483 11.06 259.18 11.3433 259.86 11.672C260.54 11.9893 261.146 12.3973 261.679 12.896C262.211 13.3833 262.636 13.984 262.954 14.698C263.282 15.412 263.447 16.279 263.447 17.299C263.447 18.4097 263.254 19.4523 262.869 20.427C262.495 21.3903 261.939 22.2347 261.203 22.96C260.477 23.674 259.588 24.2407 258.534 24.66C257.48 25.068 256.273 25.272 254.913 25.272C254.131 25.272 253.36 25.1927 252.601 25.034C251.841 24.8867 251.11 24.6713 250.408 24.388C249.716 24.1047 249.065 23.7647 248.453 23.368C247.852 22.9713 247.314 22.5293 246.838 22.042L248.164 19.849C248.288 19.6903 248.436 19.56 248.606 19.458C248.787 19.3447 248.985 19.288 249.201 19.288C249.484 19.288 249.79 19.407 250.119 19.645C250.447 19.8717 250.833 20.1267 251.275 20.41C251.728 20.6933 252.255 20.954 252.856 21.192C253.468 21.4187 254.199 21.532 255.049 21.532C256.352 21.532 257.361 21.226 258.075 20.614C258.789 19.9907 259.146 19.101 259.146 17.945C259.146 17.299 258.981 16.772 258.653 16.364C258.335 15.956 257.91 15.616 257.378 15.344C256.845 15.0607 256.239 14.8227 255.559 14.63C254.879 14.4373 254.187 14.2277 253.485 14.001C252.782 13.7743 252.091 13.5023 251.411 13.185C250.731 12.8677 250.124 12.454 249.592 11.944C249.059 11.434 248.628 10.7993 248.3 10.04C247.982 9.26933 247.824 8.323 247.824 7.201C247.824 6.30567 247.999 5.433 248.351 4.583C248.713 3.733 249.235 2.97933 249.915 2.322C250.606 1.66467 251.45 1.13767 252.448 0.740999C253.445 0.344333 254.584 0.146 255.865 0.146C257.315 0.146 258.653 0.372666 259.877 0.825999C261.101 1.27933 262.143 1.914 263.005 2.73L261.883 4.889ZM275.907 0.417998C276.111 0.417998 276.281 0.429332 276.417 0.451998C276.553 0.463332 276.672 0.497332 276.774 0.553999C276.888 0.599333 276.995 0.672999 277.097 0.774999C277.199 0.865666 277.313 0.990332 277.437 1.149L290.34 17.588C290.295 17.1913 290.261 16.806 290.238 16.432C290.227 16.0467 290.221 15.6897 290.221 15.361V0.417998H294.25V25H291.887C291.525 25 291.224 24.9433 290.986 24.83C290.748 24.7167 290.516 24.5127 290.289 24.218L277.437 7.847C277.471 8.20967 277.494 8.57233 277.505 8.935C277.528 9.28633 277.539 9.60933 277.539 9.904V25H273.51V0.417998H275.907ZM322.789 12.709C322.789 14.511 322.488 16.1827 321.888 17.724C321.287 19.254 320.443 20.58 319.355 21.702C318.267 22.824 316.958 23.7023 315.428 24.337C313.898 24.9603 312.203 25.272 310.345 25.272C308.486 25.272 306.786 24.9603 305.245 24.337C303.715 23.7023 302.4 22.824 301.301 21.702C300.213 20.58 299.368 19.254 298.768 17.724C298.167 16.1827 297.867 14.511 297.867 12.709C297.867 10.907 298.167 9.241 298.768 7.711C299.368 6.16967 300.213 4.838 301.301 3.716C302.4 2.594 303.715 1.72133 305.245 1.098C306.786 0.463333 308.486 0.146 310.345 0.146C312.203 0.146 313.898 0.463333 315.428 1.098C316.958 1.73267 318.267 2.611 319.355 3.733C320.443 4.84367 321.287 6.16967 321.888 7.711C322.488 9.241 322.789 10.907 322.789 12.709ZM318.097 12.709C318.097 11.3603 317.915 10.1533 317.553 9.088C317.201 8.01133 316.691 7.099 316.023 6.351C315.354 5.603 314.538 5.03067 313.575 4.634C312.623 4.23733 311.546 4.039 310.345 4.039C309.143 4.039 308.061 4.23733 307.098 4.634C306.134 5.03067 305.313 5.603 304.633 6.351C303.964 7.099 303.448 8.01133 303.086 9.088C302.723 10.1533 302.542 11.3603 302.542 12.709C302.542 14.0577 302.723 15.2703 303.086 16.347C303.448 17.4123 303.964 18.319 304.633 19.067C305.313 19.8037 306.134 20.3703 307.098 20.767C308.061 21.1637 309.143 21.362 310.345 21.362C311.546 21.362 312.623 21.1637 313.575 20.767C314.538 20.3703 315.354 19.8037 316.023 19.067C316.691 18.319 317.201 17.4123 317.553 16.347C317.915 15.2703 318.097 14.0577 318.097 12.709ZM324.125 0.417998H327.967C328.364 0.417998 328.692 0.514332 328.953 0.707C329.225 0.888332 329.406 1.13766 329.497 1.455L333.679 16.16C333.781 16.5227 333.872 16.9193 333.951 17.35C334.042 17.7693 334.127 18.217 334.206 18.693C334.297 18.217 334.393 17.7693 334.495 17.35C334.608 16.9193 334.727 16.5227 334.852 16.16L339.68 1.455C339.771 1.19433 339.946 0.956332 340.207 0.740999C340.479 0.525665 340.808 0.417998 341.193 0.417998H342.536C342.933 0.417998 343.261 0.514332 343.522 0.707C343.783 0.888332 343.964 1.13766 344.066 1.455L348.86 16.16C349.109 16.8853 349.325 17.69 349.506 18.574C349.585 18.132 349.665 17.707 349.744 17.299C349.835 16.891 349.925 16.5113 350.016 16.16L354.198 1.455C354.277 1.17167 354.453 0.927999 354.725 0.723998C354.997 0.519998 355.326 0.417998 355.711 0.417998H359.298L351.665 25H347.534L342.162 8.204C342.094 7.98867 342.02 7.75633 341.941 7.507C341.873 7.25767 341.805 6.99133 341.737 6.708C341.669 6.99133 341.595 7.25767 341.516 7.507C341.448 7.75633 341.38 7.98867 341.312 8.204L335.889 25H331.758L324.125 0.417998ZM239.135 41.146C240.133 41.146 241.022 41.299 241.804 41.605C242.598 41.911 243.272 42.319 243.827 42.829C244.394 43.339 244.836 43.9227 245.153 44.58C245.482 45.2373 245.675 45.9173 245.731 46.62L243.062 47.181C243.028 47.1923 242.989 47.198 242.943 47.198C242.909 47.198 242.875 47.198 242.841 47.198C242.649 47.198 242.473 47.147 242.314 47.045C242.167 46.9317 242.048 46.7617 241.957 46.535C241.855 46.2403 241.725 45.9627 241.566 45.702C241.408 45.43 241.215 45.1977 240.988 45.005C240.762 44.801 240.495 44.6423 240.189 44.529C239.883 44.4043 239.532 44.342 239.135 44.342C238.659 44.342 238.234 44.427 237.86 44.597C237.486 44.7557 237.169 44.9767 236.908 45.26C236.648 45.532 236.449 45.855 236.313 46.229C236.177 46.5917 236.109 46.977 236.109 47.385C236.109 47.725 236.143 48.0537 236.211 48.371C236.291 48.6883 236.41 49.0057 236.568 49.323C236.727 49.6403 236.931 49.969 237.18 50.309C237.441 50.6377 237.758 50.9947 238.132 51.38L244.66 58.163C245.034 57.449 245.335 56.6953 245.561 55.902C245.788 55.1087 245.935 54.304 246.003 53.488C246.026 53.2273 246.111 53.0177 246.258 52.859C246.406 52.7003 246.61 52.621 246.87 52.621H249.505C249.494 54.117 249.279 55.545 248.859 56.905C248.44 58.265 247.839 59.5173 247.057 60.662L252.208 66H248.094C247.879 66 247.686 65.9887 247.516 65.966C247.358 65.9433 247.205 65.9037 247.057 65.847C246.91 65.779 246.768 65.694 246.632 65.592C246.496 65.49 246.355 65.3597 246.207 65.201L244.507 63.45C243.419 64.334 242.207 65.0253 240.869 65.524C239.543 66.0227 238.104 66.272 236.551 66.272C235.599 66.272 234.67 66.1133 233.763 65.796C232.857 65.4673 232.046 64.997 231.332 64.385C230.618 63.773 230.04 63.0363 229.598 62.175C229.168 61.3023 228.952 60.322 228.952 59.234C228.952 58.4747 229.077 57.755 229.326 57.075C229.576 56.3837 229.921 55.7433 230.363 55.154C230.805 54.5647 231.327 54.032 231.927 53.556C232.539 53.08 233.208 52.672 233.933 52.332C233.333 51.482 232.891 50.6547 232.607 49.85C232.335 49.034 232.199 48.2237 232.199 47.419C232.199 46.569 232.352 45.7643 232.658 45.005C232.976 44.2343 233.429 43.5657 234.018 42.999C234.619 42.4323 235.35 41.9847 236.211 41.656C237.073 41.316 238.047 41.146 239.135 41.146ZM233.219 58.894C233.219 59.5173 233.327 60.0783 233.542 60.577C233.758 61.0757 234.052 61.5007 234.426 61.852C234.8 62.192 235.231 62.4583 235.718 62.651C236.217 62.8323 236.744 62.923 237.299 62.923C238.297 62.923 239.203 62.77 240.019 62.464C240.847 62.1467 241.6 61.7103 242.28 61.155L235.82 54.525C234.914 55.1143 234.251 55.7773 233.831 56.514C233.423 57.2507 233.219 58.044 233.219 58.894ZM13.2713 96.8C13.4639 97.1627 13.6396 97.5423 13.7983 97.939C13.9683 98.3243 14.1326 98.7153 14.2913 99.112C14.4499 98.704 14.6143 98.3017 14.7843 97.905C14.9543 97.5083 15.1356 97.1287 15.3283 96.766L22.6043 83.149C22.6949 82.979 22.7856 82.843 22.8763 82.741C22.9783 82.639 23.0859 82.5653 23.1993 82.52C23.3239 82.4747 23.4599 82.4463 23.6073 82.435C23.7546 82.4237 23.9303 82.418 24.1343 82.418H27.5853V107H23.5563V91.122C23.5563 90.8273 23.5619 90.5043 23.5733 90.153C23.5959 89.8017 23.6243 89.4447 23.6583 89.082L16.2293 103.022C16.0593 103.339 15.8383 103.589 15.5663 103.77C15.2943 103.94 14.9769 104.025 14.6143 104.025H13.9853C13.6226 104.025 13.3053 103.94 13.0333 103.77C12.7613 103.589 12.5403 103.339 12.3703 103.022L4.83927 89.031C4.8846 89.405 4.91293 89.7733 4.92427 90.136C4.94693 90.4873 4.95827 90.816 4.95827 91.122V107H0.929266V82.418H4.38027C4.58427 82.418 4.75993 82.4237 4.90727 82.435C5.0546 82.4463 5.18493 82.4747 5.29827 82.52C5.42293 82.5653 5.53627 82.639 5.63827 82.741C5.74027 82.843 5.8366 82.979 5.92727 83.149L13.2713 96.8ZM54.1456 107H50.6096C50.213 107 49.8843 106.904 49.6236 106.711C49.3743 106.507 49.193 106.258 49.0796 105.963L47.2436 100.948H37.0606L35.2246 105.963C35.134 106.224 34.9526 106.462 34.6806 106.677C34.42 106.892 34.097 107 33.7116 107H30.1586L39.8146 82.418H44.4896L54.1456 107ZM38.2336 97.718H46.0706L43.0786 89.541C42.9426 89.1783 42.7896 88.7533 42.6196 88.266C42.461 87.7673 42.3023 87.229 42.1436 86.651C41.985 87.229 41.8263 87.7673 41.6676 88.266C41.5203 88.7647 41.373 89.201 41.2256 89.575L38.2336 97.718ZM61.4033 92.72H62.4743C62.905 92.72 63.262 92.6633 63.5453 92.55C63.8286 92.4253 64.0723 92.2327 64.2763 91.972L71.0593 83.387C71.3426 83.0243 71.6373 82.775 71.9433 82.639C72.2606 82.4917 72.6573 82.418 73.1333 82.418H77.0773L68.7983 92.635C68.5376 92.9523 68.2883 93.2187 68.0503 93.434C67.8123 93.6493 67.5573 93.825 67.2853 93.961C67.6593 94.097 67.9936 94.2897 68.2883 94.539C68.5943 94.7883 68.889 95.1057 69.1723 95.491L77.7063 107H73.6603C73.1163 107 72.7083 106.926 72.4363 106.779C72.1756 106.62 71.9546 106.394 71.7733 106.099L64.8203 97.021C64.5936 96.7263 64.3386 96.5167 64.0553 96.392C63.772 96.256 63.3696 96.188 62.8483 96.188H61.4033V107H56.8303V82.401H61.4033V92.72ZM95.9215 82.418V86.056H85.0245V92.873H93.6095V96.392H85.0245V103.345H95.9215V107H80.4175V82.418H95.9215ZM121.953 82.418V86.056H111.056V93.332H120.253V96.987H111.056V107H106.449V82.418H121.953ZM144.657 107H141.121C140.725 107 140.396 106.904 140.135 106.711C139.886 106.507 139.705 106.258 139.591 105.963L137.755 100.948H127.572L125.736 105.963C125.646 106.224 125.464 106.462 125.192 106.677C124.932 106.892 124.609 107 124.223 107H120.67L130.326 82.418H135.001L144.657 107ZM128.745 97.718H136.582L133.59 89.541C133.454 89.1783 133.301 88.7533 133.131 88.266C132.973 87.7673 132.814 87.229 132.655 86.651C132.497 87.229 132.338 87.7673 132.179 88.266C132.032 88.7647 131.885 89.201 131.737 89.575L128.745 97.718ZM160.364 86.889C160.239 87.1383 160.092 87.314 159.922 87.416C159.763 87.518 159.571 87.569 159.344 87.569C159.117 87.569 158.862 87.484 158.579 87.314C158.296 87.1327 157.961 86.9343 157.576 86.719C157.191 86.5037 156.737 86.311 156.216 86.141C155.706 85.9597 155.1 85.869 154.397 85.869C153.762 85.869 153.207 85.9483 152.731 86.107C152.266 86.2543 151.87 86.464 151.541 86.736C151.224 87.008 150.986 87.3367 150.827 87.722C150.668 88.096 150.589 88.5097 150.589 88.963C150.589 89.541 150.748 90.0227 151.065 90.408C151.394 90.7933 151.824 91.122 152.357 91.394C152.89 91.666 153.496 91.9097 154.176 92.125C154.856 92.3403 155.547 92.5727 156.25 92.822C156.964 93.06 157.661 93.3433 158.341 93.672C159.021 93.9893 159.627 94.3973 160.16 94.896C160.693 95.3833 161.118 95.984 161.435 96.698C161.764 97.412 161.928 98.279 161.928 99.299C161.928 100.41 161.735 101.452 161.35 102.427C160.976 103.39 160.421 104.235 159.684 104.96C158.959 105.674 158.069 106.241 157.015 106.66C155.961 107.068 154.754 107.272 153.394 107.272C152.612 107.272 151.841 107.193 151.082 107.034C150.323 106.887 149.592 106.671 148.889 106.388C148.198 106.105 147.546 105.765 146.934 105.368C146.333 104.971 145.795 104.529 145.319 104.042L146.645 101.849C146.77 101.69 146.917 101.56 147.087 101.458C147.268 101.345 147.467 101.288 147.682 101.288C147.965 101.288 148.271 101.407 148.6 101.645C148.929 101.872 149.314 102.127 149.756 102.41C150.209 102.693 150.736 102.954 151.337 103.192C151.949 103.419 152.68 103.532 153.53 103.532C154.833 103.532 155.842 103.226 156.556 102.614C157.27 101.991 157.627 101.101 157.627 99.945C157.627 99.299 157.463 98.772 157.134 98.364C156.817 97.956 156.392 97.616 155.859 97.344C155.326 97.0607 154.72 96.8227 154.04 96.63C153.36 96.4373 152.669 96.2277 151.966 96.001C151.263 95.7743 150.572 95.5023 149.892 95.185C149.212 94.8677 148.606 94.454 148.073 93.944C147.54 93.434 147.11 92.7993 146.781 92.04C146.464 91.2693 146.305 90.323 146.305 89.201C146.305 88.3057 146.481 87.433 146.832 86.583C147.195 85.733 147.716 84.9793 148.396 84.322C149.087 83.6647 149.932 83.1377 150.929 82.741C151.926 82.3443 153.065 82.146 154.346 82.146C155.797 82.146 157.134 82.3727 158.358 82.826C159.582 83.2793 160.625 83.914 161.486 84.73L160.364 86.889ZM186.158 107H181.551V96.256H170.025V107H165.418V82.418H170.025V92.992H181.551V82.418H186.158V107ZM196.268 107H191.678V82.418H196.268V107ZM225.387 94.709C225.387 96.511 225.087 98.1827 224.486 99.724C223.886 101.254 223.041 102.58 221.953 103.702C220.865 104.824 219.556 105.702 218.026 106.337C216.496 106.96 214.802 107.272 212.943 107.272C211.085 107.272 209.385 106.96 207.843 106.337C206.313 105.702 204.999 104.824 203.899 103.702C202.811 102.58 201.967 101.254 201.366 99.724C200.766 98.1827 200.465 96.511 200.465 94.709C200.465 92.907 200.766 91.241 201.366 89.711C201.967 88.1697 202.811 86.838 203.899 85.716C204.999 84.594 206.313 83.7213 207.843 83.098C209.385 82.4633 211.085 82.146 212.943 82.146C214.802 82.146 216.496 82.4633 218.026 83.098C219.556 83.7327 220.865 84.611 221.953 85.733C223.041 86.8437 223.886 88.1697 224.486 89.711C225.087 91.241 225.387 92.907 225.387 94.709ZM220.695 94.709C220.695 93.3603 220.514 92.1533 220.151 91.088C219.8 90.0113 219.29 89.099 218.621 88.351C217.953 87.603 217.137 87.0307 216.173 86.634C215.221 86.2373 214.145 86.039 212.943 86.039C211.742 86.039 210.66 86.2373 209.696 86.634C208.733 87.0307 207.911 87.603 207.231 88.351C206.563 89.099 206.047 90.0113 205.684 91.088C205.322 92.1533 205.14 93.3603 205.14 94.709C205.14 96.0577 205.322 97.2703 205.684 98.347C206.047 99.4123 206.563 100.319 207.231 101.067C207.911 101.804 208.733 102.37 209.696 102.767C210.66 103.164 211.742 103.362 212.943 103.362C214.145 103.362 215.221 103.164 216.173 102.767C217.137 102.37 217.953 101.804 218.621 101.067C219.29 100.319 219.8 99.4123 220.151 98.347C220.514 97.2703 220.695 96.0577 220.695 94.709ZM231.399 82.418C231.603 82.418 231.773 82.4293 231.909 82.452C232.045 82.4633 232.164 82.4973 232.266 82.554C232.379 82.5993 232.487 82.673 232.589 82.775C232.691 82.8657 232.804 82.9903 232.929 83.149L245.832 99.588C245.786 99.1913 245.752 98.806 245.73 98.432C245.718 98.0467 245.713 97.6897 245.713 97.361V82.418H249.742V107H247.379C247.016 107 246.716 106.943 246.478 106.83C246.24 106.717 246.007 106.513 245.781 106.218L232.929 89.847C232.963 90.2097 232.985 90.5723 232.997 90.935C233.019 91.2863 233.031 91.6093 233.031 91.904V107H229.002V82.418H231.399ZM274.45 86.889C274.325 87.1383 274.178 87.314 274.008 87.416C273.849 87.518 273.657 87.569 273.43 87.569C273.203 87.569 272.948 87.484 272.665 87.314C272.382 87.1327 272.047 86.9343 271.662 86.719C271.277 86.5037 270.823 86.311 270.302 86.141C269.792 85.9597 269.186 85.869 268.483 85.869C267.848 85.869 267.293 85.9483 266.817 86.107C266.352 86.2543 265.956 86.464 265.627 86.736C265.31 87.008 265.072 87.3367 264.913 87.722C264.754 88.096 264.675 88.5097 264.675 88.963C264.675 89.541 264.834 90.0227 265.151 90.408C265.48 90.7933 265.91 91.122 266.443 91.394C266.976 91.666 267.582 91.9097 268.262 92.125C268.942 92.3403 269.633 92.5727 270.336 92.822C271.05 93.06 271.747 93.3433 272.427 93.672C273.107 93.9893 273.713 94.3973 274.246 94.896C274.779 95.3833 275.204 95.984 275.521 96.698C275.85 97.412 276.014 98.279 276.014 99.299C276.014 100.41 275.821 101.452 275.436 102.427C275.062 103.39 274.507 104.235 273.77 104.96C273.045 105.674 272.155 106.241 271.101 106.66C270.047 107.068 268.84 107.272 267.48 107.272C266.698 107.272 265.927 107.193 265.168 107.034C264.409 106.887 263.678 106.671 262.975 106.388C262.284 106.105 261.632 105.765 261.02 105.368C260.419 104.971 259.881 104.529 259.405 104.042L260.731 101.849C260.856 101.69 261.003 101.56 261.173 101.458C261.354 101.345 261.553 101.288 261.768 101.288C262.051 101.288 262.357 101.407 262.686 101.645C263.015 101.872 263.4 102.127 263.842 102.41C264.295 102.693 264.822 102.954 265.423 103.192C266.035 103.419 266.766 103.532 267.616 103.532C268.919 103.532 269.928 103.226 270.642 102.614C271.356 101.991 271.713 101.101 271.713 99.945C271.713 99.299 271.549 98.772 271.22 98.364C270.903 97.956 270.478 97.616 269.945 97.344C269.412 97.0607 268.806 96.8227 268.126 96.63C267.446 96.4373 266.755 96.2277 266.052 96.001C265.349 95.7743 264.658 95.5023 263.978 95.185C263.298 94.8677 262.692 94.454 262.159 93.944C261.626 93.434 261.196 92.7993 260.867 92.04C260.55 91.2693 260.391 90.323 260.391 89.201C260.391 88.3057 260.567 87.433 260.918 86.583C261.281 85.733 261.802 84.9793 262.482 84.322C263.173 83.6647 264.018 83.1377 265.015 82.741C266.012 82.3443 267.151 82.146 268.432 82.146C269.883 82.146 271.22 82.3727 272.444 82.826C273.668 83.2793 274.711 83.914 275.572 84.73L274.45 86.889ZM289.397 103.311C290.281 103.311 291.069 103.164 291.76 102.869C292.463 102.574 293.052 102.161 293.528 101.628C294.016 101.095 294.384 100.449 294.633 99.69C294.894 98.9307 295.024 98.0807 295.024 97.14V82.418H299.597V97.14C299.597 98.602 299.359 99.9563 298.883 101.203C298.419 102.438 297.744 103.509 296.86 104.416C295.976 105.311 294.905 106.014 293.647 106.524C292.389 107.023 290.973 107.272 289.397 107.272C287.822 107.272 286.405 107.023 285.147 106.524C283.889 106.014 282.818 105.311 281.934 104.416C281.062 103.509 280.387 102.438 279.911 101.203C279.447 99.9563 279.214 98.602 279.214 97.14V82.418H283.787V97.123C283.787 98.0637 283.912 98.9137 284.161 99.673C284.422 100.432 284.79 101.084 285.266 101.628C285.742 102.161 286.326 102.574 287.017 102.869C287.72 103.164 288.513 103.311 289.397 103.311ZM317.415 86.889C317.29 87.1383 317.143 87.314 316.973 87.416C316.814 87.518 316.621 87.569 316.395 87.569C316.168 87.569 315.913 87.484 315.63 87.314C315.346 87.1327 315.012 86.9343 314.627 86.719C314.241 86.5037 313.788 86.311 313.267 86.141C312.757 85.9597 312.15 85.869 311.448 85.869C310.813 85.869 310.258 85.9483 309.782 86.107C309.317 86.2543 308.92 86.464 308.592 86.736C308.274 87.008 308.036 87.3367 307.878 87.722C307.719 88.096 307.64 88.5097 307.64 88.963C307.64 89.541 307.798 90.0227 308.116 90.408C308.444 90.7933 308.875 91.122 309.408 91.394C309.94 91.666 310.547 91.9097 311.227 92.125C311.907 92.3403 312.598 92.5727 313.301 92.822C314.015 93.06 314.712 93.3433 315.392 93.672C316.072 93.9893 316.678 94.3973 317.211 94.896C317.743 95.3833 318.168 95.984 318.486 96.698C318.814 97.412 318.979 98.279 318.979 99.299C318.979 100.41 318.786 101.452 318.401 102.427C318.027 103.39 317.471 104.235 316.735 104.96C316.009 105.674 315.12 106.241 314.066 106.66C313.012 107.068 311.805 107.272 310.445 107.272C309.663 107.272 308.892 107.193 308.133 107.034C307.373 106.887 306.642 106.671 305.94 106.388C305.248 106.105 304.597 105.765 303.985 105.368C303.384 104.971 302.846 104.529 302.37 104.042L303.696 101.849C303.82 101.69 303.968 101.56 304.138 101.458C304.319 101.345 304.517 101.288 304.733 101.288C305.016 101.288 305.322 101.407 305.651 101.645C305.979 101.872 306.365 102.127 306.807 102.41C307.26 102.693 307.787 102.954 308.388 103.192C309 103.419 309.731 103.532 310.581 103.532C311.884 103.532 312.893 103.226 313.607 102.614C314.321 101.991 314.678 101.101 314.678 99.945C314.678 99.299 314.513 98.772 314.185 98.364C313.867 97.956 313.442 97.616 312.91 97.344C312.377 97.0607 311.771 96.8227 311.091 96.63C310.411 96.4373 309.719 96.2277 309.017 96.001C308.314 95.7743 307.623 95.5023 306.943 95.185C306.263 94.8677 305.656 94.454 305.124 93.944C304.591 93.434 304.16 92.7993 303.832 92.04C303.514 91.2693 303.356 90.323 303.356 89.201C303.356 88.3057 303.531 87.433 303.883 86.583C304.245 85.733 304.767 84.9793 305.447 84.322C306.138 83.6647 306.982 83.1377 307.98 82.741C308.977 82.3443 310.116 82.146 311.397 82.146C312.847 82.146 314.185 82.3727 315.409 82.826C316.633 83.2793 317.675 83.914 318.537 84.73L317.415 86.889ZM339.791 82.418V86.175H332.396V107H327.823V86.175H320.394V82.418H339.791ZM361.806 107H358.27C357.873 107 357.544 106.904 357.284 106.711C357.034 106.507 356.853 106.258 356.74 105.963L354.904 100.948H344.721L342.885 105.963C342.794 106.224 342.613 106.462 342.341 106.677C342.08 106.892 341.757 107 341.372 107H337.819L347.475 82.418H352.15L361.806 107ZM345.894 97.718H353.731L350.739 89.541C350.603 89.1783 350.45 88.7533 350.28 88.266C350.121 87.7673 349.962 87.229 349.804 86.651C349.645 87.229 349.486 87.7673 349.328 88.266C349.18 88.7647 349.033 89.201 348.886 89.575L345.894 97.718ZM369.488 107H364.898V82.418H369.488V107ZM377.426 82.418C377.63 82.418 377.8 82.4293 377.936 82.452C378.072 82.4633 378.191 82.4973 378.293 82.554C378.406 82.5993 378.514 82.673 378.616 82.775C378.718 82.8657 378.831 82.9903 378.956 83.149L391.859 99.588C391.814 99.1913 391.78 98.806 391.757 98.432C391.746 98.0467 391.74 97.6897 391.74 97.361V82.418H395.769V107H393.406C393.043 107 392.743 106.943 392.505 106.83C392.267 106.717 392.035 106.513 391.808 106.218L378.956 89.847C378.99 90.2097 379.013 90.5723 379.024 90.935C379.047 91.2863 379.058 91.6093 379.058 91.904V107H375.029V82.418H377.426ZM422.335 107H418.799C418.402 107 418.074 106.904 417.813 106.711C417.564 106.507 417.382 106.258 417.269 105.963L415.433 100.948H405.25L403.414 105.963C403.323 106.224 403.142 106.462 402.87 106.677C402.609 106.892 402.286 107 401.901 107H398.348L408.004 82.418H412.679L422.335 107ZM406.423 97.718H414.26L411.268 89.541C411.132 89.1783 410.979 88.7533 410.809 88.266C410.65 87.7673 410.492 87.229 410.333 86.651C410.174 87.229 410.016 87.7673 409.857 88.266C409.71 88.7647 409.562 89.201 409.415 89.575L406.423 97.718ZM424.867 107V82.418H433.35C434.959 82.418 436.33 82.571 437.464 82.877C438.608 83.183 439.543 83.6193 440.269 84.186C441.005 84.7527 441.544 85.4383 441.884 86.243C442.224 87.0477 442.394 87.9543 442.394 88.963C442.394 89.541 442.309 90.0963 442.139 90.629C441.969 91.1503 441.702 91.6433 441.34 92.108C440.988 92.5613 440.535 92.975 439.98 93.349C439.436 93.723 438.784 94.0403 438.025 94.301C441.402 95.0603 443.091 96.885 443.091 99.775C443.091 100.818 442.892 101.781 442.496 102.665C442.099 103.549 441.521 104.314 440.762 104.96C440.002 105.595 439.067 106.093 437.957 106.456C436.846 106.819 435.577 107 434.149 107H424.867ZM429.44 96.222V103.43H434.081C434.931 103.43 435.639 103.328 436.206 103.124C436.784 102.92 437.243 102.648 437.583 102.308C437.934 101.968 438.183 101.571 438.331 101.118C438.489 100.665 438.569 100.183 438.569 99.673C438.569 99.1403 438.484 98.6643 438.314 98.245C438.144 97.8143 437.877 97.4517 437.515 97.157C437.152 96.851 436.687 96.6187 436.121 96.46C435.554 96.3013 434.868 96.222 434.064 96.222H429.44ZM429.44 93.06H433.095C434.647 93.06 435.826 92.7767 436.631 92.21C437.435 91.6433 437.838 90.7423 437.838 89.507C437.838 88.2263 437.475 87.314 436.75 86.77C436.024 86.226 434.891 85.954 433.35 85.954H429.44V93.06ZM451.586 103.226H461.429V107H447.013V82.418H451.586V103.226ZM480.082 82.418V86.056H469.185V92.873H477.77V96.392H469.185V103.345H480.082V107H464.578V82.418H480.082Z" fill="white"/>
</svg>
