<svg width="23" height="25" viewBox="0 0 23 25" fill="none" xmlns="http://www.w3.org/2000/svg">
<path d="M18.3715 22.9502C17.9221 22.9502 17.4704 22.9502 17.021 22.9502C15.9416 22.9502 14.8646 22.9502 13.7852 22.9502C12.4965 22.9502 11.2079 22.9502 9.9169 22.9502C8.80896 22.9502 7.70103 22.9502 6.59309 22.9502C6.08429 22.9502 5.57312 22.9527 5.06433 22.9502C4.97398 22.9502 4.88363 22.9425 4.79329 22.9323C4.8765 22.9451 4.96209 22.9579 5.04531 22.9681C4.8765 22.9425 4.71245 22.8964 4.55315 22.8272C4.62924 22.8605 4.70532 22.8964 4.7814 22.9297C4.61735 22.8554 4.46519 22.7606 4.32491 22.6428C4.3891 22.6966 4.4533 22.7504 4.51749 22.8042C4.38673 22.694 4.27023 22.5685 4.16799 22.4276C4.21792 22.4968 4.26785 22.566 4.31778 22.6351C4.21079 22.484 4.12044 22.3201 4.05149 22.1433C4.0824 22.2253 4.11569 22.3072 4.14659 22.3892C4.0824 22.2176 4.0396 22.0409 4.01583 21.859C4.02772 21.9486 4.0396 22.0409 4.04911 22.1305C4.02296 21.9025 4.03247 21.6694 4.03247 21.4415C4.03247 21.0316 4.03247 20.6218 4.03247 20.2119C4.03247 19.5895 4.03247 18.967 4.03247 18.3446C4.03247 17.5787 4.03247 16.8103 4.03247 16.0444C4.03247 15.2042 4.03247 14.364 4.03247 13.5238C4.03247 12.6683 4.03247 11.8127 4.03247 10.9598C4.03247 10.1606 4.03247 9.36138 4.03247 8.56219C4.03247 7.88851 4.03247 7.21483 4.03247 6.54372C4.03247 6.05703 4.03247 5.56778 4.03247 5.0811C4.03247 4.85056 4.03485 4.62002 4.03247 4.38949C4.03247 4.37924 4.03247 4.369 4.03247 4.35875C3.71626 4.69943 3.39767 5.04267 3.08145 5.38335C3.23599 5.38335 3.39053 5.38335 3.5427 5.38335C3.96115 5.38335 4.38197 5.38335 4.80042 5.38335C5.4162 5.38335 6.03437 5.38335 6.65015 5.38335C7.40621 5.38335 8.16227 5.38335 8.91833 5.38335C9.74571 5.38335 10.5755 5.38335 11.4029 5.38335C12.2398 5.38335 13.0743 5.38335 13.9112 5.38335C14.691 5.38335 15.4708 5.38335 16.2507 5.38335C16.9069 5.38335 17.5631 5.38335 18.2193 5.38335C18.6924 5.38335 19.1679 5.38335 19.6411 5.38335C19.8669 5.38335 20.0904 5.38592 20.3163 5.38335C20.3258 5.38335 20.3353 5.38335 20.3448 5.38335C20.0286 5.04267 19.71 4.69943 19.3938 4.35875C19.3938 4.51756 19.3938 4.67638 19.3938 4.83519C19.3938 5.26296 19.3938 5.6933 19.3938 6.12107C19.3938 6.75632 19.3938 7.39414 19.3938 8.02939C19.3938 8.80553 19.3938 9.57911 19.3938 10.3552C19.3938 11.198 19.3938 12.0407 19.3938 12.886C19.3938 13.739 19.3938 14.592 19.3938 15.445C19.3938 16.2365 19.3938 17.028 19.3938 17.8195C19.3938 18.4804 19.3938 19.1412 19.3938 19.8021C19.3938 20.2708 19.3938 20.7422 19.3938 21.2109C19.3938 21.4184 19.3938 21.6259 19.3938 21.8334C19.3938 21.9333 19.389 22.0306 19.3772 22.1305C19.389 22.0409 19.4009 21.9486 19.4104 21.859C19.3867 22.0409 19.3439 22.2176 19.2797 22.3892C19.3106 22.3072 19.3439 22.2253 19.3748 22.1433C19.3058 22.3201 19.2179 22.484 19.1085 22.6351C19.1584 22.566 19.2083 22.4968 19.2583 22.4276C19.156 22.5685 19.0395 22.694 18.9088 22.8042C18.973 22.7504 19.0372 22.6966 19.1014 22.6428C18.9611 22.7581 18.8089 22.8554 18.6449 22.9297C18.721 22.8964 18.797 22.8605 18.8731 22.8272C18.7138 22.8964 18.5498 22.9425 18.381 22.9681C18.4642 22.9553 18.5498 22.9425 18.633 22.9323C18.5474 22.9451 18.4594 22.9502 18.3715 22.9502C18.1266 22.9527 17.8722 23.0629 17.6986 23.2499C17.5346 23.4266 17.4085 23.7186 17.4204 23.9748C17.4442 24.5255 17.8389 25.0045 18.3715 24.9994C19.1656 24.9917 19.9668 24.6408 20.5041 24.003C21.0058 23.4087 21.2935 22.6505 21.2982 21.8436C21.3006 21.6361 21.2982 21.4261 21.2982 21.2186C21.2982 20.6986 21.2982 20.1786 21.2982 19.6612C21.2982 18.9132 21.2982 18.1653 21.2982 17.4173C21.2982 16.5336 21.2982 15.6524 21.2982 14.7687C21.2982 13.8338 21.2982 12.8988 21.2982 11.9664C21.2982 11.0622 21.2982 10.1606 21.2982 9.25636C21.2982 8.48022 21.2982 7.70152 21.2982 6.92538C21.2982 6.35417 21.2982 5.78295 21.2982 5.21173C21.2982 4.94021 21.3006 4.66613 21.2982 4.39461C21.2982 4.3818 21.2982 4.37156 21.2982 4.35875C21.2982 3.80546 20.8631 3.33415 20.3472 3.33415C20.1927 3.33415 20.0381 3.33415 19.8859 3.33415C19.4675 3.33415 19.0467 3.33415 18.6282 3.33415C18.0124 3.33415 17.3943 3.33415 16.7785 3.33415C16.0224 3.33415 15.2664 3.33415 14.5103 3.33415C13.6829 3.33415 12.8532 3.33415 12.0258 3.33415C11.1889 3.33415 10.3544 3.33415 9.51747 3.33415C8.73764 3.33415 7.9578 3.33415 7.17797 3.33415C6.52176 3.33415 5.86556 3.33415 5.20936 3.33415C4.73623 3.33415 4.26072 3.33415 3.78758 3.33415C3.56172 3.33415 3.33823 3.33158 3.11236 3.33415C3.10285 3.33415 3.09334 3.33415 3.08383 3.33415C2.57028 3.33415 2.13281 3.8029 2.13281 4.35875C2.13281 4.90179 2.13281 5.44227 2.13281 5.98531C2.13281 7.29168 2.13281 8.60061 2.13281 9.90698C2.13281 11.5207 2.13281 13.1319 2.13281 14.7457C2.13281 16.2109 2.13281 17.676 2.13281 19.1387C2.13281 19.9788 2.13281 20.8165 2.13281 21.6566C2.13281 22.2637 2.23029 22.8503 2.50609 23.3882C3.01964 24.3949 4.03723 24.9968 5.09286 24.9994C5.81801 24.9994 6.54316 24.9994 7.26831 24.9994C8.66631 24.9994 10.0667 24.9994 11.4647 24.9994C12.896 24.9994 14.3249 24.9994 15.7562 24.9994C16.5883 24.9994 17.4204 24.9994 18.2502 24.9994C18.2906 24.9994 18.331 24.9994 18.3715 24.9994C18.8684 24.9994 19.3462 24.5281 19.3225 23.9748C19.2987 23.4215 18.904 22.9502 18.3715 22.9502Z" fill="#E16452"/>
<path d="M14.3195 3.64651e-05C13.9124 3.64651e-05 13.503 3.64651e-05 13.0958 3.64651e-05C12.2931 3.64651e-05 11.488 3.64651e-05 10.6853 3.64651e-05C10.131 3.64651e-05 9.57663 3.64651e-05 9.0223 3.64651e-05C8.55538 3.64651e-05 8.07465 0.103804 7.68593 0.371295C7.02119 0.823262 6.61407 1.54041 6.60947 2.35211C6.60487 2.97933 6.60947 3.60655 6.60947 4.23377C6.60947 4.25452 6.60947 4.27528 6.60947 4.29603C6.60947 4.79412 7.03039 5.21841 7.52952 5.21841C7.80093 5.21841 8.07235 5.21841 8.34376 5.21841C8.997 5.21841 9.64794 5.21841 10.3012 5.21841C11.0947 5.21841 11.8883 5.21841 12.6818 5.21841C13.3649 5.21841 14.0458 5.21841 14.7289 5.21841C15.0601 5.21841 15.3937 5.22302 15.7249 5.21841C15.7295 5.21841 15.7341 5.21841 15.7387 5.21841C16.2355 5.21841 16.6587 4.79642 16.6587 4.29603C16.6587 3.84406 16.6587 3.38979 16.6587 2.93782C16.6587 2.74412 16.6587 2.55273 16.6587 2.35903C16.6564 1.77562 16.4471 1.25909 16.0837 0.809426C15.6582 0.288281 14.9773 0.00695433 14.3195 3.64651e-05C13.8388 -0.00457544 13.3765 0.428944 13.3995 0.922418C13.4225 1.42742 13.8043 1.84019 14.3195 1.8448C14.3839 1.8448 14.446 1.84941 14.5081 1.85633C14.4276 1.8448 14.3448 1.83327 14.2643 1.82405C14.3862 1.84249 14.5035 1.87247 14.6185 1.9209C14.5449 1.89092 14.4713 1.85864 14.3977 1.82866C14.5081 1.87708 14.6116 1.93704 14.7082 2.00852C14.6461 1.9601 14.584 1.91167 14.5219 1.86325C14.6254 1.94396 14.7151 2.03389 14.7956 2.13766C14.7473 2.07539 14.699 2.01313 14.6507 1.95087C14.722 2.04772 14.7818 2.15149 14.8301 2.26218C14.8002 2.18839 14.768 2.1146 14.7381 2.04081C14.7841 2.1561 14.8163 2.27371 14.8347 2.39592C14.8232 2.31521 14.8117 2.2322 14.8025 2.15149C14.8324 2.40515 14.814 2.67033 14.814 2.92399C14.814 3.29063 14.814 3.65959 14.814 4.02623C14.814 4.11616 14.814 4.20379 14.814 4.29372C15.1199 3.98703 15.4282 3.67803 15.7341 3.37134C15.4627 3.37134 15.1913 3.37134 14.9198 3.37134C14.2666 3.37134 13.6157 3.37134 12.9624 3.37134C12.1689 3.37134 11.3753 3.37134 10.5818 3.37134C9.89865 3.37134 9.21781 3.37134 8.53468 3.37134C8.20346 3.37134 7.86994 3.36442 7.53872 3.37134C7.53412 3.37134 7.52952 3.37134 7.52492 3.37134C7.83084 3.67803 8.13905 3.98703 8.44497 4.29372C8.44497 3.70109 8.44497 3.11077 8.44497 2.51814C8.44497 2.39592 8.44267 2.27371 8.45647 2.15149C8.44497 2.2322 8.43347 2.31521 8.42427 2.39592C8.44267 2.27371 8.47257 2.1561 8.52087 2.04081C8.49097 2.1146 8.45877 2.18839 8.42887 2.26218C8.47717 2.15149 8.53698 2.04772 8.60828 1.95087C8.55998 2.01313 8.51167 2.07539 8.46337 2.13766C8.54388 2.03389 8.63358 1.94396 8.73709 1.86325C8.67498 1.91167 8.61288 1.9601 8.55078 2.00852C8.64738 1.93704 8.75089 1.87708 8.86129 1.82866C8.78769 1.85864 8.71409 1.89092 8.64048 1.9209C8.75549 1.87478 8.87279 1.84249 8.9947 1.82405C8.9142 1.83558 8.83139 1.84711 8.75089 1.85633C8.9671 1.82866 9.19251 1.8448 9.41102 1.8448C9.83425 1.8448 10.2575 1.8448 10.6807 1.8448C11.6629 1.8448 12.645 1.8448 13.6295 1.8448C13.8572 1.8448 14.0872 1.8448 14.3149 1.8448C14.7956 1.8448 15.258 1.4205 15.235 0.922418C15.2166 0.422026 14.8347 3.64651e-05 14.3195 3.64651e-05Z" fill="#E16452"/>
<path d="M21.8772 3.37114C21.6955 3.37114 21.5115 3.37114 21.3298 3.37114C20.833 3.37114 20.3362 3.37114 19.8393 3.37114C19.1056 3.37114 18.3695 3.37114 17.6358 3.37114C16.7387 3.37114 15.8417 3.37114 14.9469 3.37114C13.9648 3.37114 12.9826 3.37114 12.0005 3.37114C11.0091 3.37114 10.0178 3.37114 9.02641 3.37114C8.10176 3.37114 7.1771 3.37114 6.25245 3.37114C5.47041 3.37114 4.68836 3.37114 3.90862 3.37114C3.34508 3.37114 2.78155 3.37114 2.21802 3.37114C1.95351 3.37114 1.68899 3.36884 1.42218 3.37114C1.41067 3.37114 1.39917 3.37114 1.38767 3.37114C0.906946 3.37114 0.444619 3.79544 0.467621 4.29352C0.490622 4.79392 0.872444 5.2159 1.38767 5.2159C1.56938 5.2159 1.75339 5.2159 1.9351 5.2159C2.43193 5.2159 2.92876 5.2159 3.42559 5.2159C4.15933 5.2159 4.89537 5.2159 5.62911 5.2159C6.52617 5.2159 7.42322 5.2159 8.31797 5.2159C9.30012 5.2159 10.2823 5.2159 11.2644 5.2159C12.2558 5.2159 13.2471 5.2159 14.2385 5.2159C15.1632 5.2159 16.0878 5.2159 17.0125 5.2159C17.7945 5.2159 18.5766 5.2159 19.3563 5.2159C19.9198 5.2159 20.4834 5.2159 21.0469 5.2159C21.3114 5.2159 21.5759 5.21821 21.8427 5.2159C21.8542 5.2159 21.8657 5.2159 21.8772 5.2159C22.358 5.2159 22.8203 4.79161 22.7973 4.29352C22.7743 3.79313 22.3925 3.37114 21.8772 3.37114Z" fill="#E16452"/>
<path d="M9.61661 17.8023C9.61661 17.491 9.61661 17.1796 9.61661 16.8706C9.61661 16.1235 9.61661 15.3787 9.61661 14.6316C9.61661 13.7322 9.61661 12.8352 9.61661 11.9359C9.61661 11.1565 9.61661 10.3748 9.61661 9.59536C9.61661 9.21719 9.62351 8.83901 9.61661 8.46083C9.61661 8.45622 9.61661 8.4493 9.61661 8.44469C9.61661 7.96275 9.19339 7.49925 8.69656 7.52231C8.19743 7.54537 7.7765 7.92816 7.7765 8.44469C7.7765 8.756 7.7765 9.0673 7.7765 9.3763C7.7765 10.1234 7.7765 10.8683 7.7765 11.6154C7.7765 12.5147 7.7765 13.4117 7.7765 14.311C7.7765 15.0905 7.7765 15.8722 7.7765 16.6516C7.7765 17.0298 7.7696 17.4079 7.7765 17.7861C7.7765 17.7907 7.7765 17.7976 7.7765 17.8023C7.7765 18.2842 8.19973 18.7477 8.69656 18.7246C9.19339 18.7039 9.61661 18.3211 9.61661 17.8023Z" fill="#E16452"/>
<path d="M15.4858 17.8023C15.4858 17.491 15.4858 17.1796 15.4858 16.8706C15.4858 16.1235 15.4858 15.3787 15.4858 14.6316C15.4858 13.7322 15.4858 12.8352 15.4858 11.9359C15.4858 11.1565 15.4858 10.3748 15.4858 9.59536C15.4858 9.21719 15.4927 8.83901 15.4858 8.46083C15.4858 8.45622 15.4858 8.4493 15.4858 8.44469C15.4858 7.96275 15.0625 7.49925 14.5657 7.52231C14.0666 7.54537 13.6456 7.92816 13.6456 8.44469C13.6456 8.756 13.6456 9.0673 13.6456 9.3763C13.6456 10.1234 13.6456 10.8683 13.6456 11.6154C13.6456 12.5147 13.6456 13.4117 13.6456 14.311C13.6456 15.0905 13.6456 15.8722 13.6456 16.6516C13.6456 17.0298 13.6387 17.4079 13.6456 17.7861C13.6456 17.7907 13.6456 17.7976 13.6456 17.8023C13.6456 18.2842 14.0689 18.7477 14.5657 18.7246C15.0648 18.7039 15.4858 18.3211 15.4858 17.8023Z" fill="#E16452"/>
</svg>
