<svg width="63" height="62" viewBox="0 0 63 62" fill="none" xmlns="http://www.w3.org/2000/svg">
<circle cx="31.25" cy="31" r="30.5" stroke="#41CAF6"/>
<path fill-rule="evenodd" clip-rule="evenodd" d="M26.0195 17.0498H36.482C41.2965 17.0498 45.2008 20.9541 45.2008 25.7686V36.2311C45.2008 41.0455 41.2965 44.9498 36.482 44.9498H26.0195C21.205 44.9498 17.3008 41.0455 17.3008 36.2311V25.7686C17.3008 20.9541 21.205 17.0498 26.0195 17.0498ZM36.4813 42.3344C39.8467 42.3344 42.5844 39.5967 42.5844 36.2313V25.7688C42.5844 22.4033 39.8467 19.6656 36.4813 19.6656H26.0188C22.6533 19.6656 19.9156 22.4033 19.9156 25.7688V36.2313C19.9156 39.5967 22.6533 42.3344 26.0188 42.3344H36.4813Z" fill="#41CAF6"/>
<path fill-rule="evenodd" clip-rule="evenodd" d="M24.2773 30.9994C24.2773 27.1475 27.4004 24.0244 31.2523 24.0244C35.1043 24.0244 38.2273 27.1475 38.2273 30.9994C38.2273 34.8514 35.1043 37.9744 31.2523 37.9744C27.4004 37.9744 24.2773 34.8514 24.2773 30.9994ZM26.893 30.9995C26.893 33.4023 28.8495 35.3588 31.2524 35.3588C33.6553 35.3588 35.6118 33.4023 35.6118 30.9995C35.6118 28.5948 33.6553 26.6401 31.2524 26.6401C28.8495 26.6401 26.893 28.5948 26.893 30.9995Z" fill="#41CAF6"/>
<circle cx="38.7497" cy="23.5017" r="0.929419" fill="#41CAF6"/>
</svg>
