<svg width="63" height="62" viewBox="0 0 63 62" fill="none" xmlns="http://www.w3.org/2000/svg">
<circle cx="31.5" cy="31" r="30.5" stroke="#C78FFE"/>
<path d="M46.3794 22.5831C45.3188 23.0483 44.1887 23.3567 43.0104 23.5064C44.2225 22.7828 45.1477 21.6455 45.5826 20.2748C44.4525 20.9486 43.2047 21.4245 41.875 21.6901C40.8019 20.5475 39.2725 19.8398 37.6041 19.8398C34.3671 19.8398 31.7611 22.4672 31.7611 25.6882C31.7611 26.1517 31.8003 26.5973 31.8966 27.0215C27.0357 26.7845 22.7345 24.4547 19.8451 20.9058C19.3406 21.781 19.0447 22.7828 19.0447 23.8612C19.0447 25.8861 20.0875 27.6811 21.6418 28.7203C20.7025 28.7024 19.7809 28.4297 19.0002 28.0001C19.0002 28.018 19.0002 28.0411 19.0002 28.0643C19.0002 30.9056 21.0269 33.2656 23.6846 33.8093C23.2087 33.9394 22.6899 34.0018 22.1516 34.0018C21.7773 34.0018 21.3994 33.9804 21.0447 33.902C21.8023 36.2175 23.952 37.9197 26.5081 37.975C24.5188 39.5311 21.993 40.4687 19.2586 40.4687C18.7791 40.4687 18.3193 40.4473 17.8594 40.3885C20.4493 42.0587 23.5188 43.0123 26.8289 43.0123C37.5881 43.0123 43.4703 34.0998 43.4703 26.3745C43.4703 26.116 43.4614 25.8665 43.4489 25.6187C44.6094 24.7952 45.5844 23.7667 46.3794 22.5831Z" fill="#C78FFE"/>
</svg>
