<svg width="227" height="227" viewBox="0 0 227 227" fill="none" xmlns="http://www.w3.org/2000/svg">
<circle cx="113.446" cy="113.446" r="112.946" stroke="white"/>
<path d="M54 114.748H57.384V116.44C57.384 117.988 57.672 119.104 58.212 119.788C58.32 119.968 58.536 120.112 58.86 120.292C59.184 120.472 59.652 120.58 60.336 120.58C61.632 120.58 62.352 119.932 62.784 119.14C63.18 118.348 63.252 117.34 63.252 116.62C63.252 115.36 62.82 114.532 62.208 113.92C61.596 113.344 60.768 112.948 60.012 112.624L59.364 112.336C58.608 112.012 57.312 111.472 56.16 110.356C54.72 108.952 54 107.188 54 105.028C54 102.76 54.612 100.852 55.764 99.52C56.88 98.224 58.464 97.432 60.336 97.432C62.928 97.432 64.368 98.548 65.124 99.52C66.168 100.852 66.672 102.688 66.672 105.028V106.72H63.252V105.028C63.252 102.976 62.784 101.86 62.172 101.356C61.56 100.852 60.804 100.852 60.336 100.852C58.932 100.852 58.248 101.608 57.852 102.544C57.42 103.48 57.384 104.56 57.384 105.028C57.384 106.288 57.816 107.116 58.428 107.764C59.04 108.412 59.868 108.88 60.732 109.204L61.308 109.456C61.992 109.744 63.288 110.212 64.44 111.328C65.916 112.696 66.672 114.46 66.672 116.62C66.672 120.688 64.404 123.964 60.336 123.964C56.124 123.964 54 121.192 54 116.44V114.748ZM79.2886 97.468V100.852H71.6926V109.024H79.2886V112.408H71.6926V120.616H79.2886V124H68.3086V97.468H79.2886ZM92.6831 97.468V100.852H85.0871V109.024H92.6831V112.408H85.0871V120.616H92.6831V124H81.7031V97.468H92.6831ZM113.228 123.964L109.556 111.256V123.964H106.172V97.432H109.16L114.524 116.116L119.852 97.432H122.84V123.964H119.456V111.256L115.784 123.964H113.228ZM125.543 104.992C125.543 102.652 126.047 100.816 127.055 99.52C127.451 99.052 127.991 98.548 128.783 98.116C129.575 97.72 130.547 97.432 131.843 97.432C134.435 97.432 135.875 98.548 136.631 99.52C137.639 100.816 138.143 102.652 138.143 104.992V116.404C138.143 118.744 137.639 120.58 136.631 121.876C135.875 122.848 134.435 123.964 131.843 123.964C129.287 123.964 127.811 122.848 127.055 121.876C126.047 120.58 125.543 118.744 125.543 116.404V104.992ZM128.927 116.404C128.927 118.528 129.395 119.536 130.007 120.04C130.619 120.544 131.303 120.58 131.843 120.58C132.311 120.58 133.067 120.544 133.679 120.04C134.291 119.536 134.759 118.528 134.759 116.404V104.992C134.759 102.94 134.291 101.86 133.679 101.356C133.067 100.852 132.311 100.852 131.843 100.852C131.303 100.852 130.619 100.852 130.007 101.356C129.395 101.86 128.927 102.94 128.927 104.992V116.404ZM152.445 123.964H149.025V116.116C149.025 113.776 147.909 112.624 145.641 112.624H143.517V123.964H140.133V97.432H145.641C150.213 97.432 152.373 100.06 152.373 104.992C152.373 107.44 151.833 109.312 150.789 110.572C150.753 110.608 150.681 110.68 150.645 110.752C150.573 110.824 150.501 110.896 150.429 110.932C151.725 112.192 152.445 113.92 152.445 116.116V123.964ZM143.517 109.204H145.641C146.541 109.204 147.189 109.096 147.549 108.88C147.873 108.664 148.089 108.484 148.197 108.376C148.737 107.692 148.989 106.576 148.989 104.992C148.989 103.228 148.701 102.184 148.161 101.572C147.585 100.996 146.757 100.852 145.641 100.852H143.517V109.204ZM166.125 97.468V100.852H158.529V109.024H166.125V112.408H158.529V120.616H166.125V124H155.145V97.468H166.125Z" fill="white"/>
</svg>
