<svg width="304" height="105" viewBox="0 0 304 105" fill="none" xmlns="http://www.w3.org/2000/svg">
<path d="M58.784 19.882H57.272V17.908C57.272 12.994 55.298 10.558 51.392 10.558C47.57 10.558 45.47 13.666 45.47 17.908C45.47 20.302 46.394 21.94 47.57 23.032C48.704 24.124 50.048 24.712 50.846 25.048L51.56 25.384C52.274 25.678 53.45 26.098 54.458 27.022C55.466 27.946 56.306 29.374 56.306 31.432C56.306 35.296 54.458 37.522 51.392 37.522C48.074 37.522 46.478 35.59 46.478 31.222V29.248H47.948V31.222C47.948 33.028 48.284 34.33 48.914 35.128C49.04 35.338 49.292 35.506 49.67 35.716C50.048 35.926 50.594 36.052 51.392 36.052C52.904 36.052 53.744 35.296 54.248 34.372C54.71 33.448 54.794 32.272 54.794 31.432C54.794 29.962 54.29 28.996 53.576 28.282C52.862 27.61 51.896 27.148 51.014 26.77L50.258 26.434C49.376 26.056 47.864 25.426 46.52 24.124C44.84 22.486 44 20.428 44 17.908C44 15.262 44.714 13.036 46.058 11.482C47.36 9.97 49.208 9.046 51.392 9.046C54.416 9.046 56.096 10.348 56.978 11.482C58.196 13.036 58.784 15.178 58.784 17.908V19.882ZM44 29.248H45.47V31.222C45.47 36.052 47.486 38.53 51.392 38.53C53.24 38.53 54.794 37.816 55.802 36.43C56.768 35.212 57.272 33.448 57.272 31.432C57.272 29.038 56.306 27.4 55.172 26.35C53.996 25.3 52.652 24.754 51.938 24.46L51.266 24.166C50.468 23.83 49.292 23.326 48.284 22.318C47.276 21.352 46.478 19.966 46.478 17.908C46.478 16.438 46.772 14.842 47.57 13.624C48.368 12.406 49.586 11.524 51.392 11.524C54.626 11.524 56.306 13.54 56.306 17.908V19.882H54.794V17.908C54.794 15.514 54.248 14.212 53.534 13.624C52.82 13.036 51.938 13.036 51.392 13.036C49.754 13.036 48.956 13.918 48.494 15.01C47.99 16.102 47.948 17.362 47.948 17.908C47.948 19.378 48.452 20.344 49.166 21.1C49.88 21.856 50.846 22.402 51.854 22.78L52.526 23.074C53.324 23.41 54.836 23.956 56.18 25.258C57.902 26.854 58.784 28.912 58.784 31.432C58.784 36.178 56.138 40 51.392 40C46.478 40 44 36.766 44 31.222V29.248ZM62.1634 9.004V39.958H60.6934V9.004H62.1634ZM72.1174 23.998H63.1714V9.004H64.6414V22.528H70.6054V9.004H72.1174V23.998ZM73.0834 39.958V9.004H74.5954V39.958H73.0834ZM63.1714 25.006H72.1174V39.958H70.6054V26.476H64.6414V39.958H63.1714V25.006ZM85.4809 9.046H88.6309L95.8129 40H94.2589L87.4969 10.81H86.5729L79.8109 40H78.2989L85.4809 9.046ZM87.0349 13.246L90.6469 28.912H83.3809L87.0349 13.246ZM87.0349 19.84L85.2709 27.4H88.7989L87.0349 19.84ZM82.3729 40H80.8189L83.1709 29.878H90.8989L93.2509 40H91.7389L89.7229 31.39H84.3469L82.3729 40ZM111.93 40H110.418V30.844C110.418 28.786 109.83 27.148 108.612 25.93C108.108 25.468 107.52 25.09 106.848 24.796C109.2 23.914 110.376 21.604 110.376 17.866C110.376 12.868 108.402 10.558 103.992 10.558H97.5664V9.046H103.992C109.326 9.046 111.846 12.112 111.846 17.866C111.846 20.722 111.216 22.906 109.998 24.376C109.956 24.418 109.872 24.502 109.83 24.586C109.746 24.67 109.662 24.754 109.578 24.796C111.09 26.266 111.93 28.282 111.93 30.844V40ZM97.5664 11.524H99.0364V40H97.5664V11.524ZM100.044 24.25V11.524H103.992C107.814 11.524 109.368 13.372 109.368 17.866C109.368 22.402 107.814 24.25 103.992 24.25H100.044ZM101.514 13.036V22.78H103.992C105.042 22.78 105.798 22.654 106.218 22.402C106.596 22.15 106.848 21.94 106.974 21.814C107.604 21.016 107.898 19.714 107.898 17.866C107.898 15.808 107.562 14.59 106.932 13.876C106.26 13.204 105.294 13.036 103.992 13.036H101.514ZM109.452 40H107.94V30.844C107.94 28.114 106.638 26.77 103.992 26.77H101.514V40H100.044V25.258H103.992C107.478 25.258 109.452 27.274 109.452 30.844V40ZM116.55 10.558V38.53H127.89V40H115.08V9.046H127.89V10.558H116.55ZM117.558 11.524H127.89V13.036H119.028V22.528H127.89V24.04H117.558V11.524ZM117.558 25.006H127.89V26.518H119.028V36.052H127.89V37.522H117.558V25.006ZM159.419 38.194L160.469 39.916H158.831L157.487 37.816C155.849 39.202 153.791 39.916 151.313 39.916C149.003 39.916 146.987 39.034 145.601 37.396C144.299 35.842 143.627 33.91 143.627 31.642C143.627 29.458 144.215 27.82 145.097 26.56C145.937 25.3 147.071 24.376 148.121 23.494C148.331 23.326 148.541 23.158 148.709 22.99C148.205 22.15 147.659 21.058 147.197 19.84C146.735 18.622 146.399 17.362 146.399 16.06C146.399 11.902 147.659 8.962 151.313 8.962C153.287 8.962 154.715 9.886 155.513 11.692C156.143 13.036 156.185 14.716 156.185 16.06C156.185 18.412 155.597 20.68 154.463 22.528C154.169 22.99 153.959 23.284 153.749 23.578L157.067 29.206C157.109 28.744 157.151 28.24 157.151 27.778V26.518V24.502H158.663V26.518C158.663 28.366 158.537 31.012 157.655 33.238L151.943 23.41C152.321 23.032 153.035 22.192 153.623 20.974C154.211 19.798 154.715 18.118 154.715 16.06C154.715 14.884 154.631 13.414 154.127 12.28C153.623 11.062 152.699 10.474 151.313 10.474C150.095 10.474 149.171 10.978 148.583 11.986C148.121 12.868 147.911 14.254 147.911 16.06C147.911 17.446 148.457 19 149.045 20.302C149.633 21.604 150.305 22.696 150.641 23.242C150.389 23.494 150.137 23.746 149.885 23.956C149.591 24.166 149.339 24.418 149.087 24.628C148.079 25.468 147.029 26.308 146.315 27.4C145.601 28.492 145.097 29.794 145.097 31.642C145.097 33.49 145.685 35.212 146.735 36.43C147.911 37.774 149.423 38.446 151.313 38.446C154.169 38.446 156.311 37.396 157.739 35.296L159.419 38.194ZM151.313 11.44C153.035 11.44 153.707 12.7 153.707 16.06C153.707 17.866 153.329 19.252 152.825 20.302C152.321 21.352 151.733 22.15 151.355 22.528C151.019 21.982 150.389 20.932 149.885 19.756C149.339 18.58 148.877 17.236 148.877 16.06C148.877 14.044 149.171 12.868 149.633 12.196C150.095 11.566 150.683 11.44 151.313 11.44ZM151.481 19.714C151.859 18.748 152.195 17.572 152.195 16.06V15.514C152.195 15.052 152.153 14.506 152.069 13.96C152.027 13.708 151.943 13.498 151.859 13.288C151.733 12.994 151.691 12.952 151.313 12.952C150.935 12.952 150.935 12.994 150.809 13.162C150.683 13.372 150.599 13.666 150.515 14.086C150.431 14.506 150.389 15.178 150.389 16.06C150.389 17.194 150.851 18.538 151.481 19.714ZM157.151 34.33C156.017 36.388 154.043 37.438 151.313 37.438C149.507 37.438 148.205 36.682 147.365 35.59C146.525 34.498 146.105 33.112 146.105 31.642C146.105 30.088 146.483 28.912 147.155 27.946C147.827 26.98 148.709 26.224 149.717 25.384L150.473 24.712C150.683 24.502 150.935 24.292 151.187 24.082L157.151 34.33ZM159.629 24.502H161.141V26.518C161.141 28.576 161.015 31.558 159.965 34.204L163.535 39.916H161.645L160.259 37.69L158.285 34.288C158.285 34.288 158.327 34.246 158.369 34.12C159.503 31.6 159.629 28.576 159.629 26.518V24.502ZM150.809 26.392L150.683 26.518C149.717 27.358 148.919 27.988 148.415 28.744C147.869 29.5 147.575 30.424 147.575 31.642C147.575 32.65 147.869 33.742 148.457 34.54C149.045 35.38 149.969 35.968 151.313 35.968C153.119 35.968 154.463 35.422 155.387 34.288L150.809 26.392ZM197.701 38.362H198.583L205.009 9.046H206.563L199.717 40H196.525L192.199 20.26L187.831 40H184.639L177.793 9.046H179.347L185.815 38.362H186.655L192.199 13.33L197.701 38.362ZM198.121 35.716L192.619 10.684H191.737L186.235 35.716L180.355 9.046H181.867L186.235 28.828L190.603 9.046H193.795L198.121 28.828L202.489 9.046H204.001L198.121 35.716ZM209.491 10.558V38.53H220.831V40H208.021V9.046H220.831V10.558H209.491ZM210.499 11.524H220.831V13.036H211.969V22.528H220.831V24.04H210.499V11.524ZM210.499 25.006H220.831V26.518H211.969V36.052H220.831V37.522H210.499V25.006ZM231.25 9.046H234.4L241.582 40H240.028L233.266 10.81H232.342L225.58 40H224.068L231.25 9.046ZM232.804 13.246L236.416 28.912H229.15L232.804 13.246ZM232.804 19.84L231.04 27.4H234.568L232.804 19.84ZM228.142 40H226.588L228.94 29.878H236.668L239.02 40H237.508L235.492 31.39H230.116L228.142 40ZM257.7 40H256.188V30.844C256.188 28.786 255.6 27.148 254.382 25.93C253.878 25.468 253.29 25.09 252.618 24.796C254.97 23.914 256.146 21.604 256.146 17.866C256.146 12.868 254.172 10.558 249.762 10.558H243.336V9.046H249.762C255.096 9.046 257.616 12.112 257.616 17.866C257.616 20.722 256.986 22.906 255.768 24.376C255.726 24.418 255.642 24.502 255.6 24.586C255.516 24.67 255.432 24.754 255.348 24.796C256.86 26.266 257.7 28.282 257.7 30.844V40ZM243.336 11.524H244.806V40H243.336V11.524ZM245.814 24.25V11.524H249.762C253.584 11.524 255.138 13.372 255.138 17.866C255.138 22.402 253.584 24.25 249.762 24.25H245.814ZM247.284 13.036V22.78H249.762C250.812 22.78 251.568 22.654 251.988 22.402C252.366 22.15 252.618 21.94 252.744 21.814C253.374 21.016 253.668 19.714 253.668 17.866C253.668 15.808 253.332 14.59 252.702 13.876C252.03 13.204 251.064 13.036 249.762 13.036H247.284ZM255.222 40H253.71V30.844C253.71 28.114 252.408 26.77 249.762 26.77H247.284V40H245.814V25.258H249.762C253.248 25.258 255.222 27.274 255.222 30.844V40Z" fill="black"/>
<path d="M0 84.206H3.948V86.18C3.948 87.986 4.284 89.288 4.914 90.086C5.04 90.296 5.292 90.464 5.67 90.674C6.048 90.884 6.594 91.01 7.392 91.01C8.904 91.01 9.744 90.254 10.248 89.33C10.71 88.406 10.794 87.23 10.794 86.39C10.794 84.92 10.29 83.954 9.576 83.24C8.862 82.568 7.896 82.106 7.014 81.728L6.258 81.392C5.376 81.014 3.864 80.384 2.52 79.082C0.84 77.444 0 75.386 0 72.866C0 70.22 0.714 67.994 2.058 66.44C3.36 64.928 5.208 64.004 7.392 64.004C10.416 64.004 12.096 65.306 12.978 66.44C14.196 67.994 14.784 70.136 14.784 72.866V74.84H10.794V72.866C10.794 70.472 10.248 69.17 9.534 68.582C8.82 67.994 7.938 67.994 7.392 67.994C5.754 67.994 4.956 68.876 4.494 69.968C3.99 71.06 3.948 72.32 3.948 72.866C3.948 74.336 4.452 75.302 5.166 76.058C5.88 76.814 6.846 77.36 7.854 77.738L8.526 78.032C9.324 78.368 10.836 78.914 12.18 80.216C13.902 81.812 14.784 83.87 14.784 86.39C14.784 91.136 12.138 94.958 7.392 94.958C2.478 94.958 0 91.724 0 86.18V84.206ZM16.6934 64.004H20.6414V86.726C20.6414 88.868 21.1034 89.96 21.7334 90.464C22.3634 91.01 23.0774 91.01 23.6234 91.01C24.1694 91.01 24.8834 91.01 25.5134 90.464C26.1434 89.96 26.6054 88.868 26.6054 86.726V64.004H30.5534V86.726C30.5534 89.288 30.0074 91.262 28.8734 92.648C28.0334 93.782 26.4374 94.958 23.6234 94.958C20.8094 94.958 19.2134 93.782 18.3734 92.648C17.2394 91.262 16.6934 89.288 16.6934 86.726V64.004ZM33.7148 84.206H37.6628V86.18C37.6628 87.986 37.9988 89.288 38.6288 90.086C38.7548 90.296 39.0068 90.464 39.3848 90.674C39.7628 90.884 40.3088 91.01 41.1068 91.01C42.6188 91.01 43.4588 90.254 43.9628 89.33C44.4248 88.406 44.5088 87.23 44.5088 86.39C44.5088 84.92 44.0048 83.954 43.2908 83.24C42.5768 82.568 41.6108 82.106 40.7288 81.728L39.9728 81.392C39.0908 81.014 37.5788 80.384 36.2348 79.082C34.5548 77.444 33.7148 75.386 33.7148 72.866C33.7148 70.22 34.4288 67.994 35.7728 66.44C37.0748 64.928 38.9228 64.004 41.1068 64.004C44.1308 64.004 45.8108 65.306 46.6928 66.44C47.9108 67.994 48.4988 70.136 48.4988 72.866V74.84H44.5088V72.866C44.5088 70.472 43.9628 69.17 43.2488 68.582C42.5348 67.994 41.6528 67.994 41.1068 67.994C39.4688 67.994 38.6708 68.876 38.2088 69.968C37.7048 71.06 37.6628 72.32 37.6628 72.866C37.6628 74.336 38.1668 75.302 38.8808 76.058C39.5948 76.814 40.5608 77.36 41.5688 77.738L42.2408 78.032C43.0388 78.368 44.5508 78.914 45.8948 80.216C47.6168 81.812 48.4988 83.87 48.4988 86.39C48.4988 91.136 45.8528 94.958 41.1068 94.958C36.1928 94.958 33.7148 91.724 33.7148 86.18V84.206ZM50.4082 64.004H67.9222V67.994H61.1602V94.958H57.1702V67.994H50.4082V64.004ZM81.1916 86.348H75.8156L73.8416 95H69.7676L76.9076 64.046H80.0576L87.2816 95H83.1656L81.1916 86.348ZM76.7396 82.4H80.2676L78.5036 74.798L76.7396 82.4ZM93.3096 95H89.3616V64.046H93.3096V95ZM108.1 94.958L100.54 76.226V94.958H96.5918V64.004H99.9098L107.47 82.736V64.004H111.46V94.958H108.1ZM125.858 86.348H120.482L118.508 95H114.434L121.574 64.046H124.724L131.948 95H127.832L125.858 86.348ZM121.406 82.4H124.934L123.17 74.798L121.406 82.4ZM132.768 95V64.046H138.732C141.378 64.046 143.31 64.844 144.528 66.398C145.746 67.784 146.334 69.926 146.334 72.74C146.334 75.554 145.746 77.654 144.528 79.124C144.486 79.208 144.36 79.334 144.192 79.502C144.36 79.67 144.486 79.796 144.528 79.922C145.746 81.392 146.334 83.492 146.334 86.306C146.334 89.12 145.746 91.262 144.528 92.648C143.268 94.202 141.336 95 138.732 95H132.768ZM136.716 67.994V77.528H138.732C139.614 77.528 140.286 77.402 140.664 77.192C141.042 76.982 141.336 76.814 141.462 76.604C142.05 75.89 142.344 74.63 142.344 72.74C142.344 70.556 141.966 69.38 141.336 68.708C140.664 68.078 139.74 67.994 138.732 67.994H136.716ZM136.716 81.476V91.052H138.732C139.74 91.052 140.664 90.968 141.336 90.296C141.966 89.666 142.344 88.49 142.344 86.306C142.344 84.08 141.924 82.862 141.294 82.19C140.622 81.56 139.74 81.476 138.732 81.476H136.716ZM162.041 94.958H148.559V64.004H152.507V91.01H162.041V94.958ZM176.339 64.046V67.994H167.477V77.528H176.339V81.476H167.477V91.052H176.339V95H163.529V64.046H176.339ZM204.886 64.046V67.994H196.024V77.528H204.886V81.476H196.024V95H192.076V64.046H204.886ZM219.127 86.348H213.751L211.777 95H207.703L214.843 64.046H217.993L225.217 95H221.101L219.127 86.348ZM214.675 82.4H218.203L216.439 74.798L214.675 82.4ZM226.037 84.206H229.985V86.18C229.985 87.986 230.321 89.288 230.951 90.086C231.077 90.296 231.329 90.464 231.707 90.674C232.085 90.884 232.631 91.01 233.429 91.01C234.941 91.01 235.781 90.254 236.285 89.33C236.747 88.406 236.831 87.23 236.831 86.39C236.831 84.92 236.327 83.954 235.613 83.24C234.899 82.568 233.933 82.106 233.051 81.728L232.295 81.392C231.413 81.014 229.901 80.384 228.557 79.082C226.877 77.444 226.037 75.386 226.037 72.866C226.037 70.22 226.751 67.994 228.095 66.44C229.397 64.928 231.245 64.004 233.429 64.004C236.453 64.004 238.133 65.306 239.015 66.44C240.233 67.994 240.821 70.136 240.821 72.866V74.84H236.831V72.866C236.831 70.472 236.285 69.17 235.571 68.582C234.857 67.994 233.975 67.994 233.429 67.994C231.791 67.994 230.993 68.876 230.531 69.968C230.027 71.06 229.985 72.32 229.985 72.866C229.985 74.336 230.489 75.302 231.203 76.058C231.917 76.814 232.883 77.36 233.891 77.738L234.563 78.032C235.361 78.368 236.873 78.914 238.217 80.216C239.939 81.812 240.821 83.87 240.821 86.39C240.821 91.136 238.175 94.958 233.429 94.958C228.515 94.958 226.037 91.724 226.037 86.18V84.206ZM252.642 77.528V64.046H256.632V95H252.642V81.518H246.678V95H242.73V64.046H246.678V77.528H252.642ZM265.124 95H261.176V64.046H265.124V95ZM268.406 72.824C268.406 70.094 268.994 67.952 270.17 66.44C270.632 65.894 271.262 65.306 272.186 64.802C273.11 64.34 274.244 64.004 275.756 64.004C278.78 64.004 280.46 65.306 281.342 66.44C282.518 67.952 283.106 70.094 283.106 72.824V86.138C283.106 88.868 282.518 91.01 281.342 92.522C280.46 93.656 278.78 94.958 275.756 94.958C272.774 94.958 271.052 93.656 270.17 92.522C268.994 91.01 268.406 88.868 268.406 86.138V72.824ZM272.354 86.138C272.354 88.616 272.9 89.792 273.614 90.38C274.328 90.968 275.126 91.01 275.756 91.01C276.302 91.01 277.184 90.968 277.898 90.38C278.612 89.792 279.158 88.616 279.158 86.138V72.824C279.158 70.43 278.612 69.17 277.898 68.582C277.184 67.994 276.302 67.994 275.756 67.994C275.126 67.994 274.328 67.994 273.614 68.582C272.9 69.17 272.354 70.43 272.354 72.824V86.138ZM296.936 94.958L289.376 76.226V94.958H285.428V64.004H288.746L296.306 82.736V64.004H300.296V94.958H296.936Z" fill="black"/>
</svg>
