<svg width="20" height="20" viewBox="0 0 20 20" fill="none" xmlns="http://www.w3.org/2000/svg">
<path d="M20.0019 10.24C20.0019 9.5646 19.9353 8.86745 19.8241 8.21387H10.1992V12.07H15.7119C15.4896 13.3118 14.756 14.4011 13.6668 15.0983L16.9567 17.6037C18.8905 15.839 20.0019 13.2682 20.0019 10.24Z" fill="#4280EF"/>
<path d="M10.1957 20.0003C12.952 20.0003 15.2637 19.1071 16.9531 17.582L13.6633 15.0984C12.7519 15.7084 11.5738 16.057 10.1957 16.057C7.52827 16.057 5.2832 14.2923 4.46075 11.9395L1.08203 14.4884C2.81585 17.8653 6.32793 20.0003 10.1957 20.0003Z" fill="#34A353"/>
<path d="M4.46235 11.9178C4.04001 10.676 4.04001 9.32525 4.46235 8.08345L1.08363 5.5127C-0.361211 8.34488 -0.361211 11.6781 1.08363 14.4885L4.46235 11.9178Z" fill="#F6B704"/>
<path d="M10.1957 3.96544C11.6405 3.94365 13.0631 4.48831 14.1079 5.46868L17.0198 2.59292C15.1748 0.893608 12.7297 -0.0214058 10.1957 0.000380229C6.32793 0.000380229 2.81585 2.13541 1.08203 5.51225L4.46075 8.083C5.2832 5.70832 7.52827 3.96544 10.1957 3.96544Z" fill="#E54335"/>
</svg>
