<svg width="20" height="20" viewBox="0 0 20 20" fill="none" xmlns="http://www.w3.org/2000/svg">
<path d="M20 10.0611C20 4.50451 15.5229 0 10 0C4.47715 0 0 4.50451 0 10.0611C0 15.0829 3.65685 19.2452 8.4375 20V12.9694H5.89844V10.0611H8.4375V7.84453C8.4375 5.32295 9.93043 3.93013 12.2146 3.93013C13.3087 3.93013 14.4531 4.12663 14.4531 4.12663V6.60261H13.1922C11.9499 6.60261 11.5625 7.37816 11.5625 8.17382V10.0611H14.3359L13.8926 12.9694H11.5625V20C16.3431 19.2452 20 15.0829 20 10.0611Z" fill="#1877F2"/>
<path d="M13.8926 12.8904L14.3359 9.99987H11.5625V8.12406C11.5625 7.33327 11.9499 6.56244 13.1921 6.56244H14.4531V4.10155C14.4531 4.10155 13.3087 3.90625 12.2146 3.90625C9.93042 3.90625 8.4375 5.29059 8.4375 7.79679V9.99987H5.89844V12.8904H8.4375V19.8782C8.95439 19.9592 9.4768 19.9998 10 19.9996C10.5316 19.9996 11.0534 19.958 11.5625 19.8782V12.8904H13.8926Z" fill="white"/>
</svg>
